<svg width="16" height="16" viewBox="0 0 16 16" fill="none" xmlns="http://www.w3.org/2000/svg">
<path fill-rule="evenodd" clip-rule="evenodd" d="M0.5 8C0.5 12.1421 3.85786 15.5 8 15.5C12.1421 15.5 15.5 12.1421 15.5 8C15.5 3.85786 12.1421 0.5 8 0.5C3.85786 0.5 0.5 3.85786 0.5 8ZM11.3075 4.395L6.495 9.2075L4.71 7.405C4.4825 7.1775 4.1325 7.1775 3.9225 7.405L3.2925 8.0175C3.0825 8.245 3.0825 8.595 3.2925 8.805L6.11 11.6225C6.32 11.8325 6.67 11.8325 6.8975 11.6225L12.725 5.795C12.935 5.585 12.935 5.235 12.725 5.0075L12.095 4.395C11.885 4.1675 11.535 4.1675 11.3075 4.395Z" fill="#A3FFFF"/>
</svg>
