<svg width="87" height="35" viewBox="0 0 87 35" fill="none" xmlns="http://www.w3.org/2000/svg">
<path d="M54.2181 11.701C48.59 11.0756 33.6337 10.3982 26.8591 10.1376L39.3661 3.88414C41.7111 2.3211 47.7558 1.50558 52.6547 2.32149C57.3449 3.10263 61.7073 5.44895 66.725 10.1383C70.4689 13.6371 73.4996 15.87 73.7602 16.3911C69.5912 15.0883 59.8462 12.3263 54.2181 11.701Z" stroke="#F9DF00" stroke-width="3"/>
<g filter="url(#filter0_d)">
<path d="M6 13.2746C6 8.58447 20.3309 9.1057 28.6688 8.58447C35.4434 8.84503 50.3997 9.52249 56.0278 10.1478C61.6559 10.7732 71.4009 13.5351 75.5699 14.8379C78.7781 15.8405 81.0417 17.183 81.0417 18.7464C81.0417 23.4365 69.3164 24.9998 64.6263 24.9998C59.9362 24.9998 45.2411 22.8466 40.3941 21.8731C31.0139 19.9891 20.5914 18.2252 13.0352 17.183C9.12674 16.4013 6 15.6196 6 13.2746Z" fill="#F9DF00"/>
<path d="M6 13.2746C6 8.58447 20.3309 9.1057 28.6688 8.58447C35.4434 8.84503 50.3997 9.52249 56.0278 10.1478C61.6559 10.7732 71.4009 13.5351 75.5699 14.8379C78.7781 15.8405 81.0417 17.183 81.0417 18.7464C81.0417 23.4365 69.3164 24.9998 64.6263 24.9998C59.9362 24.9998 45.2411 22.8466 40.3941 21.8731C31.0139 19.9891 20.5914 18.2252 13.0352 17.183C9.12674 16.4013 6 15.6196 6 13.2746Z" stroke="#F9DF00"/>
</g>
<defs>
<filter id="filter0_d" x="0.5" y="7.08386" width="86.0417" height="27.416" filterUnits="userSpaceOnUse" color-interpolation-filters="sRGB">
<feFlood flood-opacity="0" result="BackgroundImageFix"/>
<feColorMatrix in="SourceAlpha" type="matrix" values="0 0 0 0 0 0 0 0 0 0 0 0 0 0 0 0 0 0 127 0"/>
<feOffset dy="4"/>
<feGaussianBlur stdDeviation="2.5"/>
<feColorMatrix type="matrix" values="0 0 0 0 0.176471 0 0 0 0 0.458824 0 0 0 0 0.862745 0 0 0 1 0"/>
<feBlend mode="normal" in2="BackgroundImageFix" result="effect1_dropShadow"/>
<feBlend mode="normal" in="SourceGraphic" in2="effect1_dropShadow" result="shape"/>
</filter>
</defs>
</svg>
