<svg width="290" height="531" viewBox="0 0 290 531" fill="none" xmlns="http://www.w3.org/2000/svg">
<path fill-rule="evenodd" clip-rule="evenodd" d="M24.1445 100.78L64.2755 83.2104C64.2755 83.2104 103.456 71.1571 141.529 71.1571C179.602 71.1571 217.177 83.2104 217.177 83.2104L264.357 100.78H24.1445Z" fill="#2D75DC"/>
<path fill-rule="evenodd" clip-rule="evenodd" d="M24.1445 100.781C24.1445 100.781 84.6868 95.2778 144.623 95.2778C204.559 95.2778 264.357 100.781 264.357 100.781V109.567H24.1445V100.781Z" fill="#00DEE6"/>
<rect x="114.224" y="141.203" width="60.053" height="6.97206" fill="#2D75DC"/>
<path fill-rule="evenodd" clip-rule="evenodd" d="M114.224 141.203L105.833 135.77C105.833 135.77 125.228 133.494 144.623 133.494C164.018 133.494 183.413 135.77 183.413 135.77L174.277 141.203H114.224Z" fill="#00DEE6"/>
<path fill-rule="evenodd" clip-rule="evenodd" d="M105.833 135.77C105.833 135.77 101.953 130.974 73.4577 125.492C44.9628 120.009 0 124.895 0 115.406C0 105.918 71.3807 105.918 144.25 105.918C217.12 105.918 289.87 107.676 289.87 115.406C289.87 123.136 244.063 120.732 219.182 125.492C194.3 130.251 183.413 135.77 183.413 135.77H105.833Z" fill="#1733AA"/>
<path fill-rule="evenodd" clip-rule="evenodd" d="M136.744 71.4827C136.744 71.4827 140.584 68.6105 142.007 57.2822C143.429 45.954 143.429 0 144.539 0C145.649 0 145.122 44.9767 146.464 57.2822C147.806 69.5878 152.334 71.4827 152.334 71.4827H136.744Z" fill="#2D75DC"/>
<path fill-rule="evenodd" clip-rule="evenodd" d="M51.8611 531C51.8611 531 112.039 486.912 124.06 404.106C136.081 321.3 133.72 168.101 130.144 160.081C126.569 152.06 97.4856 150.63 97.4856 148.078C97.4856 145.525 189.809 144.689 189.809 148.078C189.809 151.466 160.977 152.155 156.525 160.081C152.074 168.006 151.331 335.692 160.747 404.106C170.162 472.52 231.197 531 231.197 531H51.8611Z" fill="#1733AA"/>
<path fill-rule="evenodd" clip-rule="evenodd" d="M130.182 316.914H155.848L155.98 321.633H129.987L130.182 316.914Z" fill="#2D75DC"/>
<path fill-rule="evenodd" clip-rule="evenodd" d="M129.078 332.437H156.314L156.462 337.155H128.319L129.078 332.437Z" fill="#2D75DC"/>
<path fill-rule="evenodd" clip-rule="evenodd" d="M28.9016 105.054V102.708C28.9016 102.708 88.2541 98.4039 145.509 98.4039C202.764 98.4039 259.225 102.708 259.225 102.708V105.054C259.225 105.054 203.49 101.729 145.509 101.729C87.5274 101.729 28.9016 105.054 28.9016 105.054Z" fill="#1733AA"/>
<rect x="40.0884" y="100.887" width="3.08372" height="4.65636" fill="#00DEE6"/>
<rect x="52.4232" y="99.3361" width="3.08372" height="6.20848" fill="#00DEE6"/>
<rect x="64.7582" y="99.3361" width="3.08372" height="6.20848" fill="#00DEE6"/>
<rect x="77.0931" y="98.5593" width="3.08372" height="6.20848" fill="#00DEE6"/>
<rect x="89.4279" y="98.405" width="3.08372" height="6.20848" fill="#00DEE6"/>
<rect x="101.763" y="98.0948" width="3.08372" height="6.20848" fill="#00DEE6"/>
<rect x="114.098" y="97.7841" width="3.08372" height="6.20848" fill="#00DEE6"/>
<rect x="126.433" y="97.4734" width="3.08372" height="6.20848" fill="#00DEE6"/>
<rect x="138.768" y="97.4734" width="3.08372" height="6.20848" fill="#00DEE6"/>
<rect x="151.102" y="97.4734" width="3.08372" height="6.20848" fill="#00DEE6"/>
<rect x="163.437" y="97.4734" width="3.08372" height="6.20848" fill="#00DEE6"/>
<rect x="175.772" y="97.4734" width="3.08372" height="6.20848" fill="#00DEE6"/>
<rect x="188.107" y="98.0948" width="3.08372" height="6.20848" fill="#00DEE6"/>
<rect x="212.777" y="98.7146" width="3.08372" height="6.20848" fill="#00DEE6"/>
<rect x="200.442" y="98.0948" width="3.08372" height="6.20848" fill="#00DEE6"/>
<rect x="225.112" y="98.7146" width="3.08372" height="6.20848" fill="#00DEE6"/>
<rect x="237.446" y="99.9569" width="3.08372" height="6.20848" fill="#00DEE6"/>
<rect x="249.781" y="100.577" width="3.08372" height="6.20848" fill="#00DEE6"/>
</svg>
