<svg width="161" height="287" viewBox="0 0 161 287" fill="none" xmlns="http://www.w3.org/2000/svg">
<path fill-rule="evenodd" clip-rule="evenodd" d="M11.7091 87.8186L34.2052 73.929C34.2052 73.929 56.1687 64.4004 77.511 64.4004C98.8533 64.4004 119.916 73.929 119.916 73.929L146.364 87.8186H11.7091Z" fill="#1733AA"/>
<path fill-rule="evenodd" clip-rule="evenodd" d="M26.3455 79.0362L42.2707 65.1466C42.2707 65.1466 59.2153 55.618 75.6808 55.618C92.1462 55.618 108.396 65.1466 108.396 65.1466L128.8 79.0362C128.8 79.0362 103.076 76.5673 77.4981 76.5673C51.9202 76.5673 26.3455 79.0362 26.3455 79.0362Z" fill="#00DEE6"/>
<path fill-rule="evenodd" clip-rule="evenodd" d="M29.2728 76.1089C29.2728 76.1089 36.3596 65.3908 47.5029 60.0327C58.6461 54.6745 63.1284 52.6907 77.9752 52.6907C92.8221 52.6907 96.548 53.5019 107.44 60.0327C118.333 66.5635 124.522 76.1089 124.522 76.1089C124.522 76.1089 100.893 73.2358 77.9752 73.2358C55.0575 73.2358 29.2728 76.1089 29.2728 76.1089Z" fill="#2D75DC"/>
<path fill-rule="evenodd" clip-rule="evenodd" d="M11.7091 87.8179C11.7091 87.8179 45.6471 81.9634 79.2452 81.9634C112.843 81.9634 146.364 87.8179 146.364 87.8179V93.6725H11.7091V87.8179Z" fill="#00DEE6"/>
<path fill-rule="evenodd" clip-rule="evenodd" d="M63.2948 117.091H97.2838L95.1364 122.946H65.8637L63.2948 117.091Z" fill="#2D75DC"/>
<path fill-rule="evenodd" clip-rule="evenodd" d="M63.2947 117.091L58.5455 112.965C58.5455 112.965 69.5228 111.236 80.5 111.236C91.4773 111.236 102.455 112.965 102.455 112.965L97.2837 117.091H63.2947Z" fill="#00DEE6"/>
<path fill-rule="evenodd" clip-rule="evenodd" d="M59.7229 114.164C59.7229 114.164 56.6267 110.402 40.8 106.101C24.9733 101.8 0 105.633 0 98.1892C0 90.7457 39.6464 90.7457 80.1199 90.7457C120.593 90.7457 161 92.125 161 98.1892C161 104.253 135.558 102.367 121.738 106.101C107.918 109.835 100.776 114.164 100.776 114.164H59.7229Z" fill="#2D75DC"/>
<path fill-rule="evenodd" clip-rule="evenodd" d="M73.1819 52.6909C73.1819 52.6909 75.3451 50.5738 76.1464 42.2236C76.9478 33.8734 76.9478 0 77.5728 0C78.1978 0 77.9011 33.153 78.657 42.2236C79.4129 51.2942 81.9637 52.6909 81.9637 52.6909H73.1819Z" fill="#2D75DC"/>
<path fill-rule="evenodd" clip-rule="evenodd" d="M29.2728 286.873C29.2728 286.873 62.67 271.181 69.3414 237.21C76.0127 203.238 74.7023 129.151 72.718 125.861C70.7338 122.571 54.5933 121.984 54.5933 120.937C54.5933 119.89 105.831 119.547 105.831 120.937C105.831 122.327 89.8296 122.61 87.359 125.861C84.8883 129.112 84.4763 209.143 89.7016 237.21C94.9268 265.276 128.8 286.873 128.8 286.873H29.2728Z" fill="#1733AA"/>
</svg>
