<svg width="286" height="213" viewBox="0 0 286 213" fill="none" xmlns="http://www.w3.org/2000/svg">
<path fill-rule="evenodd" clip-rule="evenodd" d="M89.0437 168.074C89.0437 168.074 111.923 179.032 120.944 184.71C129.965 190.387 135.143 195.985 135.143 199.638C135.143 203.291 132.5 213 132.5 213H141.231C141.231 213 140.702 207.864 142.617 199.638C144.533 191.412 151.771 177.501 151.771 177.501L144.857 175.202L137.649 192.297C137.538 192.56 137.193 192.623 136.996 192.417L124.648 179.475L109.303 162.075H101.953L117.029 177.748C117.34 178.072 116.96 178.582 116.561 178.376L93.9001 166.682L89.0437 168.074Z" fill="#F9DF00"/>
<ellipse cx="129.74" cy="59.9063" rx="90.1585" ry="59.9063" fill="url(#paint0_linear)"/>
<ellipse cx="72.5666" cy="120.863" rx="72.5666" ry="51.0313" fill="url(#paint1_linear)"/>
<ellipse cx="186.915" cy="116.426" rx="98.9545" ry="68.7812" fill="url(#paint2_linear)"/>
<ellipse cx="183.772" cy="103.013" rx="2.19899" ry="2.21875" fill="#F9DF00"/>
<ellipse cx="234.349" cy="100.795" rx="4.39798" ry="4.4375" fill="#F9DF00"/>
<ellipse cx="203.563" cy="83.0446" rx="4.39798" ry="4.4375" fill="#F9DF00"/>
<ellipse cx="183.772" cy="71.9513" rx="2.19899" ry="2.21875" fill="#F9DF00"/>
<ellipse cx="262.307" cy="89.0665" rx="1.57071" ry="1.58482" fill="#F9DF00"/>
<ellipse cx="148.589" cy="89.7004" rx="2.19899" ry="2.21875" fill="#F9DF00"/>
<circle cx="41.0662" cy="118.857" r="2.80263" transform="rotate(-38 41.0662 118.857)" fill="#F9DF00"/>
<ellipse cx="69.3397" cy="96.669" rx="3.15214" ry="3.15897" transform="rotate(-38 69.3397 96.669)" fill="#F9DF00"/>
<ellipse cx="44.2076" cy="103.009" rx="3.15214" ry="3.15897" transform="rotate(-38 44.2076 103.009)" fill="#F9DF00"/>
<circle cx="28.501" cy="106.179" r="2.80263" transform="rotate(-38 28.501 106.179)" fill="#F9DF00"/>
<circle cx="15.9356" cy="125.196" r="2.80263" transform="rotate(-38 15.9356 125.196)" fill="#F9DF00"/>
<circle cx="107.709" cy="15.2486" r="2.80263" transform="rotate(138 107.709 15.2486)" fill="#F9DF00"/>
<ellipse cx="88.5739" cy="52.8385" rx="3.15408" ry="3.15703" transform="rotate(138 88.5739 52.8385)" fill="#F9DF00"/>
<ellipse cx="105.672" cy="31.279" rx="3.15408" ry="3.15703" transform="rotate(138 105.672 31.279)" fill="#F9DF00"/>
<circle cx="124.416" cy="40.7909" r="2.80263" transform="rotate(138 124.416 40.7909)" fill="#F9DF00"/>
<circle cx="135.636" cy="20.9353" r="2.80263" transform="rotate(138 135.636 20.9353)" fill="#F9DF00"/>
<circle cx="57.793" cy="40.6077" r="2.80263" transform="rotate(138 57.793 40.6077)" fill="#F9DF00"/>
<ellipse cx="55.7549" cy="56.6382" rx="3.15408" ry="3.15703" transform="rotate(138 55.7549 56.6382)" fill="#F9DF00"/>
<circle cx="71.2054" cy="52.3709" r="2.80263" transform="rotate(138 71.2054 52.3709)" fill="#F9DF00"/>
<circle cx="82.4253" cy="32.514" r="2.80263" transform="rotate(138 82.4253 32.514)" fill="#F9DF00"/>
<defs>
<linearGradient id="paint0_linear" x1="24.815" y1="31.3208" x2="55.3314" y2="140.078" gradientUnits="userSpaceOnUse">
<stop stop-color="#20C390"/>
<stop offset="1" stop-color="#104156"/>
</linearGradient>
<linearGradient id="paint1_linear" x1="-11.8853" y1="96.5122" x2="15.3881" y2="188.352" gradientUnits="userSpaceOnUse">
<stop stop-color="#20C390"/>
<stop offset="1" stop-color="#104156"/>
</linearGradient>
<linearGradient id="paint2_linear" x1="71.7528" y1="83.6054" x2="108.155" y2="207.621" gradientUnits="userSpaceOnUse">
<stop stop-color="#20C390"/>
<stop offset="1" stop-color="#104156"/>
</linearGradient>
</defs>
</svg>
