<svg width="107" height="190" viewBox="0 0 107 190" fill="none" xmlns="http://www.w3.org/2000/svg">
<path fill-rule="evenodd" clip-rule="evenodd" d="M7.75525 58.1633L22.6547 48.964C22.6547 48.964 37.2014 42.6531 51.3368 42.6531C65.4721 42.6531 79.4224 48.964 79.4224 48.964L96.9389 58.1633H7.75525Z" fill="#1733AA"/>
<path fill-rule="evenodd" clip-rule="evenodd" d="M17.4491 52.3469L27.9966 43.1476C27.9966 43.1476 39.2193 36.8367 50.1246 36.8367C61.0298 36.8367 71.7924 43.1476 71.7924 43.1476L85.3062 52.3469C85.3062 52.3469 68.2688 50.7117 51.3282 50.7117C34.3876 50.7117 17.4491 52.3469 17.4491 52.3469Z" fill="#00DEE6"/>
<path fill-rule="evenodd" clip-rule="evenodd" d="M19.3876 50.4082C19.3876 50.4082 24.0814 43.3094 31.4617 39.7607C38.842 36.2119 41.8107 34.8979 51.644 34.8979C61.4773 34.8979 63.945 35.4352 71.1592 39.7607C78.3734 44.0861 82.4724 50.4082 82.4724 50.4082C82.4724 50.4082 66.8227 48.5053 51.644 48.5053C36.4652 48.5053 19.3876 50.4082 19.3876 50.4082Z" fill="#2D75DC"/>
<path fill-rule="evenodd" clip-rule="evenodd" d="M7.75525 58.1632C7.75525 58.1632 30.2329 54.2856 52.4854 54.2856C74.7379 54.2856 96.9389 58.1632 96.9389 58.1632V62.0407H7.75525V58.1632Z" fill="#00DEE6"/>
<path fill-rule="evenodd" clip-rule="evenodd" d="M41.9209 77.551H64.4323L63.0101 81.4286H43.6223L41.9209 77.551Z" fill="#2D75DC"/>
<path fill-rule="evenodd" clip-rule="evenodd" d="M41.9211 77.5509L38.7756 74.8182C38.7756 74.8182 46.046 73.6733 53.3165 73.6733C60.5869 73.6733 67.8573 74.8182 67.8573 74.8182L64.4325 77.5509H41.9211Z" fill="#00DEE6"/>
<path fill-rule="evenodd" clip-rule="evenodd" d="M39.5554 75.6123C39.5554 75.6123 37.5047 73.1208 27.0225 70.2721C16.5402 67.4235 0 69.9619 0 65.032C0 60.1021 26.2584 60.1021 53.0646 60.1021C79.8707 60.1021 106.633 61.0156 106.633 65.032C106.633 69.0484 89.7822 67.7992 80.6291 70.2721C71.476 72.745 66.7457 75.6123 66.7457 75.6123H39.5554Z" fill="#2D75DC"/>
<path fill-rule="evenodd" clip-rule="evenodd" d="M48.4695 34.898C48.4695 34.898 49.9022 33.4958 50.4329 27.9653C50.9637 22.4348 50.9637 0 51.3776 0C51.7916 0 51.5951 21.9577 52.0957 27.9653C52.5963 33.9729 54.2858 34.898 54.2858 34.898H48.4695Z" fill="#2D75DC"/>
<path fill-rule="evenodd" clip-rule="evenodd" d="M19.3876 190C19.3876 190 41.5071 179.607 45.9257 157.107C50.3442 134.608 49.4763 85.5387 48.1621 83.3594C46.8479 81.1801 36.1578 80.7915 36.1578 80.098C36.1578 79.4046 70.0931 79.1773 70.0931 80.098C70.0931 81.0187 59.4953 81.206 57.859 83.3594C56.2226 85.5128 55.9497 138.518 59.4105 157.107C62.8713 175.696 85.306 190 85.306 190H19.3876Z" fill="#1733AA"/>
</svg>
