<svg width="141" height="280" viewBox="0 0 141 280" fill="none" xmlns="http://www.w3.org/2000/svg">
<path fill-rule="evenodd" clip-rule="evenodd" d="M11.6676 48.082L31.0608 39.6476C31.0608 39.6476 49.9949 33.8613 68.3935 33.8613C86.7922 33.8613 104.95 39.6476 104.95 39.6476L127.75 48.082H11.6676Z" fill="#2D75DC"/>
<path fill-rule="evenodd" clip-rule="evenodd" d="M11.6676 48.0819C11.6676 48.0819 40.9246 45.4402 69.8886 45.4402C98.8526 45.4402 127.75 48.0819 127.75 48.0819V52.2996H11.6676V48.0819Z" fill="#00DEE6"/>
<rect x="55.1985" y="67.4871" width="29.0205" height="3.34696" fill="#2D75DC"/>
<path fill-rule="evenodd" clip-rule="evenodd" d="M55.1984 67.4871L51.1434 64.879C51.1434 64.879 60.5161 63.7864 69.8887 63.7864C79.2613 63.7864 88.6339 64.879 88.6339 64.879L84.2189 67.4871H55.1984Z" fill="#00DEE6"/>
<path fill-rule="evenodd" clip-rule="evenodd" d="M51.1434 64.8788C51.1434 64.8788 49.2684 62.5769 35.4983 59.9449C21.7282 57.3129 0 59.6582 0 55.1033C0 50.5483 34.4946 50.5483 69.7087 50.5483C104.923 50.5483 140.079 51.3924 140.079 55.1033C140.079 58.8142 117.943 57.6601 105.919 59.9449C93.895 62.2297 88.6339 64.8788 88.6339 64.8788H51.1434Z" fill="#1733AA"/>
<path fill-rule="evenodd" clip-rule="evenodd" d="M66.0811 34.3155C66.0811 34.3155 67.9369 32.9367 68.6244 27.4985C69.3119 22.0603 69.3119 0 69.8481 0C70.3843 0 70.1298 21.5912 70.7783 27.4985C71.4268 33.4058 73.6152 34.3155 73.6152 34.3155H66.0811Z" fill="#2D75DC"/>
<path fill-rule="evenodd" clip-rule="evenodd" d="M25.0618 279.678C25.0618 279.678 54.1426 258.514 59.9517 218.763C65.7608 179.011 64.6198 80.3997 62.892 76.5494C61.1642 72.699 47.1098 72.0125 47.1098 70.7873C47.1098 69.5621 91.7249 69.1607 91.7249 70.7873C91.7249 72.4139 77.792 72.7448 75.6406 76.5494C73.4893 80.354 73.1305 185.92 77.6804 218.763C82.2304 251.605 111.726 279.678 111.726 279.678H25.0618Z" fill="#1733AA"/>
<path fill-rule="evenodd" clip-rule="evenodd" d="M63.8254 151.838H74.4554L74.51 154.103H63.7444L63.8254 151.838Z" fill="#2D75DC"/>
<path fill-rule="evenodd" clip-rule="evenodd" d="M63.5603 159.289H74.6483L74.7096 161.554H63.491L63.5603 159.289Z" fill="#2D75DC"/>
<path fill-rule="evenodd" clip-rule="evenodd" d="M13.9666 50.1335V49.0072C13.9666 49.0072 42.6486 46.9412 70.3168 46.9412C97.9851 46.9412 125.27 49.0072 125.27 49.0072V50.1335C125.27 50.1335 98.3363 48.5373 70.3168 48.5373C42.2974 48.5373 13.9666 50.1335 13.9666 50.1335Z" fill="#1733AA"/>
<rect x="19.3726" y="48.1333" width="1.4902" height="2.2353" fill="#00DEE6"/>
<rect x="25.3334" y="47.3882" width="1.4902" height="2.9804" fill="#00DEE6"/>
<rect x="31.2941" y="47.3882" width="1.4902" height="2.9804" fill="#00DEE6"/>
<rect x="37.255" y="47.0156" width="1.4902" height="2.9804" fill="#00DEE6"/>
<rect x="43.2158" y="46.9412" width="1.4902" height="2.9804" fill="#00DEE6"/>
<rect x="49.1766" y="46.792" width="1.4902" height="2.9804" fill="#00DEE6"/>
<rect x="55.1374" y="46.6431" width="1.4902" height="2.9804" fill="#00DEE6"/>
<rect x="61.0981" y="46.4941" width="1.4902" height="2.9804" fill="#00DEE6"/>
<rect x="67.059" y="46.4941" width="1.4902" height="2.9804" fill="#00DEE6"/>
<rect x="73.0198" y="46.4941" width="1.4902" height="2.9804" fill="#00DEE6"/>
<rect x="78.9806" y="46.4941" width="1.4902" height="2.9804" fill="#00DEE6"/>
<rect x="84.9413" y="46.4941" width="1.4902" height="2.9804" fill="#00DEE6"/>
<rect x="90.9022" y="46.792" width="1.4902" height="2.9804" fill="#00DEE6"/>
<rect x="102.824" y="47.0903" width="1.4902" height="2.9804" fill="#00DEE6"/>
<rect x="96.8629" y="46.792" width="1.4902" height="2.9804" fill="#00DEE6"/>
<rect x="108.785" y="47.0903" width="1.4902" height="2.9804" fill="#00DEE6"/>
<rect x="114.745" y="47.6863" width="1.4902" height="2.9804" fill="#00DEE6"/>
<rect x="120.706" y="47.9844" width="1.4902" height="2.9804" fill="#00DEE6"/>
</svg>
