<svg width="90" height="90" viewBox="0 0 90 90" fill="none" xmlns="http://www.w3.org/2000/svg">
<path d="M45 0C36.0999 0 27.3996 2.6392 19.9994 7.58387C12.5991 12.5285 6.83138 19.5566 3.42544 27.7792C0.0194979 36.0019 -0.871652 45.0499 0.864683 53.7791C2.60102 62.5082 6.88685 70.5264 13.1802 76.8198C19.4736 83.1132 27.4918 87.399 36.221 89.1353C44.9501 90.8717 53.9981 89.9805 62.2208 86.5746C70.4434 83.1686 77.4715 77.4009 82.4161 70.0006C87.3608 62.6004 90 53.9002 90 45C89.9865 33.0694 85.2411 21.6313 76.8049 13.1951C68.3687 4.75889 56.9306 0.0134984 45 0V0ZM45 87C36.6932 87 28.5729 84.5367 21.6661 79.9217C14.7592 75.3067 9.37596 68.7472 6.19708 61.0727C3.0182 53.3982 2.18646 44.9534 3.80704 36.8062C5.42762 28.659 9.42773 21.1753 15.3015 15.3015C21.1753 9.42771 28.659 5.4276 36.8062 3.80702C44.9534 2.18644 53.3982 3.01818 61.0727 6.19706C68.7472 9.37594 75.3067 14.7592 79.9217 21.666C84.5368 28.5729 87 36.6932 87 45C86.9873 56.1352 82.5582 66.8107 74.6845 74.6844C66.8107 82.5582 56.1352 86.9873 45 87Z" fill="#F9DF00"/>
<path d="M45 6C37.2865 6 29.7463 8.28731 23.3328 12.5727C16.9193 16.8581 11.9205 22.949 8.96872 30.0753C6.0169 37.2017 5.24457 45.0433 6.74939 52.6085C8.25421 60.1738 11.9686 67.1229 17.4229 72.5771C22.8771 78.0314 29.8262 81.7458 37.3915 83.2506C44.9567 84.7554 52.7983 83.9831 59.9247 81.0313C67.051 78.0795 73.1419 73.0807 77.4273 66.6672C81.7127 60.2537 84 52.7135 84 45C83.9885 34.6601 79.8759 24.747 72.5644 17.4355C65.253 10.1241 55.3399 6.01151 45 6ZM45 81C37.8799 81 30.9197 78.8886 24.9995 74.9329C19.0793 70.9772 14.4651 65.3547 11.7404 58.7766C9.0156 52.1985 8.30268 44.9601 9.69175 37.9767C11.0808 30.9934 14.5095 24.5788 19.5442 19.5442C24.5789 14.5095 30.9934 11.0808 37.9768 9.69173C44.9601 8.30266 52.1985 9.01558 58.7766 11.7403C65.3547 14.4651 70.9772 19.0793 74.9329 24.9995C78.8886 30.9196 81 37.8799 81 45C80.9889 54.5444 77.1925 63.6947 70.4436 70.4436C63.6947 77.1925 54.5444 80.9889 45 81Z" fill="#F9DF00"/>
<path d="M63.9689 34.3125L54.5189 32.9445L50.2679 24.3C49.7866 23.3126 49.0375 22.4804 48.1061 21.8982C47.1746 21.316 46.0983 21.0073 44.9999 21.0073C43.9015 21.0073 42.8251 21.316 41.8937 21.8982C40.9622 22.4804 40.2132 23.3126 39.7319 24.3L35.5214 32.931L26.0309 34.32C24.9447 34.4835 23.9257 34.9465 23.0882 35.6571C22.2507 36.3678 21.6279 37.2978 21.2898 38.3429C20.9517 39.3879 20.9116 40.5065 21.1741 41.5731C21.4366 42.6396 21.9913 43.6118 22.7759 44.3805L29.6324 51.0915L28.0124 60.6015C27.8175 61.6846 27.9313 62.8006 28.3408 63.822C28.7503 64.8435 29.439 65.729 30.3281 66.3775C31.2172 67.0259 32.2708 67.4111 33.3685 67.4889C34.4662 67.5667 35.5637 67.334 36.5354 66.8175L44.9759 62.328L53.4644 66.8175C54.4367 67.3286 55.5328 67.5569 56.6283 67.4766C57.7238 67.3964 58.7749 67.0107 59.6623 66.3633C60.5498 65.7159 61.238 64.8328 61.6489 63.8141C62.0599 62.7954 62.1772 61.6819 61.9874 60.6L60.3584 51.114L67.2239 44.379C68.0084 43.6103 68.5631 42.6381 68.8256 41.5716C69.0881 40.505 69.0481 39.3864 68.71 38.3414C68.3719 37.2963 67.7491 36.3663 66.9116 35.6556C66.0741 34.945 65.055 34.482 63.9689 34.3185V34.3125ZM65.1239 42.231L58.2569 48.969C57.9155 49.3053 57.6604 49.7189 57.5131 50.1749C57.3658 50.6308 57.3308 51.1156 57.4109 51.588L59.0309 61.0965C59.1294 61.6324 59.0729 62.1852 58.868 62.6901C58.6631 63.1949 58.3184 63.6308 57.8744 63.9465C57.4458 64.2625 56.9361 64.4501 56.4049 64.4873C55.8737 64.5244 55.3428 64.4097 54.8744 64.1565L46.3859 59.6655C45.9606 59.4416 45.4872 59.3247 45.0066 59.3247C44.526 59.3247 44.0527 59.4416 43.6274 59.6655L35.1404 64.155C34.6721 64.4089 34.1412 64.5241 33.6098 64.4869C33.0784 64.4497 32.5687 64.2617 32.1404 63.945C31.6963 63.6293 31.3516 63.1934 31.1467 62.6886C30.9419 62.1837 30.8854 61.6309 30.9839 61.095L32.6054 51.585C32.6847 51.1124 32.649 50.6276 32.5012 50.1717C32.3534 49.7158 32.0979 49.3022 31.7564 48.966L24.8909 42.2295C24.4981 41.8522 24.2211 41.3706 24.0925 40.8413C23.9639 40.312 23.989 39.757 24.1649 39.2415C24.3242 38.7279 24.6267 38.2703 25.037 37.9225C25.4472 37.5747 25.9481 37.3512 26.4809 37.278L35.9684 35.8905C36.4439 35.8212 36.8954 35.6368 37.2836 35.3535C37.6717 35.0701 37.9849 34.6963 38.1959 34.2645L42.4394 25.6125C42.6738 25.1288 43.0397 24.7209 43.4952 24.4355C43.9507 24.15 44.4773 23.9987 45.0149 23.9987C45.5524 23.9987 46.0791 24.15 46.5346 24.4355C46.9901 24.7209 47.356 25.1288 47.5904 25.6125L51.8339 34.2645C52.0447 34.6961 52.3576 35.0698 52.7455 35.3531C53.1334 35.6365 53.5846 35.8209 54.0599 35.8905L63.5489 37.278C64.0792 37.3539 64.577 37.5789 64.9843 37.9268C65.3917 38.2747 65.6919 38.7311 65.8499 39.243C66.0257 39.7585 66.0508 40.3135 65.9222 40.8428C65.7936 41.3721 65.5167 41.8537 65.1239 42.231Z" fill="#F9DF00"/>
<path d="M44.9999 14.9999C45.3977 14.9999 45.7792 14.8419 46.0605 14.5606C46.3419 14.2793 46.4999 13.8978 46.4999 13.4999C46.4999 13.1021 46.3419 12.7206 46.0605 12.4393C45.7792 12.158 45.3977 11.9999 44.9999 11.9999C37.6106 11.9866 30.4316 14.459 24.6175 19.0194C18.8034 23.5798 14.6921 29.9632 12.9449 37.1429C12.8503 37.5292 12.913 37.9372 13.1192 38.2773C13.3254 38.6174 13.6582 38.8617 14.0444 38.9564C14.1607 38.9853 14.2801 38.9999 14.3999 38.9999C14.7353 38.9995 15.0609 38.8867 15.3246 38.6795C15.5884 38.4723 15.7751 38.1827 15.8549 37.8569C17.4432 31.3291 21.1813 25.5254 26.4677 21.3795C31.7542 17.2336 38.2816 14.9866 44.9999 14.9999Z" fill="#F9DF00"/>
<path d="M13.605 42C13.2083 41.984 12.8212 42.1249 12.5276 42.3922C12.234 42.6594 12.0574 43.0315 12.036 43.428C12.012 43.95 12 44.474 12 45C12 45.3978 12.158 45.7794 12.4393 46.0607C12.7206 46.342 13.1022 46.5 13.5 46.5C13.8978 46.5 14.2794 46.342 14.5607 46.0607C14.842 45.7794 15 45.3978 15 45C15 44.5215 15.012 44.0445 15.033 43.5705C15.0425 43.3736 15.0131 43.1767 14.9464 42.9912C14.8797 42.8057 14.7772 42.6351 14.6446 42.4892C14.5119 42.3434 14.3518 42.2251 14.1735 42.1411C13.9951 42.0572 13.8019 42.0092 13.605 42Z" fill="#F9DF00"/>
</svg>
