<svg width="64" height="24" viewBox="0 0 64 24" fill="none" xmlns="http://www.w3.org/2000/svg">
<rect width="64" height="24" rx="4" fill="#F9DF00"/>
<path d="M3.12478 17.524V8.256C3.12478 8.10667 3.19011 7.99 3.32078 7.906C3.45145 7.81267 3.60545 7.766 3.78278 7.766H6.33078C7.18945 7.766 7.87545 7.94333 8.38878 8.298C8.90211 8.65267 9.15878 9.28267 9.15878 10.188C9.15878 11.3453 8.76211 12.1013 7.96878 12.456C8.44478 12.6427 8.80411 12.9133 9.04678 13.268C9.28945 13.6133 9.41078 14.122 9.41078 14.794V15.06C9.41078 16.0867 9.15878 16.8333 8.65478 17.3C8.15078 17.7667 7.47411 18 6.62478 18H3.78278C3.58678 18 3.42811 17.9533 3.30678 17.86C3.18545 17.7667 3.12478 17.6547 3.12478 17.524ZM4.59478 16.684H6.34478C7.39945 16.684 7.92678 16.1053 7.92678 14.948V14.724C7.92678 14.1267 7.79145 13.6973 7.52078 13.436C7.25945 13.1747 6.86745 13.044 6.34478 13.044H4.59478V16.684ZM4.59478 11.868H6.26078C7.20345 11.868 7.67478 11.3873 7.67478 10.426C7.67478 9.53 7.19411 9.082 6.23278 9.082H4.59478V11.868ZM12.2631 17.51V8.256C12.2631 8.10667 12.3284 7.99 12.4591 7.906C12.5897 7.81267 12.7437 7.766 12.9211 7.766H17.9051C18.0637 7.766 18.1851 7.83133 18.2691 7.962C18.3531 8.09267 18.3951 8.242 18.3951 8.41C18.3951 8.59667 18.3484 8.75533 18.2551 8.886C18.1711 9.01667 18.0544 9.082 17.9051 9.082H13.7471V12.288H15.9031C16.0524 12.288 16.1691 12.3487 16.2531 12.47C16.3464 12.582 16.3931 12.722 16.3931 12.89C16.3931 13.0393 16.3511 13.1747 16.2671 13.296C16.1831 13.408 16.0617 13.464 15.9031 13.464H13.7471V16.684H17.9051C18.0544 16.684 18.1711 16.7493 18.2551 16.88C18.3484 17.0107 18.3951 17.1693 18.3951 17.356C18.3951 17.524 18.3531 17.6733 18.2691 17.804C18.1851 17.9347 18.0637 18 17.9051 18H12.9211C12.7437 18 12.5897 17.958 12.4591 17.874C12.3284 17.7807 12.2631 17.6593 12.2631 17.51ZM20.2632 8.438C20.2632 8.26067 20.3052 8.10667 20.3892 7.976C20.4732 7.836 20.5945 7.766 20.7532 7.766H26.5632C26.7219 7.766 26.8432 7.83133 26.9272 7.962C27.0112 8.09267 27.0532 8.24667 27.0532 8.424C27.0532 8.62 27.0065 8.788 26.9132 8.928C26.8292 9.05867 26.7125 9.124 26.5632 9.124H24.4072V17.51C24.4072 17.6593 24.3325 17.7807 24.1832 17.874C24.0339 17.958 23.8612 18 23.6652 18C23.4599 18 23.2825 17.958 23.1332 17.874C22.9932 17.7807 22.9232 17.6593 22.9232 17.51V9.124H20.7532C20.6039 9.124 20.4825 9.05867 20.3892 8.928C20.3052 8.788 20.2632 8.62467 20.2632 8.438ZM28.048 17.384C28.048 17.328 28.0526 17.286 28.062 17.258L30.848 8.186C30.96 7.85 31.2726 7.682 31.786 7.682C32.3086 7.682 32.626 7.85 32.738 8.186L35.51 17.258C35.5286 17.314 35.538 17.356 35.538 17.384C35.538 17.552 35.4353 17.6967 35.23 17.818C35.034 17.9393 34.824 18 34.6 18C34.3293 18 34.1613 17.8973 34.096 17.692L33.522 15.704H30.064L29.49 17.692C29.4246 17.8973 29.252 18 28.972 18C28.748 18 28.538 17.9393 28.342 17.818C28.146 17.6967 28.048 17.552 28.048 17.384ZM30.386 14.514H33.186L31.786 9.712L30.386 14.514ZM41.442 11.938C41.442 11.77 41.5494 11.6253 41.764 11.504C41.9787 11.3733 42.1934 11.308 42.408 11.308C42.6414 11.308 42.7907 11.3967 42.856 11.574L44.522 15.998L46.188 11.602C46.2627 11.406 46.412 11.308 46.636 11.308C46.8134 11.308 47.0187 11.3733 47.252 11.504C47.4854 11.6347 47.602 11.7793 47.602 11.938C47.602 12.0033 47.5834 12.0827 47.546 12.176L45.194 17.846C45.11 18.042 44.886 18.14 44.522 18.14C44.158 18.14 43.934 18.042 43.85 17.846L41.512 12.176C41.4654 12.0827 41.442 12.0033 41.442 11.938ZM49.2398 9.88C49.2398 9.63733 49.3378 9.446 49.5338 9.306L50.9898 7.906C51.0925 7.80333 51.2185 7.752 51.3678 7.752C51.5358 7.752 51.6851 7.79867 51.8158 7.892C51.9558 7.976 52.0258 8.09267 52.0258 8.242V17.51C52.0258 17.6593 51.9511 17.7807 51.8018 17.874C51.6525 17.958 51.4798 18 51.2838 18C51.0785 18 50.9011 17.958 50.7518 17.874C50.6118 17.7807 50.5418 17.6593 50.5418 17.51V9.726L50.0518 10.342C49.9585 10.4353 49.8558 10.482 49.7438 10.482C49.6038 10.482 49.4825 10.4213 49.3798 10.3C49.2865 10.1693 49.2398 10.0293 49.2398 9.88ZM54.9742 17.846C54.8155 17.678 54.7362 17.4773 54.7362 17.244C54.7362 17.0107 54.8155 16.8147 54.9742 16.656C55.1329 16.488 55.3335 16.404 55.5762 16.404C55.8002 16.404 55.9915 16.488 56.1502 16.656C56.3182 16.8147 56.4022 17.0107 56.4022 17.244C56.4022 17.468 56.3182 17.664 56.1502 17.832C55.9915 18 55.8002 18.084 55.5762 18.084C55.3335 18.084 55.1329 18.0047 54.9742 17.846ZM58.1648 9.88C58.1648 9.63733 58.2628 9.446 58.4588 9.306L59.9148 7.906C60.0175 7.80333 60.1435 7.752 60.2928 7.752C60.4608 7.752 60.6101 7.79867 60.7408 7.892C60.8808 7.976 60.9508 8.09267 60.9508 8.242V17.51C60.9508 17.6593 60.8761 17.7807 60.7268 17.874C60.5775 17.958 60.4048 18 60.2088 18C60.0035 18 59.8261 17.958 59.6768 17.874C59.5368 17.7807 59.4668 17.6593 59.4668 17.51V9.726L58.9768 10.342C58.8835 10.4353 58.7808 10.482 58.6688 10.482C58.5288 10.482 58.4075 10.4213 58.3048 10.3C58.2115 10.1693 58.1648 10.0293 58.1648 9.88Z" fill="#051557"/>
</svg>
