<svg width="72" height="24" viewBox="0 0 72 24" fill="none" xmlns="http://www.w3.org/2000/svg">
<path d="M0 4C0 1.79086 1.79086 0 4 0H67.4998C69.7089 0 71.4998 1.79086 71.4998 4V20C71.4998 22.2091 69.7089 24 67.4998 24H4C1.79086 24 0 22.2091 0 20V4Z" fill="#F9DF00"/>
<path d="M5.01423 17.524V8.256C5.01423 8.10667 5.07956 7.99 5.21023 7.906C5.34089 7.81267 5.49489 7.766 5.67223 7.766H8.22023C9.07889 7.766 9.76489 7.94333 10.2782 8.298C10.7916 8.65267 11.0482 9.28267 11.0482 10.188C11.0482 11.3453 10.6516 12.1013 9.85823 12.456C10.3342 12.6427 10.6936 12.9133 10.9362 13.268C11.1789 13.6133 11.3002 14.122 11.3002 14.794V15.06C11.3002 16.0867 11.0482 16.8333 10.5442 17.3C10.0402 17.7667 9.36356 18 8.51423 18H5.67223C5.47623 18 5.31756 17.9533 5.19623 17.86C5.07489 17.7667 5.01423 17.6547 5.01423 17.524ZM6.48423 16.684H8.23423C9.28889 16.684 9.81623 16.1053 9.81623 14.948V14.724C9.81623 14.1267 9.68089 13.6973 9.41023 13.436C9.14889 13.1747 8.75689 13.044 8.23423 13.044H6.48423V16.684ZM6.48423 11.868H8.15023C9.09289 11.868 9.56423 11.3873 9.56423 10.426C9.56423 9.53 9.08356 9.082 8.12223 9.082H6.48423V11.868ZM14.1525 17.51V8.256C14.1525 8.10667 14.2178 7.99 14.3485 7.906C14.4792 7.81267 14.6332 7.766 14.8105 7.766H19.7945C19.9532 7.766 20.0745 7.83133 20.1585 7.962C20.2425 8.09267 20.2845 8.242 20.2845 8.41C20.2845 8.59667 20.2378 8.75533 20.1445 8.886C20.0605 9.01667 19.9438 9.082 19.7945 9.082H15.6365V12.288H17.7925C17.9418 12.288 18.0585 12.3487 18.1425 12.47C18.2358 12.582 18.2825 12.722 18.2825 12.89C18.2825 13.0393 18.2405 13.1747 18.1565 13.296C18.0725 13.408 17.9512 13.464 17.7925 13.464H15.6365V16.684H19.7945C19.9438 16.684 20.0605 16.7493 20.1445 16.88C20.2378 17.0107 20.2845 17.1693 20.2845 17.356C20.2845 17.524 20.2425 17.6733 20.1585 17.804C20.0745 17.9347 19.9532 18 19.7945 18H14.8105C14.6332 18 14.4792 17.958 14.3485 17.874C14.2178 17.7807 14.1525 17.6593 14.1525 17.51ZM22.1526 8.438C22.1526 8.26067 22.1946 8.10667 22.2786 7.976C22.3626 7.836 22.484 7.766 22.6426 7.766H28.4526C28.6113 7.766 28.7326 7.83133 28.8166 7.962C28.9006 8.09267 28.9426 8.24667 28.9426 8.424C28.9426 8.62 28.896 8.788 28.8026 8.928C28.7186 9.05867 28.602 9.124 28.4526 9.124H26.2966V17.51C26.2966 17.6593 26.222 17.7807 26.0726 17.874C25.9233 17.958 25.7506 18 25.5546 18C25.3493 18 25.172 17.958 25.0226 17.874C24.8826 17.7807 24.8126 17.6593 24.8126 17.51V9.124H22.6426C22.4933 9.124 22.372 9.05867 22.2786 8.928C22.1946 8.788 22.1526 8.62467 22.1526 8.438ZM29.9374 17.384C29.9374 17.328 29.9421 17.286 29.9514 17.258L32.7374 8.186C32.8494 7.85 33.1621 7.682 33.6754 7.682C34.1981 7.682 34.5154 7.85 34.6274 8.186L37.3994 17.258C37.4181 17.314 37.4274 17.356 37.4274 17.384C37.4274 17.552 37.3247 17.6967 37.1194 17.818C36.9234 17.9393 36.7134 18 36.4894 18C36.2187 18 36.0507 17.8973 35.9854 17.692L35.4114 15.704H31.9534L31.3794 17.692C31.3141 17.8973 31.1414 18 30.8614 18C30.6374 18 30.4274 17.9393 30.2314 17.818C30.0354 17.6967 29.9374 17.552 29.9374 17.384ZM32.2754 14.514H35.0754L33.6754 9.712L32.2754 14.514ZM43.3315 11.938C43.3315 11.77 43.4388 11.6253 43.6535 11.504C43.8681 11.3733 44.0828 11.308 44.2975 11.308C44.5308 11.308 44.6801 11.3967 44.7455 11.574L46.4115 15.998L48.0775 11.602C48.1521 11.406 48.3015 11.308 48.5255 11.308C48.7028 11.308 48.9081 11.3733 49.1415 11.504C49.3748 11.6347 49.4915 11.7793 49.4915 11.938C49.4915 12.0033 49.4728 12.0827 49.4355 12.176L47.0835 17.846C46.9995 18.042 46.7755 18.14 46.4115 18.14C46.0475 18.14 45.8235 18.042 45.7395 17.846L43.4015 12.176C43.3548 12.0827 43.3315 12.0033 43.3315 11.938ZM51.1292 9.88C51.1292 9.63733 51.2272 9.446 51.4232 9.306L52.8792 7.906C52.9819 7.80333 53.1079 7.752 53.2572 7.752C53.4252 7.752 53.5746 7.79867 53.7052 7.892C53.8452 7.976 53.9152 8.09267 53.9152 8.242V17.51C53.9152 17.6593 53.8406 17.7807 53.6912 17.874C53.5419 17.958 53.3692 18 53.1732 18C52.9679 18 52.7906 17.958 52.6412 17.874C52.5012 17.7807 52.4312 17.6593 52.4312 17.51V9.726L51.9412 10.342C51.8479 10.4353 51.7452 10.482 51.6332 10.482C51.4932 10.482 51.3719 10.4213 51.2692 10.3C51.1759 10.1693 51.1292 10.0293 51.1292 9.88ZM56.8637 17.846C56.705 17.678 56.6257 17.4773 56.6257 17.244C56.6257 17.0107 56.705 16.8147 56.8637 16.656C57.0223 16.488 57.223 16.404 57.4657 16.404C57.6897 16.404 57.881 16.488 58.0397 16.656C58.2077 16.8147 58.2917 17.0107 58.2917 17.244C58.2917 17.468 58.2077 17.664 58.0397 17.832C57.881 18 57.6897 18.084 57.4657 18.084C57.223 18.084 57.0223 18.0047 56.8637 17.846ZM60.554 17.51V16.152C60.554 15.732 60.708 15.3213 61.016 14.92C61.3333 14.5187 61.7206 14.1547 62.178 13.828L63.522 12.848C63.97 12.5213 64.348 12.162 64.656 11.77C64.9733 11.378 65.132 10.986 65.132 10.594C65.132 10.202 65.0013 9.86133 64.74 9.572C64.488 9.27333 64.1146 9.124 63.62 9.124C63.2 9.124 62.8593 9.24067 62.598 9.474C62.3366 9.70733 62.206 10.0527 62.206 10.51C62.206 10.6593 62.1313 10.79 61.982 10.902C61.842 11.014 61.6553 11.07 61.422 11.07C60.974 11.07 60.75 10.7947 60.75 10.244C60.75 9.516 61.03 8.92333 61.59 8.466C62.1593 7.99933 62.836 7.766 63.62 7.766C64.4506 7.766 65.1553 8.02733 65.734 8.55C66.322 9.06333 66.616 9.73067 66.616 10.552C66.616 11.112 66.4573 11.6393 66.14 12.134C65.832 12.6193 65.454 13.0347 65.006 13.38C64.5673 13.716 64.124 14.038 63.676 14.346C63.2373 14.6447 62.8593 14.948 62.542 15.256C62.234 15.564 62.08 15.8627 62.08 16.152V16.684H66.196C66.3266 16.684 66.4386 16.7493 66.532 16.88C66.6346 17.0013 66.686 17.1507 66.686 17.328C66.686 17.5053 66.6346 17.664 66.532 17.804C66.4386 17.9347 66.3266 18 66.196 18H61.212C61.0626 18 60.9133 17.9533 60.764 17.86C60.624 17.7667 60.554 17.65 60.554 17.51Z" fill="#051557"/>
</svg>
