<svg width="64" height="24" viewBox="0 0 64 24" fill="none" xmlns="http://www.w3.org/2000/svg">
<rect width="64" height="24" rx="4" fill="#F9DF00"/>
<path d="M8.08728 16.524V7.256C8.08728 7.10667 8.15261 6.99 8.28328 6.906C8.41395 6.81267 8.56795 6.766 8.74528 6.766H11.2933C12.1519 6.766 12.8379 6.94333 13.3513 7.298C13.8646 7.65267 14.1213 8.28267 14.1213 9.188C14.1213 10.3453 13.7246 11.1013 12.9313 11.456C13.4073 11.6427 13.7666 11.9133 14.0093 12.268C14.2519 12.6133 14.3733 13.122 14.3733 13.794V14.06C14.3733 15.0867 14.1213 15.8333 13.6173 16.3C13.1133 16.7667 12.4366 17 11.5873 17H8.74528C8.54928 17 8.39061 16.9533 8.26928 16.86C8.14795 16.7667 8.08728 16.6547 8.08728 16.524ZM9.55728 15.684H11.3073C12.3619 15.684 12.8893 15.1053 12.8893 13.948V13.724C12.8893 13.1267 12.7539 12.6973 12.4833 12.436C12.2219 12.1747 11.8299 12.044 11.3073 12.044H9.55728V15.684ZM9.55728 10.868H11.2233C12.1659 10.868 12.6373 10.3873 12.6373 9.426C12.6373 8.53 12.1566 8.082 11.1953 8.082H9.55728V10.868ZM17.2256 16.51V7.256C17.2256 7.10667 17.2909 6.99 17.4216 6.906C17.5522 6.81267 17.7062 6.766 17.8836 6.766H22.8676C23.0262 6.766 23.1476 6.83133 23.2316 6.962C23.3156 7.09267 23.3576 7.242 23.3576 7.41C23.3576 7.59667 23.3109 7.75533 23.2176 7.886C23.1336 8.01667 23.0169 8.082 22.8676 8.082H18.7096V11.288H20.8656C21.0149 11.288 21.1316 11.3487 21.2156 11.47C21.3089 11.582 21.3556 11.722 21.3556 11.89C21.3556 12.0393 21.3136 12.1747 21.2296 12.296C21.1456 12.408 21.0242 12.464 20.8656 12.464H18.7096V15.684H22.8676C23.0169 15.684 23.1336 15.7493 23.2176 15.88C23.3109 16.0107 23.3576 16.1693 23.3576 16.356C23.3576 16.524 23.3156 16.6733 23.2316 16.804C23.1476 16.9347 23.0262 17 22.8676 17H17.8836C17.7062 17 17.5522 16.958 17.4216 16.874C17.2909 16.7807 17.2256 16.6593 17.2256 16.51ZM25.2257 7.438C25.2257 7.26067 25.2677 7.10667 25.3517 6.976C25.4357 6.836 25.557 6.766 25.7157 6.766H31.5257C31.6844 6.766 31.8057 6.83133 31.8897 6.962C31.9737 7.09267 32.0157 7.24667 32.0157 7.424C32.0157 7.62 31.969 7.788 31.8757 7.928C31.7917 8.05867 31.675 8.124 31.5257 8.124H29.3697V16.51C29.3697 16.6593 29.295 16.7807 29.1457 16.874C28.9964 16.958 28.8237 17 28.6277 17C28.4224 17 28.245 16.958 28.0957 16.874C27.9557 16.7807 27.8857 16.6593 27.8857 16.51V8.124H25.7157C25.5664 8.124 25.445 8.05867 25.3517 7.928C25.2677 7.788 25.2257 7.62467 25.2257 7.438ZM33.0105 16.384C33.0105 16.328 33.0151 16.286 33.0245 16.258L35.8105 7.186C35.9225 6.85 36.2351 6.682 36.7485 6.682C37.2711 6.682 37.5885 6.85 37.7005 7.186L40.4725 16.258C40.4911 16.314 40.5005 16.356 40.5005 16.384C40.5005 16.552 40.3978 16.6967 40.1925 16.818C39.9965 16.9393 39.7865 17 39.5625 17C39.2918 17 39.1238 16.8973 39.0585 16.692L38.4845 14.704H35.0265L34.4525 16.692C34.3871 16.8973 34.2145 17 33.9345 17C33.7105 17 33.5005 16.9393 33.3045 16.818C33.1085 16.6967 33.0105 16.552 33.0105 16.384ZM35.3485 13.514H38.1485L36.7485 8.712L35.3485 13.514ZM46.4045 10.938C46.4045 10.77 46.5118 10.6253 46.7265 10.504C46.9412 10.3733 47.1558 10.308 47.3705 10.308C47.6038 10.308 47.7532 10.3967 47.8185 10.574L49.4845 14.998L51.1505 10.602C51.2252 10.406 51.3745 10.308 51.5985 10.308C51.7758 10.308 51.9812 10.3733 52.2145 10.504C52.4478 10.6347 52.5645 10.7793 52.5645 10.938C52.5645 11.0033 52.5458 11.0827 52.5085 11.176L50.1565 16.846C50.0725 17.042 49.8485 17.14 49.4845 17.14C49.1205 17.14 48.8965 17.042 48.8125 16.846L46.4745 11.176C46.4278 11.0827 46.4045 11.0033 46.4045 10.938ZM54.2023 8.88C54.2023 8.63733 54.3003 8.446 54.4963 8.306L55.9523 6.906C56.055 6.80333 56.181 6.752 56.3303 6.752C56.4983 6.752 56.6476 6.79867 56.7783 6.892C56.9183 6.976 56.9883 7.09267 56.9883 7.242V16.51C56.9883 16.6593 56.9136 16.7807 56.7643 16.874C56.615 16.958 56.4423 17 56.2463 17C56.041 17 55.8636 16.958 55.7143 16.874C55.5743 16.7807 55.5043 16.6593 55.5043 16.51V8.726L55.0143 9.342C54.921 9.43533 54.8183 9.482 54.7063 9.482C54.5663 9.482 54.445 9.42133 54.3423 9.3C54.249 9.16933 54.2023 9.02933 54.2023 8.88Z" fill="#051557"/>
</svg>
