<svg width="72" height="24" viewBox="0 0 72 24" fill="none" xmlns="http://www.w3.org/2000/svg">
<path d="M0 4C0 1.79086 1.79086 0 4 0H67.4998C69.7089 0 71.4998 1.79086 71.4998 4V20C71.4998 22.2091 69.7089 24 67.4998 24H4C1.79086 24 0 22.2091 0 20V4Z" fill="#F9DF00"/>
<path d="M3.02497 17.524V8.256C3.02497 8.10667 3.0903 7.99 3.22097 7.906C3.35164 7.81267 3.50564 7.766 3.68297 7.766H6.23097C7.08964 7.766 7.77564 7.94333 8.28897 8.298C8.8023 8.65267 9.05897 9.28267 9.05897 10.188C9.05897 11.3453 8.6623 12.1013 7.86897 12.456C8.34497 12.6427 8.7043 12.9133 8.94697 13.268C9.18964 13.6133 9.31097 14.122 9.31097 14.794V15.06C9.31097 16.0867 9.05897 16.8333 8.55497 17.3C8.05097 17.7667 7.3743 18 6.52497 18H3.68297C3.48697 18 3.3283 17.9533 3.20697 17.86C3.08564 17.7667 3.02497 17.6547 3.02497 17.524ZM4.49497 16.684H6.24497C7.29964 16.684 7.82697 16.1053 7.82697 14.948V14.724C7.82697 14.1267 7.69164 13.6973 7.42097 13.436C7.15964 13.1747 6.76764 13.044 6.24497 13.044H4.49497V16.684ZM4.49497 11.868H6.16097C7.10364 11.868 7.57497 11.3873 7.57497 10.426C7.57497 9.53 7.0943 9.082 6.13297 9.082H4.49497V11.868ZM12.1633 17.51V8.256C12.1633 8.10667 12.2286 7.99 12.3593 7.906C12.4899 7.81267 12.6439 7.766 12.8213 7.766H17.8053C17.9639 7.766 18.0853 7.83133 18.1693 7.962C18.2533 8.09267 18.2953 8.242 18.2953 8.41C18.2953 8.59667 18.2486 8.75533 18.1553 8.886C18.0713 9.01667 17.9546 9.082 17.8053 9.082H13.6473V12.288H15.8033C15.9526 12.288 16.0693 12.3487 16.1533 12.47C16.2466 12.582 16.2933 12.722 16.2933 12.89C16.2933 13.0393 16.2513 13.1747 16.1673 13.296C16.0833 13.408 15.9619 13.464 15.8033 13.464H13.6473V16.684H17.8053C17.9546 16.684 18.0713 16.7493 18.1553 16.88C18.2486 17.0107 18.2953 17.1693 18.2953 17.356C18.2953 17.524 18.2533 17.6733 18.1693 17.804C18.0853 17.9347 17.9639 18 17.8053 18H12.8213C12.6439 18 12.4899 17.958 12.3593 17.874C12.2286 17.7807 12.1633 17.6593 12.1633 17.51ZM20.1634 8.438C20.1634 8.26067 20.2054 8.10667 20.2894 7.976C20.3734 7.836 20.4947 7.766 20.6534 7.766H26.4634C26.622 7.766 26.7434 7.83133 26.8274 7.962C26.9114 8.09267 26.9534 8.24667 26.9534 8.424C26.9534 8.62 26.9067 8.788 26.8134 8.928C26.7294 9.05867 26.6127 9.124 26.4634 9.124H24.3074V17.51C24.3074 17.6593 24.2327 17.7807 24.0834 17.874C23.934 17.958 23.7614 18 23.5654 18C23.36 18 23.1827 17.958 23.0334 17.874C22.8934 17.7807 22.8234 17.6593 22.8234 17.51V9.124H20.6534C20.504 9.124 20.3827 9.05867 20.2894 8.928C20.2054 8.788 20.1634 8.62467 20.1634 8.438ZM27.9481 17.384C27.9481 17.328 27.9528 17.286 27.9621 17.258L30.7481 8.186C30.8601 7.85 31.1728 7.682 31.6861 7.682C32.2088 7.682 32.5261 7.85 32.6381 8.186L35.4101 17.258C35.4288 17.314 35.4381 17.356 35.4381 17.384C35.4381 17.552 35.3355 17.6967 35.1301 17.818C34.9341 17.9393 34.7241 18 34.5001 18C34.2295 18 34.0615 17.8973 33.9961 17.692L33.4221 15.704H29.9641L29.3901 17.692C29.3248 17.8973 29.1521 18 28.8721 18C28.6481 18 28.4381 17.9393 28.2421 17.818C28.0461 17.6967 27.9481 17.552 27.9481 17.384ZM30.2861 14.514H33.0861L31.6861 9.712L30.2861 14.514ZM41.3422 11.938C41.3422 11.77 41.4495 11.6253 41.6642 11.504C41.8789 11.3733 42.0935 11.308 42.3082 11.308C42.5415 11.308 42.6909 11.3967 42.7562 11.574L44.4222 15.998L46.0882 11.602C46.1629 11.406 46.3122 11.308 46.5362 11.308C46.7135 11.308 46.9189 11.3733 47.1522 11.504C47.3855 11.6347 47.5022 11.7793 47.5022 11.938C47.5022 12.0033 47.4835 12.0827 47.4462 12.176L45.0942 17.846C45.0102 18.042 44.7862 18.14 44.4222 18.14C44.0582 18.14 43.8342 18.042 43.7502 17.846L41.4122 12.176C41.3655 12.0827 41.3422 12.0033 41.3422 11.938ZM49.462 17.51V16.152C49.462 15.732 49.616 15.3213 49.924 14.92C50.2413 14.5187 50.6287 14.1547 51.086 13.828L52.43 12.848C52.878 12.5213 53.256 12.162 53.564 11.77C53.8813 11.378 54.04 10.986 54.04 10.594C54.04 10.202 53.9093 9.86133 53.648 9.572C53.396 9.27333 53.0227 9.124 52.528 9.124C52.108 9.124 51.7673 9.24067 51.506 9.474C51.2447 9.70733 51.114 10.0527 51.114 10.51C51.114 10.6593 51.0393 10.79 50.89 10.902C50.75 11.014 50.5633 11.07 50.33 11.07C49.882 11.07 49.658 10.7947 49.658 10.244C49.658 9.516 49.938 8.92333 50.498 8.466C51.0673 7.99933 51.744 7.766 52.528 7.766C53.3587 7.766 54.0633 8.02733 54.642 8.55C55.23 9.06333 55.524 9.73067 55.524 10.552C55.524 11.112 55.3653 11.6393 55.048 12.134C54.74 12.6193 54.362 13.0347 53.914 13.38C53.4753 13.716 53.032 14.038 52.584 14.346C52.1453 14.6447 51.7673 14.948 51.45 15.256C51.142 15.564 50.988 15.8627 50.988 16.152V16.684H55.104C55.2347 16.684 55.3467 16.7493 55.44 16.88C55.5427 17.0013 55.594 17.1507 55.594 17.328C55.594 17.5053 55.5427 17.664 55.44 17.804C55.3467 17.9347 55.2347 18 55.104 18H50.12C49.9707 18 49.8213 17.9533 49.672 17.86C49.532 17.7667 49.462 17.65 49.462 17.51ZM58.0736 17.846C57.915 17.678 57.8356 17.4773 57.8356 17.244C57.8356 17.0107 57.915 16.8147 58.0736 16.656C58.2323 16.488 58.433 16.404 58.6756 16.404C58.8996 16.404 59.091 16.488 59.2496 16.656C59.4176 16.8147 59.5016 17.0107 59.5016 17.244C59.5016 17.468 59.4176 17.664 59.2496 17.832C59.091 18 58.8996 18.084 58.6756 18.084C58.433 18.084 58.2323 18.0047 58.0736 17.846ZM62.0719 14.962V10.888C62.0719 9.81467 62.3566 9.026 62.9259 8.522C63.4953 8.018 64.2559 7.766 65.2079 7.766C66.1599 7.766 66.9206 8.018 67.4899 8.522C68.0686 9.026 68.3579 9.81467 68.3579 10.888V14.962C68.3579 16.0353 68.0686 16.824 67.4899 17.328C66.9206 17.832 66.1599 18.084 65.2079 18.084C64.2559 18.084 63.4953 17.832 62.9259 17.328C62.3566 16.824 62.0719 16.0353 62.0719 14.962ZM63.5559 14.962C63.5559 16.166 64.1066 16.768 65.2079 16.768C65.7399 16.768 66.1506 16.6187 66.4399 16.32C66.7293 16.0213 66.8739 15.5687 66.8739 14.962V10.888C66.8739 10.2813 66.7293 9.82867 66.4399 9.53C66.1506 9.23133 65.7399 9.082 65.2079 9.082C64.1066 9.082 63.5559 9.684 63.5559 10.888V14.962ZM64.7879 13.366C64.6759 13.254 64.6199 13.1093 64.6199 12.932C64.6199 12.7547 64.6759 12.6147 64.7879 12.512C64.8999 12.4 65.0446 12.344 65.2219 12.344C65.3993 12.344 65.5393 12.4 65.6419 12.512C65.7539 12.6147 65.8099 12.7547 65.8099 12.932C65.8099 13.1093 65.7539 13.254 65.6419 13.366C65.5393 13.478 65.3993 13.534 65.2219 13.534C65.0446 13.534 64.8999 13.478 64.7879 13.366Z" fill="#051557"/>
</svg>
