<svg width="72" height="24" viewBox="0 0 72 24" fill="none" xmlns="http://www.w3.org/2000/svg">
<path d="M0 4C0 1.79086 1.79086 0 4 0H67.4998C69.7089 0 71.4998 1.79086 71.4998 4V20C71.4998 22.2091 69.7089 24 67.4998 24H4C1.79086 24 0 22.2091 0 20V4Z" fill="#F9DF00"/>
<path d="M2.92927 17.524V8.256C2.92927 8.10667 2.9946 7.99 3.12527 7.906C3.25593 7.81267 3.40993 7.766 3.58727 7.766H6.13527C6.99394 7.766 7.67994 7.94333 8.19327 8.298C8.7066 8.65267 8.96327 9.28267 8.96327 10.188C8.96327 11.3453 8.5666 12.1013 7.77327 12.456C8.24927 12.6427 8.6086 12.9133 8.85127 13.268C9.09394 13.6133 9.21527 14.122 9.21527 14.794V15.06C9.21527 16.0867 8.96327 16.8333 8.45927 17.3C7.95527 17.7667 7.2786 18 6.42927 18H3.58727C3.39127 18 3.2326 17.9533 3.11127 17.86C2.98993 17.7667 2.92927 17.6547 2.92927 17.524ZM4.39927 16.684H6.14927C7.20393 16.684 7.73127 16.1053 7.73127 14.948V14.724C7.73127 14.1267 7.59593 13.6973 7.32527 13.436C7.06394 13.1747 6.67194 13.044 6.14927 13.044H4.39927V16.684ZM4.39927 11.868H6.06527C7.00794 11.868 7.47927 11.3873 7.47927 10.426C7.47927 9.53 6.9986 9.082 6.03727 9.082H4.39927V11.868ZM12.0675 17.51V8.256C12.0675 8.10667 12.1329 7.99 12.2635 7.906C12.3942 7.81267 12.5482 7.766 12.7255 7.766H17.7095C17.8682 7.766 17.9895 7.83133 18.0735 7.962C18.1575 8.09267 18.1995 8.242 18.1995 8.41C18.1995 8.59667 18.1529 8.75533 18.0595 8.886C17.9755 9.01667 17.8589 9.082 17.7095 9.082H13.5515V12.288H15.7075C15.8569 12.288 15.9735 12.3487 16.0575 12.47C16.1509 12.582 16.1975 12.722 16.1975 12.89C16.1975 13.0393 16.1555 13.1747 16.0715 13.296C15.9875 13.408 15.8662 13.464 15.7075 13.464H13.5515V16.684H17.7095C17.8589 16.684 17.9755 16.7493 18.0595 16.88C18.1529 17.0107 18.1995 17.1693 18.1995 17.356C18.1995 17.524 18.1575 17.6733 18.0735 17.804C17.9895 17.9347 17.8682 18 17.7095 18H12.7255C12.5482 18 12.3942 17.958 12.2635 17.874C12.1329 17.7807 12.0675 17.6593 12.0675 17.51ZM20.0677 8.438C20.0677 8.26067 20.1097 8.10667 20.1937 7.976C20.2777 7.836 20.399 7.766 20.5577 7.766H26.3677C26.5263 7.766 26.6477 7.83133 26.7317 7.962C26.8157 8.09267 26.8577 8.24667 26.8577 8.424C26.8577 8.62 26.811 8.788 26.7177 8.928C26.6337 9.05867 26.517 9.124 26.3677 9.124H24.2117V17.51C24.2117 17.6593 24.137 17.7807 23.9877 17.874C23.8383 17.958 23.6657 18 23.4697 18C23.2643 18 23.087 17.958 22.9377 17.874C22.7977 17.7807 22.7277 17.6593 22.7277 17.51V9.124H20.5577C20.4083 9.124 20.287 9.05867 20.1937 8.928C20.1097 8.788 20.0677 8.62467 20.0677 8.438ZM27.8524 17.384C27.8524 17.328 27.8571 17.286 27.8664 17.258L30.6524 8.186C30.7644 7.85 31.0771 7.682 31.5904 7.682C32.1131 7.682 32.4304 7.85 32.5424 8.186L35.3144 17.258C35.3331 17.314 35.3424 17.356 35.3424 17.384C35.3424 17.552 35.2398 17.6967 35.0344 17.818C34.8384 17.9393 34.6284 18 34.4044 18C34.1338 18 33.9658 17.8973 33.9004 17.692L33.3264 15.704H29.8684L29.2944 17.692C29.2291 17.8973 29.0564 18 28.7764 18C28.5524 18 28.3424 17.9393 28.1464 17.818C27.9504 17.6967 27.8524 17.552 27.8524 17.384ZM30.1904 14.514H32.9904L31.5904 9.712L30.1904 14.514ZM41.2465 11.938C41.2465 11.77 41.3538 11.6253 41.5685 11.504C41.7832 11.3733 41.9978 11.308 42.2125 11.308C42.4458 11.308 42.5952 11.3967 42.6605 11.574L44.3265 15.998L45.9925 11.602C46.0672 11.406 46.2165 11.308 46.4405 11.308C46.6178 11.308 46.8232 11.3733 47.0565 11.504C47.2898 11.6347 47.4065 11.7793 47.4065 11.938C47.4065 12.0033 47.3878 12.0827 47.3505 12.176L44.9985 17.846C44.9145 18.042 44.6905 18.14 44.3265 18.14C43.9625 18.14 43.7385 18.042 43.6545 17.846L41.3165 12.176C41.2698 12.0827 41.2465 12.0033 41.2465 11.938ZM49.2823 15.62C49.2823 15.3773 49.3336 15.214 49.4363 15.13C49.539 15.0367 49.7163 14.99 49.9683 14.99C50.267 14.99 50.4676 15.0367 50.5703 15.13C50.6823 15.214 50.7383 15.354 50.7383 15.55C50.7383 15.886 50.8783 16.1753 51.1583 16.418C51.4476 16.6513 51.8583 16.768 52.3903 16.768C52.969 16.768 53.3936 16.6327 53.6643 16.362C53.9443 16.082 54.0843 15.6387 54.0843 15.032V14.766C54.0843 13.7487 53.515 13.24 52.3763 13.24C52.059 13.24 51.9003 13.044 51.9003 12.652C51.9003 12.2507 52.059 12.05 52.3763 12.05C52.8523 12.05 53.2116 11.9427 53.4543 11.728C53.7063 11.5133 53.8323 11.1073 53.8323 10.51C53.8323 9.54867 53.3656 9.068 52.4323 9.068C51.9096 9.068 51.5363 9.18 51.3123 9.404C51.0883 9.61867 50.9763 9.88933 50.9763 10.216C50.9763 10.6173 50.743 10.818 50.2763 10.818C49.959 10.818 49.749 10.7713 49.6463 10.678C49.553 10.5847 49.5063 10.4027 49.5063 10.132C49.5063 9.88 49.553 9.628 49.6463 9.376C49.7396 9.124 49.889 8.872 50.0943 8.62C50.309 8.368 50.617 8.16267 51.0183 8.004C51.429 7.84533 51.905 7.766 52.4463 7.766C54.3223 7.766 55.2603 8.59667 55.2603 10.258C55.2603 10.8273 55.1576 11.3173 54.9523 11.728C54.7563 12.1387 54.4856 12.428 54.1403 12.596C55.0923 12.9693 55.5683 13.6927 55.5683 14.766V15.032C55.5683 16.0867 55.2743 16.8613 54.6863 17.356C54.0983 17.8413 53.3283 18.084 52.3763 18.084C51.3683 18.084 50.5983 17.832 50.0663 17.328C49.5436 16.824 49.2823 16.2547 49.2823 15.62ZM58.1693 17.846C58.0107 17.678 57.9313 17.4773 57.9313 17.244C57.9313 17.0107 58.0107 16.8147 58.1693 16.656C58.328 16.488 58.5287 16.404 58.7713 16.404C58.9953 16.404 59.1867 16.488 59.3453 16.656C59.5133 16.8147 59.5973 17.0107 59.5973 17.244C59.5973 17.468 59.5133 17.664 59.3453 17.832C59.1867 18 58.9953 18.084 58.7713 18.084C58.5287 18.084 58.328 18.0047 58.1693 17.846ZM62.1676 14.962V10.888C62.1676 9.81467 62.4523 9.026 63.0216 8.522C63.591 8.018 64.3516 7.766 65.3036 7.766C66.2556 7.766 67.0163 8.018 67.5856 8.522C68.1643 9.026 68.4536 9.81467 68.4536 10.888V14.962C68.4536 16.0353 68.1643 16.824 67.5856 17.328C67.0163 17.832 66.2556 18.084 65.3036 18.084C64.3516 18.084 63.591 17.832 63.0216 17.328C62.4523 16.824 62.1676 16.0353 62.1676 14.962ZM63.6516 14.962C63.6516 16.166 64.2023 16.768 65.3036 16.768C65.8356 16.768 66.2463 16.6187 66.5356 16.32C66.825 16.0213 66.9696 15.5687 66.9696 14.962V10.888C66.9696 10.2813 66.825 9.82867 66.5356 9.53C66.2463 9.23133 65.8356 9.082 65.3036 9.082C64.2023 9.082 63.6516 9.684 63.6516 10.888V14.962ZM64.8836 13.366C64.7716 13.254 64.7156 13.1093 64.7156 12.932C64.7156 12.7547 64.7716 12.6147 64.8836 12.512C64.9956 12.4 65.1403 12.344 65.3176 12.344C65.495 12.344 65.635 12.4 65.7376 12.512C65.8496 12.6147 65.9056 12.7547 65.9056 12.932C65.9056 13.1093 65.8496 13.254 65.7376 13.366C65.635 13.478 65.495 13.534 65.3176 13.534C65.1403 13.534 64.9956 13.478 64.8836 13.366Z" fill="#051557"/>
</svg>
