<svg width="17" height="16" viewBox="0 0 17 16" fill="none" xmlns="http://www.w3.org/2000/svg">
<path d="M3.3311 7.60484C3.33112 7.51536 3.34881 7.42678 3.38315 7.34416C3.4175 7.26155 3.46783 7.18653 3.53125 7.12342C3.59466 7.06031 3.66992 7.01034 3.75271 6.9764C3.83549 6.94245 3.92416 6.92519 4.01363 6.92561L5.14518 6.92931C5.3256 6.92931 5.49863 7.00098 5.62621 7.12856C5.75378 7.25613 5.82546 7.42917 5.82546 7.60959V11.8886C5.9529 11.8508 6.116 11.8105 6.29548 11.7683C6.41983 11.739 6.53064 11.6686 6.60997 11.5685C6.68929 11.4683 6.73247 11.3443 6.73249 11.2166V5.90922C6.73249 5.72879 6.80416 5.55574 6.93174 5.42815C7.05931 5.30055 7.23234 5.22885 7.41277 5.22881H8.54776C8.72819 5.22885 8.90122 5.30055 9.0288 5.42815C9.15637 5.55574 9.22804 5.72879 9.22804 5.90922V10.8353C9.22804 10.8353 9.51198 10.7204 9.7884 10.6037C9.89111 10.5602 9.97876 10.4875 10.0404 10.3946C10.1021 10.3016 10.135 10.1926 10.1351 10.0811V4.20846C10.1351 4.02806 10.2067 3.85505 10.3343 3.72748C10.4618 3.5999 10.6348 3.52822 10.8152 3.52818H11.949C12.1293 3.52836 12.3022 3.60011 12.4296 3.72766C12.5571 3.85522 12.6286 4.02815 12.6286 4.20846V9.04437C13.6116 8.332 14.6078 7.47514 15.3983 6.44489C15.513 6.29534 15.5889 6.11973 15.6193 5.93371C15.6496 5.7477 15.6334 5.55707 15.5721 5.37884C15.2062 4.32602 14.6245 3.36118 13.8643 2.54607C13.104 1.73096 12.182 1.08353 11.1572 0.645206C10.1324 0.206882 9.02738 -0.0126821 7.91285 0.000565706C6.79832 0.0138135 5.69883 0.25958 4.68473 0.722139C3.67063 1.1847 2.76426 1.85386 2.02362 2.68681C1.28298 3.51976 0.724373 4.49815 0.383554 5.55938C0.0427341 6.6206 -0.0727953 7.74129 0.0443575 8.84973C0.16151 9.95816 0.508766 11.0299 1.0639 11.9965C1.16062 12.1632 1.30291 12.2989 1.47407 12.3875C1.64522 12.4762 1.83812 12.5142 2.03011 12.497C2.24458 12.4781 2.51162 12.4514 2.82911 12.4142C2.96729 12.3985 3.09486 12.3325 3.18753 12.2288C3.28019 12.1251 3.33148 11.9909 3.33163 11.8519V7.60484" fill="#12161C"/>
<path d="M3.30762 14.4672C4.50272 15.3366 5.91505 15.8585 7.38834 15.975C8.86162 16.0916 10.3384 15.7983 11.6554 15.1277C12.9724 14.457 14.0781 13.4351 14.8503 12.175C15.6225 10.9149 16.0311 9.46572 16.0308 7.98783C16.0308 7.80293 16.0223 7.62094 16.01 7.43948C13.083 11.805 7.67851 13.8458 3.30762 14.4672Z" fill="#F0B90B"/>
</svg>
