<svg width="60" height="60" viewBox="0 0 60 60" fill="none" xmlns="http://www.w3.org/2000/svg">
<path d="M32.9032 30.0001C32.9032 26.7978 30.299 24.1937 27.0967 24.1937H23.2258C21.0909 24.1937 19.3548 22.4575 19.3548 20.3227C19.3548 18.1878 21.0909 16.4517 23.2258 16.4517H27.0967C29.2316 16.4517 30.9677 18.1878 30.9677 20.3227V22.2582H32.9032V20.3227C32.9032 17.1204 30.299 14.5162 27.0967 14.5162H26.129V10.6453H24.1935V14.5162H23.2258C20.0235 14.5162 17.4193 17.1204 17.4193 20.3227C17.4193 23.5249 20.0235 26.1291 23.2258 26.1291H27.0967C29.2316 26.1291 30.9677 27.8653 30.9677 30.0001C30.9677 32.1349 29.2316 33.8711 27.0967 33.8711H23.2258C21.0909 33.8711 19.3548 32.1349 19.3548 30.0001V28.0646H17.4193V30.0001C17.4193 33.2024 20.0235 35.8066 23.2258 35.8066H24.1935V39.6775H26.129V35.8066H27.0967C30.299 35.8066 32.9032 33.2024 32.9032 30.0001Z" fill="#A3FFFF"/>
<path d="M36.7742 24.1936H34.8387V26.1291H36.7742V24.1936Z" fill="#A3FFFF"/>
<path d="M15.4838 24.1936H13.5483V26.1291H15.4838V24.1936Z" fill="#A3FFFF"/>
<path d="M50.821 33.871C50.0845 33.871 49.3645 33.9668 48.6658 34.1352C49.7593 31.2803 50.3226 28.2726 50.3226 25.1613C50.3226 11.2877 39.0358 0 25.1613 0C11.2868 0 0 11.2877 0 25.1613C0 39.0358 11.2868 50.3226 25.1613 50.3226C26.819 50.3226 28.4661 50.1523 30.0774 49.8329L37.9074 57.6629C39.4152 59.1706 41.4174 60 43.5484 60C45.6794 60 47.6816 59.1706 49.1884 57.6639L57.3116 49.5406C59.0458 47.8074 60 45.5023 60 43.05C60 37.9887 55.8823 33.871 50.821 33.871ZM1.93548 25.1613C1.93548 12.3552 12.3552 1.93548 25.1613 1.93548C37.9674 1.93548 48.3871 12.3552 48.3871 25.1613C48.3871 28.6713 47.6206 32.0381 46.1177 35.1755C45.4761 35.5597 44.8723 36.0164 44.3303 36.5594L43.5484 37.3413L42.7665 36.5594C42.3745 36.1674 41.9497 35.821 41.5045 35.5103C43.471 32.4155 44.5161 28.8629 44.5161 25.1613C44.5161 14.489 35.8335 5.80645 25.1613 5.80645C14.489 5.80645 5.80645 14.489 5.80645 25.1613C5.80645 35.8335 14.489 44.5161 25.1613 44.5161C25.8455 44.5161 26.5277 44.4668 27.2052 44.3961C27.4006 45.7326 27.8768 47.0003 28.6219 48.121C27.48 48.2903 26.3235 48.3871 25.1613 48.3871C12.3552 48.3871 1.93548 37.9674 1.93548 25.1613ZM27.1268 42.4577C26.4765 42.5303 25.8203 42.5806 25.1613 42.5806C15.5565 42.5806 7.74194 34.7661 7.74194 25.1613C7.74194 15.5565 15.5565 7.74194 25.1613 7.74194C34.7661 7.74194 42.5806 15.5565 42.5806 25.1613C42.5806 28.5329 41.6168 31.7661 39.8081 34.5726C38.7029 34.1129 37.5087 33.871 36.2758 33.871C31.4148 33.871 27.4345 37.6723 27.1268 42.4577ZM55.9432 48.1723L47.82 56.2955C46.679 57.4365 45.1616 58.0645 43.5484 58.0645C41.9352 58.0645 40.4177 57.4365 39.2768 56.2955L31.1535 48.1723C29.7852 46.8039 29.0323 44.9845 29.0323 43.05C29.0323 39.0552 32.281 35.8064 36.2758 35.8064C38.2103 35.8064 40.0297 36.5594 41.3981 37.9277L43.5484 40.0781L45.6987 37.9277C47.0671 36.5594 48.8864 35.8064 50.821 35.8064C54.8158 35.8064 58.0645 39.0552 58.0645 43.05C58.0645 44.9845 57.3116 46.8039 55.9432 48.1723Z" fill="#A3FFFF"/>
<path d="M33.8913 45.4355C33.2536 44.7978 32.9033 43.951 32.9033 43.05C32.9033 41.19 34.4158 39.6774 36.2758 39.6774V37.7419C33.3494 37.7419 30.9678 40.1236 30.9678 43.05C30.9678 44.4668 31.5194 45.8003 32.522 46.8039L37.9539 52.2358L39.3223 50.8674L33.8913 45.4355Z" fill="#A3FFFF"/>
<path d="M40.6401 52.1849L39.2715 53.5535L40.6449 54.9268L42.0134 53.5583L40.6401 52.1849Z" fill="#A3FFFF"/>
</svg>
