<svg width="17" height="18" viewBox="0 0 17 18" fill="none" xmlns="http://www.w3.org/2000/svg">
<path d="M10.0775 5.72592H1.3742C0.610825 5.72592 0 6.33675 0 7.10013V15.8225C0 16.5669 0.610825 17.1967 1.3742 17.1967H10.0966C10.8409 17.1967 11.4708 16.5859 11.4708 15.8225L11.4707 7.10013C11.4516 6.33675 10.8408 5.72592 10.0774 5.72592H10.0775ZM10.3065 15.8034C10.3065 15.9179 10.211 16.0134 10.0965 16.0134H1.37416C1.25966 16.0134 1.1642 15.9179 1.1642 15.8034V7.10013C1.1642 6.98563 1.25966 6.89017 1.37416 6.89017H10.0965C10.211 6.89017 10.3065 6.98563 10.3065 7.10013V15.8034Z" fill="#00DEE6"/>
<path d="M14.6576 5.81163e-05H5.95428C5.1909 5.81163e-05 4.58008 0.610884 4.58008 1.37426V4.58067H5.72532V1.37426C5.72532 1.25977 5.82077 1.16431 5.93527 1.16431H14.6576C14.7721 1.16431 14.8676 1.25977 14.8676 1.37426V10.0966C14.8676 10.2111 14.7721 10.3066 14.6576 10.3066L12.5962 10.3065V11.4517H14.6575C15.4019 11.4517 16.0317 10.8409 16.0317 10.0775V1.3742C16.0317 0.610825 15.421 0 14.6575 0L14.6576 5.81163e-05Z" fill="#00DEE6"/>
</svg>
