<svg width="77" height="77" viewBox="0 0 77 77" fill="none" xmlns="http://www.w3.org/2000/svg">
<path fill-rule="evenodd" clip-rule="evenodd" d="M73.9847 1H54.3591C53.8255 1.00289 53.3145 1.21616 52.9372 1.5935C52.5598 1.97084 52.3466 2.48179 52.3437 3.01542V22.641C52.3466 23.1746 52.5598 23.6856 52.9372 24.0629C53.3145 24.4402 53.8255 24.6535 54.3591 24.6564H73.9847C74.5183 24.6535 75.0293 24.4402 75.4066 24.0629C75.7839 23.6856 75.9972 23.1746 76.0001 22.641V3.01542C75.9972 2.48179 75.7839 1.97084 75.4066 1.5935C75.0293 1.21616 74.5183 1.00289 73.9847 1ZM73.7974 22.4648H54.5463V3.20264H73.7974V22.4648ZM13.6069 42.869C13.4004 43.0756 13.1202 43.1916 12.8281 43.1916C12.5361 43.1916 12.2559 43.0756 12.0494 42.869C11.8429 42.6625 11.7268 42.3824 11.7268 42.0903V18.0925C11.7297 16.4197 12.3955 14.8163 13.5784 13.6334C14.7612 12.4506 16.3646 11.7848 18.0374 11.7819H39.7114L33.8524 5.92285C33.672 5.71216 33.5777 5.44116 33.5884 5.16398C33.5991 4.8868 33.714 4.62387 33.9101 4.42773C34.1063 4.23159 34.3692 4.11669 34.6464 4.10598C34.9236 4.09528 35.1946 4.18956 35.4052 4.36998L43.1145 12.0792C43.3196 12.2856 43.4348 12.5647 43.4348 12.8557C43.4348 13.1466 43.3196 13.4258 43.1145 13.6321L35.4052 21.3414C35.3065 21.4566 35.185 21.5503 35.0484 21.6164C34.9118 21.6825 34.7629 21.7196 34.6113 21.7255C34.4596 21.7314 34.3083 21.7058 34.167 21.6504C34.0257 21.5951 33.8973 21.5111 33.79 21.4037C33.6827 21.2964 33.5987 21.1681 33.5433 21.0267C33.4879 20.8854 33.4624 20.7342 33.4682 20.5825C33.4741 20.4308 33.5113 20.282 33.5774 20.1454C33.6435 20.0087 33.7371 19.8872 33.8524 19.7885L39.7114 13.9295H18.0374C16.9488 13.9324 15.9056 14.3661 15.1359 15.1359C14.3661 15.9056 13.9324 16.9488 13.9295 18.0374V42.0903C13.9295 42.3824 13.8134 42.6625 13.6069 42.869ZM63.393 34.131C63.5995 33.9245 63.8796 33.8084 64.1717 33.8084C64.4638 33.8084 64.7439 33.9245 64.9505 34.131C65.157 34.3375 65.273 34.6177 65.273 34.9098V58.9626C65.2701 60.6354 64.6043 62.2388 63.4215 63.4217C62.2387 64.6045 60.6352 65.2703 58.9625 65.2732H37.3435L43.1475 71.0331C43.3279 71.2438 43.4222 71.5148 43.4115 71.792C43.4008 72.0692 43.2859 72.3321 43.0897 72.5282C42.8936 72.7244 42.6307 72.8393 42.3535 72.85C42.0763 72.8607 41.8053 72.7664 41.5946 72.586L33.8854 64.8767C33.6802 64.6704 33.5651 64.3912 33.5651 64.1003C33.5651 63.8093 33.6802 63.5302 33.8854 63.3239L41.5946 55.6146C41.8053 55.4342 42.0763 55.3399 42.3535 55.3506C42.6307 55.3613 42.8936 55.4762 43.0897 55.6724C43.2859 55.8685 43.4008 56.1314 43.4115 56.4086C43.4222 56.6858 43.3279 56.9568 43.1475 57.1675L37.3435 63.0706H58.9625C60.0511 63.0676 61.0942 62.6339 61.864 61.8642C62.6338 61.0944 63.0675 60.0512 63.0704 58.9626V34.9098C63.0704 34.6177 63.1864 34.3375 63.393 34.131ZM3.01542 52.3436H22.641C23.1746 52.3465 23.6856 52.5597 24.0629 52.9371C24.4402 53.3144 24.6535 53.8254 24.6564 54.359V73.9846C24.6535 74.5182 24.4402 75.0291 24.0629 75.4065C23.6856 75.7838 23.1746 75.9971 22.641 76H3.01542C2.48179 75.9971 1.97084 75.7838 1.5935 75.4065C1.21616 75.0291 1.00289 74.5182 1 73.9846V54.359C1.00289 53.8254 1.21616 53.3144 1.5935 52.9371C1.97084 52.5597 2.48179 52.3465 3.01542 52.3436ZM3.20264 73.7973H22.4648V54.5462H3.20264V73.7973Z" fill="#F9DF00"/>
<path d="M54.3591 1V0.499993L54.3564 0.500007L54.3591 1ZM73.9847 1L73.9874 0.5H73.9847V1ZM52.9372 1.5935L53.2907 1.94705V1.94705L52.9372 1.5935ZM52.3437 3.01542L51.8437 3.01271V3.01542H52.3437ZM52.3437 22.641H51.8437L51.8437 22.6437L52.3437 22.641ZM52.9372 24.0629L53.2907 23.7093L52.9372 24.0629ZM54.3591 24.6564L54.3564 25.1564H54.3591V24.6564ZM73.9847 24.6564V25.1564L73.9874 25.1564L73.9847 24.6564ZM75.4066 24.0629L75.053 23.7093V23.7093L75.4066 24.0629ZM76.0001 22.641L76.5001 22.6437V22.641H76.0001ZM76.0001 3.01542H76.5001L76.5001 3.01271L76.0001 3.01542ZM75.4066 1.5935L75.053 1.94705V1.94705L75.4066 1.5935ZM54.5463 22.4648H54.0463V22.9648H54.5463V22.4648ZM73.7974 22.4648V22.9648H74.2974V22.4648H73.7974ZM54.5463 3.20264V2.70264H54.0463V3.20264H54.5463ZM73.7974 3.20264H74.2974V2.70264H73.7974V3.20264ZM13.6069 42.869L13.2533 42.5155L13.2533 42.5155L13.6069 42.869ZM12.0494 42.869L12.403 42.5155L12.4029 42.5155L12.0494 42.869ZM11.7268 18.0925L11.2268 18.0916V18.0925H11.7268ZM18.0374 11.7819V11.2819L18.0365 11.2819L18.0374 11.7819ZM39.7114 11.7819V12.2819H40.9185L40.065 11.4283L39.7114 11.7819ZM33.8524 5.92285L33.4726 6.24807L33.4852 6.26274L33.4988 6.2764L33.8524 5.92285ZM33.5884 5.16398L34.088 5.18328V5.18327L33.5884 5.16398ZM33.9101 4.42773L34.2637 4.78129V4.78129L33.9101 4.42773ZM34.6464 4.10598L34.6657 4.60561L34.6464 4.10598ZM35.4052 4.36998L35.7588 4.01643L35.7451 4.00278L35.7305 3.99021L35.4052 4.36998ZM43.1145 12.0792L43.4691 11.7267L43.4681 11.7257L43.1145 12.0792ZM43.1145 13.6321L43.4681 13.9857L43.4691 13.9846L43.1145 13.6321ZM35.4052 21.3414L35.0517 20.9878L35.038 21.0015L35.0255 21.0161L35.4052 21.3414ZM34.6113 21.7255L34.6305 22.2251H34.6306L34.6113 21.7255ZM33.79 21.4037L33.4364 21.7573L33.4364 21.7573L33.79 21.4037ZM33.5433 21.0267L34.0089 20.8443V20.8443L33.5433 21.0267ZM33.4682 20.5825L33.9679 20.6018V20.6018L33.4682 20.5825ZM33.8524 19.7885L34.1776 20.1683L34.1923 20.1557L34.2059 20.142L33.8524 19.7885ZM39.7114 13.9295L40.065 14.283L40.9185 13.4295H39.7114V13.9295ZM18.0374 13.9295V13.4295L18.0361 13.4295L18.0374 13.9295ZM13.9295 18.0374L13.4295 18.0361V18.0374H13.9295ZM63.393 34.131L63.7465 34.4846L63.7465 34.4846L63.393 34.131ZM64.9505 34.131L64.5969 34.4846L64.5969 34.4846L64.9505 34.131ZM65.273 58.9626L65.773 58.9635V58.9626H65.273ZM63.4215 63.4217L63.7751 63.7752L63.4215 63.4217ZM58.9625 65.2732V65.7732H58.9633L58.9625 65.2732ZM37.3435 65.2732V64.7732H36.1299L36.9913 65.6281L37.3435 65.2732ZM43.1475 71.0331L43.5273 70.7079L43.5141 70.6925L43.4997 70.6782L43.1475 71.0331ZM43.4115 71.792L43.9111 71.8113V71.8113L43.4115 71.792ZM41.5946 72.586L41.2411 72.9395L41.2547 72.9532L41.2694 72.9657L41.5946 72.586ZM33.8854 64.8767L33.5308 65.2292L33.5318 65.2303L33.8854 64.8767ZM33.8854 63.3239L33.5318 62.9703L33.5308 62.9714L33.8854 63.3239ZM41.5946 55.6146L41.2694 55.2348L41.2547 55.2474L41.2411 55.2611L41.5946 55.6146ZM42.3535 55.3506L42.3728 54.851H42.3728L42.3535 55.3506ZM43.4115 56.4086L43.9111 56.3893V56.3893L43.4115 56.4086ZM43.1475 57.1675L43.504 57.518L43.5161 57.5058L43.5273 57.4927L43.1475 57.1675ZM37.3435 63.0706L36.987 62.72L36.1507 63.5706H37.3435V63.0706ZM58.9625 63.0706V63.5706H58.9638L58.9625 63.0706ZM63.0704 58.9626L63.5704 58.964V58.9626H63.0704ZM22.641 52.3436L22.6437 51.8436H22.641V52.3436ZM3.01542 52.3436V51.8436L3.01271 51.8436L3.01542 52.3436ZM24.0629 52.9371L23.7093 53.2906L24.0629 52.9371ZM24.6564 54.359H25.1564L25.1564 54.3563L24.6564 54.359ZM24.6564 73.9846L25.1564 73.9873V73.9846H24.6564ZM24.0629 75.4065L24.4164 75.76H24.4165L24.0629 75.4065ZM22.641 76V76.5L22.6437 76.5L22.641 76ZM3.01542 76L3.01271 76.5H3.01542V76ZM1.5935 75.4065L1.23994 75.76H1.23995L1.5935 75.4065ZM1 73.9846H0.499993L0.500007 73.9873L1 73.9846ZM1 54.359L0.5 54.3563V54.359H1ZM1.5935 52.9371L1.94705 53.2906H1.94705L1.5935 52.9371ZM22.4648 73.7973V74.2973H22.9648V73.7973H22.4648ZM3.20264 73.7973H2.70264V74.2973H3.20264V73.7973ZM22.4648 54.5462H22.9648V54.0462H22.4648V54.5462ZM3.20264 54.5462V54.0462H2.70264V54.5462H3.20264ZM54.3591 1.5H73.9847V0.5H54.3591V1.5ZM53.2907 1.94705C53.575 1.66282 53.9599 1.50217 54.3618 1.49999L54.3564 0.500007C53.6911 0.503613 53.0541 0.769501 52.5836 1.23995L53.2907 1.94705ZM52.8437 3.01813C52.8459 2.61617 53.0065 2.23129 53.2907 1.94705L52.5836 1.23994C52.1132 1.71039 51.8473 2.34741 51.8437 3.01271L52.8437 3.01813ZM52.8437 22.641V3.01542H51.8437V22.641H52.8437ZM53.2907 23.7093C53.0065 23.4251 52.8459 23.0402 52.8437 22.6383L51.8437 22.6437C51.8473 23.309 52.1132 23.946 52.5836 24.4165L53.2907 23.7093ZM54.3618 24.1564C53.9599 24.1542 53.575 23.9936 53.2907 23.7093L52.5836 24.4165C53.0541 24.8869 53.6911 25.1528 54.3564 25.1564L54.3618 24.1564ZM73.9847 24.1564H54.3591V25.1564H73.9847V24.1564ZM75.053 23.7093C74.7688 23.9936 74.3839 24.1542 73.982 24.1564L73.9874 25.1564C74.6527 25.1528 75.2897 24.8869 75.7601 24.4164L75.053 23.7093ZM75.5001 22.6383C75.4979 23.0402 75.3373 23.4251 75.053 23.7093L75.7601 24.4165C76.2306 23.946 76.4965 23.309 76.5001 22.6437L75.5001 22.6383ZM75.5001 3.01542V22.641H76.5001V3.01542H75.5001ZM75.053 1.94705C75.3373 2.23129 75.4979 2.61616 75.5001 3.01813L76.5001 3.01271C76.4965 2.34741 76.2306 1.71039 75.7601 1.23994L75.053 1.94705ZM73.982 1.49999C74.3839 1.50217 74.7688 1.66282 75.053 1.94705L75.7601 1.23995C75.2897 0.7695 74.6527 0.503613 73.9874 0.500007L73.982 1.49999ZM54.5463 22.9648H73.7974V21.9648H54.5463V22.9648ZM54.0463 3.20264V22.4648H55.0463V3.20264H54.0463ZM73.7974 2.70264H54.5463V3.70264H73.7974V2.70264ZM74.2974 22.4648V3.20264H73.2974V22.4648H74.2974ZM12.8281 43.6916C13.2528 43.6916 13.6602 43.5229 13.9605 43.2226L13.2533 42.5155C13.1406 42.6282 12.9876 42.6916 12.8281 42.6916V43.6916ZM11.6958 43.2226C11.9961 43.5229 12.4034 43.6916 12.8281 43.6916V42.6916C12.6687 42.6916 12.5157 42.6282 12.403 42.5155L11.6958 43.2226ZM11.2268 42.0903C11.2268 42.515 11.3955 42.9223 11.6958 43.2226L12.4029 42.5155C12.2902 42.4027 12.2268 42.2497 12.2268 42.0903H11.2268ZM11.2268 18.0925V42.0903H12.2268V18.0925H11.2268ZM13.2248 13.2799C11.9484 14.5563 11.23 16.2865 11.2268 18.0916L12.2268 18.0933C12.2295 16.5529 12.8426 15.0763 13.9319 13.987L13.2248 13.2799ZM18.0365 11.2819C16.2315 11.285 14.5012 12.0035 13.2248 13.2799L13.9319 13.987C15.0212 12.8977 16.4978 12.2846 18.0383 12.2819L18.0365 11.2819ZM39.7114 11.2819H18.0374V12.2819H39.7114V11.2819ZM33.4988 6.2764L39.3579 12.1354L40.065 11.4283L34.2059 5.56929L33.4988 6.2764ZM33.0888 5.14468C33.0732 5.54769 33.2103 5.94174 33.4726 6.24807L34.2322 5.59762C34.1336 5.48259 34.0822 5.33462 34.088 5.18328L33.0888 5.14468ZM33.5566 4.07418C33.2714 4.35937 33.1043 4.74167 33.0888 5.14468L34.088 5.18327C34.0939 5.03194 34.1566 4.88838 34.2637 4.78129L33.5566 4.07418ZM34.6271 3.60636C34.2241 3.62192 33.8418 3.78899 33.5566 4.07418L34.2637 4.78129C34.3708 4.6742 34.5143 4.61146 34.6657 4.60561L34.6271 3.60636ZM35.7305 3.99021C35.4241 3.72787 35.0301 3.59079 34.6271 3.60636L34.6657 4.60561C34.817 4.59977 34.965 4.65124 35.08 4.74975L35.7305 3.99021ZM43.4681 11.7257L35.7588 4.01643L35.0517 4.72354L42.761 12.4328L43.4681 11.7257ZM43.9348 12.8557C43.9348 12.4326 43.7674 12.0268 43.4691 11.7267L42.7599 12.4317C42.8719 12.5444 42.9348 12.6968 42.9348 12.8557H43.9348ZM43.4691 13.9846C43.7674 13.6846 43.9348 13.2787 43.9348 12.8557H42.9348C42.9348 13.0145 42.8719 13.1669 42.7599 13.2796L43.4691 13.9846ZM35.7588 21.6949L43.4681 13.9857L42.761 13.2785L35.0517 20.9878L35.7588 21.6949ZM35.2661 22.0665C35.4648 21.9704 35.6415 21.8342 35.785 21.6666L35.0255 21.0161C34.9716 21.0791 34.9052 21.1302 34.8306 21.1663L35.2661 22.0665ZM34.6306 22.2251C34.8511 22.2166 35.0675 22.1626 35.2661 22.0665L34.8306 21.1663C34.756 21.2024 34.6748 21.2227 34.5919 21.2259L34.6306 22.2251ZM33.9846 22.116C34.1901 22.1965 34.41 22.2336 34.6305 22.2251L34.592 21.2259C34.5091 21.2291 34.4266 21.2151 34.3494 21.1849L33.9846 22.116ZM33.4364 21.7573C33.5925 21.9134 33.7791 22.0355 33.9846 22.116L34.3494 21.1849C34.2722 21.1546 34.2021 21.1088 34.1435 21.0502L33.4364 21.7573ZM33.0778 21.2091C33.1583 21.4146 33.2804 21.6012 33.4364 21.7573L34.1436 21.0502C34.0849 20.9916 34.0391 20.9215 34.0089 20.8443L33.0778 21.2091ZM32.9686 20.5632C32.9601 20.7837 32.9973 21.0036 33.0778 21.2091L34.0089 20.8443C33.9786 20.7672 33.9647 20.6846 33.9679 20.6018L32.9686 20.5632ZM33.1273 19.9276C33.0312 20.1263 32.9771 20.3427 32.9686 20.5632L33.9679 20.6018C33.9711 20.519 33.9914 20.4377 34.0275 20.3631L33.1273 19.9276ZM33.5272 19.4087C33.3595 19.5523 33.2234 19.7289 33.1273 19.9276L34.0275 20.3631C34.0635 20.2885 34.1147 20.2222 34.1776 20.1683L33.5272 19.4087ZM39.3579 13.5759L33.4988 19.4349L34.2059 20.142L40.065 14.283L39.3579 13.5759ZM18.0374 14.4295H39.7114V13.4295H18.0374V14.4295ZM15.4894 15.4894C16.1657 14.8131 17.0823 14.432 18.0387 14.4295L18.0361 13.4295C16.8153 13.4327 15.6455 13.9191 14.7823 14.7823L15.4894 15.4894ZM14.4295 18.0387C14.432 17.0823 14.8131 16.1657 15.4894 15.4894L14.7823 14.7823C13.9191 15.6455 13.4327 16.8153 13.4295 18.0361L14.4295 18.0387ZM14.4295 42.0903V18.0374H13.4295V42.0903H14.4295ZM13.9605 43.2226C14.2608 42.9223 14.4295 42.515 14.4295 42.0903H13.4295C13.4295 42.2497 13.3661 42.4027 13.2533 42.5155L13.9605 43.2226ZM64.1717 33.3084C63.747 33.3084 63.3397 33.4771 63.0394 33.7775L63.7465 34.4846C63.8593 34.3718 64.0122 34.3084 64.1717 34.3084V33.3084ZM65.304 33.7775C65.0037 33.4771 64.5964 33.3084 64.1717 33.3084V34.3084C64.3312 34.3084 64.4841 34.3718 64.5969 34.4846L65.304 33.7775ZM65.773 34.9098C65.773 34.4851 65.6043 34.0778 65.304 33.7774L64.5969 34.4846C64.7097 34.5973 64.773 34.7503 64.773 34.9098H65.773ZM65.773 58.9626V34.9098H64.773V58.9626H65.773ZM63.7751 63.7752C65.0514 62.4988 65.7699 60.7686 65.773 58.9635L64.773 58.9618C64.7704 60.5022 64.1572 61.9788 63.0679 63.0681L63.7751 63.7752ZM58.9633 65.7732C60.7684 65.7701 62.4987 65.0516 63.7751 63.7752L63.0679 63.0681C61.9787 64.1574 60.5021 64.7705 58.9616 64.7732L58.9633 65.7732ZM37.3435 65.7732H58.9625V64.7732H37.3435V65.7732ZM43.4997 70.6782L37.6957 64.9183L36.9913 65.6281L42.7953 71.388L43.4997 70.6782ZM43.9111 71.8113C43.9267 71.4083 43.7896 71.0142 43.5273 70.7079L42.7677 71.3583C42.8662 71.4734 42.9177 71.6213 42.9119 71.7727L43.9111 71.8113ZM43.4433 72.8818C43.7285 72.5966 43.8955 72.2143 43.9111 71.8113L42.9119 71.7727C42.906 71.924 42.8433 72.0676 42.7362 72.1747L43.4433 72.8818ZM42.3728 73.3496C42.7758 73.334 43.1581 73.167 43.4433 72.8818L42.7362 72.1747C42.6291 72.2818 42.4855 72.3445 42.3342 72.3503L42.3728 73.3496ZM41.2694 72.9657C41.5757 73.2281 41.9698 73.3652 42.3728 73.3496L42.3342 72.3503C42.1828 72.3562 42.0349 72.3047 41.9198 72.2062L41.2694 72.9657ZM33.5318 65.2303L41.2411 72.9395L41.9482 72.2324L34.2389 64.5232L33.5318 65.2303ZM33.0651 64.1003C33.0651 64.5233 33.2325 64.9292 33.5308 65.2292L34.24 64.5242C34.128 64.4116 34.0651 64.2591 34.0651 64.1003H33.0651ZM33.5308 62.9714C33.2325 63.2714 33.0651 63.6772 33.0651 64.1003H34.0651C34.0651 63.9414 34.128 63.789 34.24 63.6764L33.5308 62.9714ZM41.2411 55.2611L33.5318 62.9703L34.2389 63.6774L41.9482 55.9682L41.2411 55.2611ZM42.3728 54.851C41.9698 54.8354 41.5757 54.9725 41.2694 55.2348L41.9198 55.9944C42.0349 55.8959 42.1828 55.8444 42.3342 55.8502L42.3728 54.851ZM43.4433 55.3188C43.1581 55.0336 42.7758 54.8665 42.3728 54.851L42.3342 55.8502C42.4855 55.8561 42.6291 55.9188 42.7362 56.0259L43.4433 55.3188ZM43.9111 56.3893C43.8955 55.9863 43.7285 55.604 43.4433 55.3188L42.7362 56.0259C42.8433 56.133 42.906 56.2766 42.9119 56.4279L43.9111 56.3893ZM43.5273 57.4927C43.7896 57.1864 43.9267 56.7923 43.9111 56.3893L42.9119 56.4279C42.9177 56.5792 42.8662 56.7272 42.7677 56.8422L43.5273 57.4927ZM37.7 63.4211L43.504 57.518L42.7909 56.8169L36.987 62.72L37.7 63.4211ZM58.9625 62.5706H37.3435V63.5706H58.9625V62.5706ZM61.5104 61.5106C60.8341 62.1869 59.9176 62.568 58.9611 62.5706L58.9638 63.5706C60.1845 63.5673 61.3544 63.0809 62.2175 62.2177L61.5104 61.5106ZM62.5704 58.9613C62.5678 59.9177 62.1868 60.8343 61.5104 61.5106L62.2175 62.2177C63.0807 61.3545 63.5671 60.1847 63.5704 58.964L62.5704 58.9613ZM62.5704 34.9098V58.9626H63.5704V34.9098H62.5704ZM63.0394 33.7774C62.7391 34.0778 62.5704 34.4851 62.5704 34.9098H63.5704C63.5704 34.7503 63.6337 34.5973 63.7465 34.4846L63.0394 33.7774ZM22.641 51.8436H3.01542V52.8436H22.641V51.8436ZM24.4165 52.5835C23.946 52.1131 23.309 51.8472 22.6437 51.8436L22.6383 52.8436C23.0402 52.8458 23.4251 53.0064 23.7093 53.2906L24.4165 52.5835ZM25.1564 54.3563C25.1528 53.691 24.8869 53.054 24.4165 52.5835L23.7093 53.2906C23.9936 53.5749 24.1542 53.9598 24.1564 54.3617L25.1564 54.3563ZM25.1564 73.9846V54.359H24.1564V73.9846H25.1564ZM24.4165 75.76C24.8869 75.2896 25.1528 74.6526 25.1564 73.9873L24.1564 73.9818C24.1542 74.3838 23.9936 74.7687 23.7093 75.0529L24.4165 75.76ZM22.6437 76.5C23.309 76.4964 23.946 76.2305 24.4164 75.76L23.7093 75.0529C23.4251 75.3372 23.0402 75.4978 22.6383 75.5L22.6437 76.5ZM3.01542 76.5H22.641V75.5H3.01542V76.5ZM1.23995 75.76C1.71039 76.2305 2.34741 76.4964 3.01271 76.5L3.01813 75.5C2.61616 75.4978 2.23128 75.3372 1.94705 75.0529L1.23995 75.76ZM0.500007 73.9873C0.503613 74.6526 0.769501 75.2896 1.23994 75.76L1.94705 75.0529C1.66282 74.7687 1.50217 74.3838 1.49999 73.9818L0.500007 73.9873ZM0.5 54.359V73.9846H1.5V54.359H0.5ZM1.23995 52.5835C0.769501 53.054 0.503613 53.691 0.500007 54.3563L1.49999 54.3617C1.50217 53.9598 1.66282 53.5749 1.94705 53.2906L1.23995 52.5835ZM3.01271 51.8436C2.34741 51.8472 1.71039 52.1131 1.23994 52.5835L1.94705 53.2906C2.23129 53.0064 2.61617 52.8458 3.01813 52.8436L3.01271 51.8436ZM22.4648 73.2973H3.20264V74.2973H22.4648V73.2973ZM21.9648 54.5462V73.7973H22.9648V54.5462H21.9648ZM3.20264 55.0462H22.4648V54.0462H3.20264V55.0462ZM3.70264 73.7973V54.5462H2.70264V73.7973H3.70264Z" fill="#F9DF00"/>
</svg>
