<svg width="82" height="64" viewBox="0 0 82 64" fill="none" xmlns="http://www.w3.org/2000/svg">
<path fill-rule="evenodd" clip-rule="evenodd" d="M45.0895 4.19437H53.4783C54.6317 4.19437 55.5755 3.25064 55.5755 2.09719C55.5755 0.943734 54.6317 0 53.4783 0H45.0895C43.9361 0 42.9923 0.943734 42.9923 2.09719C42.9923 3.25064 43.9361 4.19437 45.0895 4.19437ZM53.4783 12.5831H45.0895C43.9361 12.5831 42.9923 11.6394 42.9923 10.4859C42.9923 9.33248 43.9361 8.38875 45.0895 8.38875H53.4783C54.6317 8.38875 55.5755 9.33248 55.5755 10.4859C55.5755 11.6394 54.6317 12.5831 53.4783 12.5831ZM28.312 20.9719H36.7008C37.8542 20.9719 38.798 20.0281 38.798 18.8747C38.798 17.7212 37.8542 16.7775 36.7008 16.7775H28.312C27.1586 16.7775 26.2148 17.7212 26.2148 18.8747C26.2148 20.0281 27.1586 20.9719 28.312 20.9719ZM36.7008 29.3606H28.312C27.1586 29.3606 26.2148 28.4169 26.2148 27.2634C26.2148 26.11 27.1586 25.1662 28.312 25.1662H36.7008C37.8542 25.1662 38.798 26.11 38.798 27.2634C38.798 28.4169 37.8542 29.3606 36.7008 29.3606ZM0 61.867C0 63.0205 0.943734 63.9642 2.09719 63.9642H18.8747C20.0276 63.9642 20.971 63.0213 20.9719 61.8685H59.1407C59.665 61.8685 60.1893 61.6588 60.6087 61.2394L80.0077 42.5744C81.266 41.3161 82 39.6384 82 37.9606C82 36.0731 81.1611 34.3954 79.798 33.1371C78.4348 31.8788 76.5473 31.3545 74.7647 31.5642H74.555C73.7161 31.669 72.9821 31.9836 72.1432 32.4031L58.6493 40.7133C58.6248 39.6722 58.3733 38.6264 57.8824 37.6445C56.624 35.1279 54.1074 33.555 51.2762 33.555H20.9719V32.5064C20.9719 31.3529 20.0281 30.4092 18.8747 30.4092H2.09719C0.943734 30.4092 0 31.3529 0 32.5064V61.867ZM16.7775 35.6522V34.6036H4.19437V59.7698H16.7775V35.6522ZM20.9719 57.6742V37.7426L51.2762 37.6445C52.5345 37.6445 53.5831 38.3785 54.1074 39.4271C54.6317 40.5806 54.5269 41.8389 53.7928 42.7826C53.7393 42.8515 53.6908 42.922 53.6472 42.9939H31.4578C30.3043 42.9939 29.3606 43.9376 29.3606 45.091C29.3606 46.2445 30.3043 47.1882 31.4578 47.1882H55.5755C55.89 47.1882 56.3095 47.0834 56.624 46.8736L74.3453 35.9683C74.6599 35.7586 74.8696 35.6537 75.1841 35.6537H75.3939C76.023 35.5488 76.5473 35.7586 77.0716 36.178C77.4911 36.5974 77.8056 37.2266 77.8056 37.8557C77.8056 38.4849 77.5959 39.0092 77.1765 39.4286L58.3018 57.6742H20.9719ZM53.4783 29.3606H45.0895C43.9361 29.3606 42.9923 28.4169 42.9923 27.2634C42.9923 26.11 43.9361 25.1662 45.0895 25.1662H53.4783C54.6317 25.1662 55.5755 26.11 55.5755 27.2634C55.5755 28.4169 54.6317 29.3606 53.4783 29.3606ZM45.0895 20.9719H53.4783C54.6317 20.9719 55.5755 20.0281 55.5755 18.8747C55.5755 17.7212 54.6317 16.7775 53.4783 16.7775H45.0895C43.9361 16.7775 42.9923 17.7212 42.9923 18.8747C42.9923 20.0281 43.9361 20.9719 45.0895 20.9719ZM70.2558 29.3606H61.867C60.7136 29.3606 59.7698 28.4169 59.7698 27.2634C59.7698 26.11 60.7136 25.1662 61.867 25.1662H70.2558C71.4092 25.1662 72.3529 26.11 72.3529 27.2634C72.3529 28.4169 71.4092 29.3606 70.2558 29.3606ZM61.867 20.9719H70.2558C71.4092 20.9719 72.3529 20.0281 72.3529 18.8747C72.3529 17.7212 71.4092 16.7775 70.2558 16.7775H61.867C60.7136 16.7775 59.7698 17.7212 59.7698 18.8747C59.7698 20.0281 60.7136 20.9719 61.867 20.9719ZM70.2558 12.5831H61.867C60.7136 12.5831 59.7698 11.6394 59.7698 10.4859C59.7698 9.33248 60.7136 8.38875 61.867 8.38875H70.2558C71.4092 8.38875 72.3529 9.33248 72.3529 10.4859C72.3529 11.6394 71.4092 12.5831 70.2558 12.5831ZM8.38875 53.4783C8.38875 52.3248 9.33248 51.3811 10.4859 51.3811C11.6394 51.3811 12.5831 52.3248 12.5831 53.4783C12.5831 54.6317 11.6394 55.5755 10.4859 55.5755C9.33248 55.5755 8.38875 54.6317 8.38875 53.4783Z" fill="#F9DF00"/>
</svg>
