<svg width="12" height="12" viewBox="0 0 12 12" fill="none" xmlns="http://www.w3.org/2000/svg">
<path d="M0.320039 5.8C0.320039 5.5 0.400039 5.25 0.560039 5.05C0.720039 4.83 0.930039 4.72 1.19004 4.72H4.91004V1C4.91004 0.759999 5.02004 0.549999 5.24004 0.369999C5.46004 0.19 5.72004 0.0999998 6.02004 0.0999998C6.32004 0.0999998 6.57004 0.19 6.77004 0.369999C6.97004 0.549999 7.07004 0.759999 7.07004 1V4.72H10.79C11.03 4.72 11.24 4.83 11.42 5.05C11.6 5.25 11.69 5.5 11.69 5.8C11.69 6.1 11.6 6.35 11.42 6.55C11.24 6.75 11.03 6.85 10.79 6.85H7.07004V10.6C7.07004 10.86 6.97004 11.07 6.77004 11.23C6.59004 11.39 6.34004 11.47 6.02004 11.47C5.70004 11.47 5.43004 11.39 5.21004 11.23C5.01004 11.07 4.91004 10.86 4.91004 10.6V6.85H1.19004C0.930039 6.85 0.720039 6.76 0.560039 6.58C0.400039 6.38 0.320039 6.12 0.320039 5.8Z" fill="#00DEE6"/>
</svg>
