<svg width="12" height="12" viewBox="0 0 12 12" fill="none" xmlns="http://www.w3.org/2000/svg">
<path d="M6.02285 11.47C5.72285 11.47 5.46285 11.39 5.24285 11.23C5.02285 11.07 4.91285 10.86 4.91285 10.6V6.85H1.19285C0.932852 6.85 0.722852 6.75 0.562852 6.55C0.402852 6.35 0.322852 6.1 0.322852 5.8C0.322852 5.48 0.402852 5.22 0.562852 5.02C0.722852 4.82 0.932852 4.72 1.19285 4.72H4.91285V1C4.91285 0.78 5.02285 0.58 5.24285 0.399999C5.46285 0.2 5.72285 0.0999998 6.02285 0.0999998C6.34285 0.0999998 6.59285 0.2 6.77285 0.399999C6.97285 0.58 7.07285 0.78 7.07285 1V4.72H10.7929C11.0129 4.72 11.2129 4.82 11.3929 5.02C11.5929 5.22 11.6929 5.48 11.6929 5.8C11.6929 6.1 11.5929 6.35 11.3929 6.55C11.2129 6.75 11.0129 6.85 10.7929 6.85H7.07285V10.6C7.07285 10.86 6.97285 11.07 6.77285 11.23C6.59285 11.39 6.34285 11.47 6.02285 11.47Z" fill="#1D0E6B"/>
</svg>
