<svg width="16" height="16" viewBox="0 0 16 16" fill="none" xmlns="http://www.w3.org/2000/svg">
<path fill-rule="evenodd" clip-rule="evenodd" d="M13.3333 4C14.0698 4 14.6667 3.40297 14.6667 2.66666C14.6667 1.93036 14.0698 1.33333 13.3333 1.33333C12.5969 1.33333 12 1.93036 12 2.66666C12 3.40297 12.5969 4 13.3333 4ZM13.3333 5.33333C14.8061 5.33333 16 4.13942 16 2.66666C16 1.1939 14.8061 0 13.3333 0C11.8606 0 10.6667 1.1939 10.6667 2.66666C10.6667 2.75059 10.6706 2.83363 10.6782 2.91562L4.45876 6.0253C3.98524 5.59539 3.35652 5.33334 2.66665 5.33334C1.1939 5.33334 0 6.52724 0 8C0 9.47276 1.1939 10.6667 2.66665 10.6667C3.35652 10.6667 3.98524 10.4046 4.45876 9.9747L10.6782 13.0844C10.6706 13.1664 10.6667 13.2494 10.6667 13.3333C10.6667 14.8061 11.8606 16 13.3333 16C14.8061 16 16 14.8061 16 13.3333C16 11.8606 14.8061 10.6667 13.3333 10.6667C12.4214 10.6667 11.6166 11.1243 11.1356 11.8225L5.1943 8.85182C5.28448 8.58441 5.33329 8.29795 5.33329 8.00005C5.33329 7.70214 5.28448 7.41567 5.1943 7.14827L11.1356 4.17761C11.6166 4.87567 12.4215 5.33333 13.3333 5.33333ZM13.3333 14.6667C14.0698 14.6667 14.6667 14.0698 14.6667 13.3333C14.6667 12.5969 14.0698 12 13.3333 12C12.5969 12 12 12.5969 12 13.3333C12 14.0698 12.5969 14.6667 13.3333 14.6667ZM4.00006 7.99999C4.00006 8.7363 3.40304 9.33333 2.66674 9.33333C1.93044 9.33333 1.33341 8.7363 1.33341 7.99999C1.33341 7.26369 1.93044 6.66666 2.66674 6.66666C3.40304 6.66666 4.00006 7.26369 4.00006 7.99999Z" fill="#1D0E6B"/>
</svg>
