<svg width="82" height="82" viewBox="0 0 82 82" fill="none" xmlns="http://www.w3.org/2000/svg">
<path fill-rule="evenodd" clip-rule="evenodd" d="M82 41C82 63.6074 63.6074 82 41 82C18.3926 82 0 63.6074 0 41C0 18.3926 18.3926 0 41 0C41.7544 0 42.3667 0.612267 42.3667 1.36667V24.6H45.1V12.3C45.1 11.5456 45.7123 10.9333 46.4667 10.9333H49.2V7.94853C47.6133 7.38273 46.4667 5.8794 46.4667 4.1C46.4667 1.83953 48.3062 0 50.5667 0C52.8271 0 54.6667 1.83953 54.6667 4.1C54.6667 5.8794 53.52 7.38273 51.9333 7.94853V12.3C51.9333 13.0544 51.3211 13.6667 50.5667 13.6667H47.8333V24.6H51.9333V17.7667C51.9333 17.0123 52.5456 16.4 53.3 16.4H56.0333V8.2C56.0333 7.4456 56.6456 6.83333 57.4 6.83333H61.7515C62.3173 5.24663 63.8206 4.1 65.6 4.1C67.8605 4.1 69.7 5.93953 69.7 8.2C69.7 10.4605 67.8605 12.3 65.6 12.3C63.8206 12.3 62.3173 11.1534 61.7515 9.56667H58.7667V17.7667C58.7667 18.5211 58.1544 19.1333 57.4 19.1333H54.6667V24.6H56.0333C56.7877 24.6 57.4 25.2123 57.4 25.9667V27.3333H62.8667V17.7667C62.8667 17.0123 63.4789 16.4 64.2333 16.4H71.3181C71.8839 14.8133 73.3873 13.6667 75.1667 13.6667C77.4271 13.6667 79.2667 15.5062 79.2667 17.7667C79.2667 20.0271 77.4271 21.8667 75.1667 21.8667C73.3873 21.8667 71.8839 20.72 71.3181 19.1333H65.6V28.7C65.6 29.4544 64.9877 30.0667 64.2333 30.0667H57.4V34.1667H68.3333V30.0667C68.3333 29.3123 68.9456 28.7 69.7 28.7H74.0515C74.6173 27.1133 76.1206 25.9667 77.9 25.9667C80.1605 25.9667 82 27.8062 82 30.0667C82 32.3271 80.1605 34.1667 77.9 34.1667C76.1206 34.1667 74.6173 33.02 74.0515 31.4333H71.0667V35.5333C71.0667 36.2877 70.4544 36.9 69.7 36.9H57.4V39.6333H80.6333C81.3877 39.6333 82 40.2456 82 41ZM79.2667 30.0667C79.2667 29.3136 78.653 28.7 77.9 28.7C77.147 28.7 76.5333 29.3136 76.5333 30.0667C76.5333 30.8197 77.147 31.4333 77.9 31.4333C78.653 31.4333 79.2667 30.8197 79.2667 30.0667ZM76.5333 17.7667C76.5333 17.0136 75.9197 16.4 75.1667 16.4C74.4136 16.4 73.8 17.0136 73.8 17.7667C73.8 18.5197 74.4136 19.1333 75.1667 19.1333C75.9197 19.1333 76.5333 18.5197 76.5333 17.7667ZM66.9667 8.2C66.9667 7.44697 66.353 6.83333 65.6 6.83333C64.847 6.83333 64.2333 7.44697 64.2333 8.2C64.2333 8.95303 64.847 9.56667 65.6 9.56667C66.353 9.56667 66.9667 8.95303 66.9667 8.2ZM51.9333 4.1C51.9333 3.34697 51.3197 2.73333 50.5667 2.73333C49.8136 2.73333 49.2 3.34697 49.2 4.1C49.2 4.85303 49.8136 5.46667 50.5667 5.46667C51.3197 5.46667 51.9333 4.85303 51.9333 4.1ZM18.6987 72.0671C24.9827 76.5907 32.6825 79.2667 41 79.2667C54.5532 79.2667 66.4829 72.1846 73.2834 61.5273L72.6137 58.4127C72.5686 58.1872 72.4689 58.0027 72.3144 57.8483L70.0184 55.5523C69.6727 55.2051 69.1287 55.1136 68.6982 55.3295L65.38 56.9955C64.7855 57.2702 64.2156 57.4 63.6457 57.4H61.9373C60.2686 57.4 58.7926 56.3326 58.2624 54.7432L57.907 53.6772C57.784 53.3041 57.482 53.0253 57.1007 52.931L53.2658 51.9593C53.2609 51.9586 53.2552 51.9578 53.2488 51.9568C53.1939 51.9487 53.0898 51.9333 52.9857 51.9333H46.1387C45.8298 51.9333 45.5496 52.0495 45.3282 52.2709L43.7429 53.8562C43.296 54.3031 43.296 55.0302 43.7429 55.4771L44.9729 56.7071C46.0157 57.7499 46.3724 59.2696 45.905 60.6745L43.855 66.8368C43.6664 67.4026 43.3397 67.9274 42.9092 68.3566L39.9709 71.2949C39.237 72.0288 38.2626 72.4333 37.228 72.4333H30.504C28.8353 72.4333 27.3593 71.366 26.8304 69.7765C26.5024 68.7953 26.5776 67.7457 27.0409 66.8191C27.5028 65.8938 28.2982 65.205 29.2795 64.877L29.6881 64.7404C30.0612 64.6174 30.34 64.3153 30.4343 63.934L31.052 61.5164C31.1627 61.049 30.9755 60.5584 30.5696 60.2891L28.8695 59.1507C28.6057 58.973 28.2668 58.9156 27.9647 58.9963L24.2351 59.9283C24.0274 59.9803 23.8552 60.0773 23.7076 60.2249L20.8376 63.0949C20.6162 63.3163 20.5 63.5965 20.5 63.9053V68.6613C20.5 69.6959 20.0955 70.6703 19.3616 71.4042L18.6987 72.0671ZM54.6667 39.6333V27.3333H42.3667V30.0667H50.5667C51.3211 30.0667 51.9333 30.6789 51.9333 31.4333V39.6333H54.6667ZM49.2 32.8H42.3667V39.6333H49.2V32.8ZM79.2421 42.3667H41C40.2456 42.3667 39.6333 41.7544 39.6333 41V2.75793C33.6897 2.96703 28.0918 4.54553 23.1336 7.17637L24.5276 7.6424C26.2086 8.21503 27.3333 9.7785 27.3333 11.5347V11.972C27.3333 12.4927 27.6244 12.9601 28.0946 13.1952C28.4636 13.3797 28.9364 13.3797 29.3054 13.1952L29.6526 13.0366C30.8785 12.4175 32.3668 12.4804 33.5831 13.2293C34.8035 13.981 35.5333 15.2889 35.5333 16.728V18.532C35.5333 20.2882 34.4086 21.8516 32.7358 22.4229L32.3422 22.5445C31.8133 22.7249 31.4333 23.2484 31.4333 23.8347V24.6C31.4333 26.8605 29.5938 28.7 27.3333 28.7H27.101C26.0049 28.7 24.9717 28.2722 24.1941 27.4932L23.0734 26.3726C22.811 26.1102 22.4653 25.9667 22.099 25.9667H18.1083C17.9908 25.9667 17.8828 25.9803 17.7721 26.0077L14.0944 26.9233C13.638 27.0395 13.2703 27.3784 13.1186 27.8267L12.2672 30.3796C12.2549 30.4275 12.2412 30.4726 12.233 30.4972L11.5921 33.0884C11.4991 33.4546 11.5606 33.8264 11.7602 34.1434C11.9638 34.4646 12.2781 34.6805 12.6485 34.753L15.9627 35.424C16.18 35.4595 16.4301 35.4445 16.6542 35.3707L17.82 34.9867C19.7306 34.343 21.8708 35.2217 22.7878 37.0353L22.9491 37.3879C23.4875 38.4443 23.5149 39.7331 22.9983 40.8688C22.4776 42.0113 21.4799 42.8423 20.2608 43.147L19.8467 43.2536C19.3165 43.3903 18.9106 43.8304 18.8135 44.3716L18.5293 46.0881C18.2874 47.5532 17.3116 48.7394 15.9176 49.2588C15.442 49.4364 14.9541 49.5225 14.4703 49.5225C13.5355 49.5225 12.6184 49.1973 11.864 48.57L8.5813 45.8189C8.19727 45.5032 7.66153 45.4184 7.18867 45.6043L3.24037 47.1814C4.7519 56.4515 9.6022 64.6119 16.5175 70.3833L17.4291 69.4718C17.6505 69.2504 17.7667 68.9702 17.7667 68.6613V63.9053C17.7667 62.8708 18.1712 61.8963 18.9051 61.1624L21.7751 58.2924C22.2685 57.7991 22.8889 57.4478 23.5709 57.277L27.2882 56.3477C28.3447 56.0716 29.4804 56.2657 30.3933 56.882L32.0839 58.0136C33.43 58.9047 34.0833 60.5761 33.7061 62.171L33.0856 64.5996C32.7686 65.8856 31.8201 66.912 30.5532 67.3343L30.1446 67.471C29.8548 67.5666 29.6211 67.7703 29.4845 68.0422C29.3492 68.3156 29.3273 68.6244 29.423 68.9128C29.5801 69.3843 30.0147 69.7 30.504 69.7H37.228C37.5369 69.7 37.817 69.5838 38.0371 69.3624L40.9754 66.4241C41.1052 66.2929 41.2064 66.133 41.261 65.9717L43.311 59.8108C43.4477 59.4008 43.3411 58.9402 43.0404 58.6396L41.8104 57.4096C40.2975 55.8967 40.2975 53.4353 41.8104 51.9238L43.3958 50.3384C44.1297 49.6045 45.1041 49.2 46.1387 49.2H52.9857C53.2781 49.2 53.572 49.2355 53.8672 49.2929L57.7635 50.2797C59.0523 50.5981 60.0787 51.5466 60.501 52.8135L60.8563 53.8795C61.0135 54.351 61.4481 54.6667 61.9373 54.6667H63.6457C63.8138 54.6667 64.0051 54.6202 64.1937 54.5327L67.4737 52.8845C68.9688 52.1383 70.7674 52.4335 71.9509 53.6184L74.2469 55.9144C74.7826 56.4502 75.1434 57.1212 75.2897 57.8565L75.3047 57.9275C77.6444 53.2043 79.0453 47.9372 79.2421 42.3667ZM23.6529 10.2322L20.0244 9.01863C9.61997 15.8656 2.73333 27.6408 2.73333 41C2.73333 42.1384 2.79347 43.2632 2.88777 44.3784L6.17323 43.0664C7.57133 42.5102 9.16077 42.7603 10.3238 43.7183L13.612 46.4721C14.1587 46.9272 14.7354 46.7837 14.9582 46.699C15.1809 46.617 15.7126 46.3478 15.8274 45.6453L16.1144 43.9083C16.4027 42.2997 17.5958 41.0123 19.1566 40.6078L19.5816 40.4971C19.9984 40.3932 20.3319 40.1158 20.5055 39.7345C20.6052 39.5144 20.7364 39.0716 20.4822 38.5728L20.3196 38.2175C20.0312 37.6503 19.3288 37.3606 18.6796 37.5806L17.5097 37.966C16.8592 38.1819 16.1431 38.2325 15.4502 38.1095L12.11 37.433C11.0194 37.2184 10.045 36.5515 9.4464 35.603C8.84917 34.6573 8.66467 33.4984 8.938 32.4214L9.57897 29.833C9.58853 29.7988 9.62543 29.669 9.63637 29.6362L10.5247 26.9561C10.9784 25.6195 12.0622 24.6191 13.4261 24.2734L17.1079 23.3563C17.4373 23.273 17.7653 23.2333 18.1083 23.2333H22.099C23.1951 23.2333 24.2283 23.6611 25.0059 24.4401L26.1266 25.5608C26.389 25.8232 26.7347 25.9667 27.101 25.9667H27.3333C28.0864 25.9667 28.7 25.353 28.7 24.6V23.8347C28.7 22.0785 29.8248 20.515 31.4976 19.9438L31.8912 19.8221C32.4201 19.6417 32.8 19.1183 32.8 18.532V16.728C32.8 16.0324 32.3449 15.677 32.1508 15.5581C31.9568 15.4392 31.4429 15.1946 30.8334 15.5035L30.4821 15.6634C29.4462 16.1841 28.0016 16.2059 26.8728 15.6415C25.4706 14.9404 24.6 13.5341 24.6 11.972V11.5347C24.6 10.9484 24.2201 10.4249 23.6529 10.2322ZM35.5334 42.3221L38.0248 44.1903C38.8885 44.8381 39.371 45.87 39.3149 46.9483C39.2589 48.0266 38.6726 49.0037 37.746 49.5586L34.5548 51.4733C34.0355 51.7849 33.4601 51.9366 32.8875 51.9366C32.0511 51.9366 31.2243 51.6113 30.5983 50.9854L28.2818 48.6689C27.481 47.8708 27.1543 46.6927 27.429 45.5939L28.413 41.6593C28.5552 41.0894 28.8517 40.5673 29.2672 40.1532L29.8029 39.6175C30.7336 38.6881 32.1181 38.4121 33.333 38.915C34.548 39.4179 35.3325 40.5933 35.3325 41.908V41.9176C35.3325 42.0761 35.4076 42.2278 35.5334 42.3221ZM33.1499 49.1295L36.3411 47.2148C36.542 47.0945 36.5816 46.9073 36.5857 46.8048C36.5912 46.705 36.572 46.5164 36.3848 46.3756L33.8947 44.5074C33.0829 43.8992 32.5991 42.9303 32.5991 41.9162V41.9066C32.5991 41.6114 32.4023 41.4871 32.2862 41.4392C32.2356 41.4187 32.1632 41.3969 32.0812 41.3969C31.9759 41.3969 31.8529 41.4324 31.7368 41.5486L31.1983 42.0857C31.1327 42.1499 31.0876 42.2305 31.0657 42.3194L30.0817 46.2554C30.0394 46.4262 30.0899 46.6107 30.2143 46.7351L32.5322 49.0529C32.6962 49.2183 32.9504 49.2484 33.1499 49.1295Z" fill="#F9DF00"/>
</svg>
