<svg width="30" height="30" viewBox="0 0 30 30" fill="none" xmlns="http://www.w3.org/2000/svg">
<path d="M0.5 4C0.5 2.067 2.067 0.5 4 0.5H26C27.933 0.5 29.5 2.067 29.5 4V26C29.5 27.933 27.933 29.5 26 29.5H4C2.067 29.5 0.5 27.933 0.5 26V4Z" fill="#00DEE6" stroke="#00DEE6"/>
<path d="M8.60559 8.82788V8.82771H20.1723V10.2833H8.55559C8.14564 10.2833 7.82788 9.96552 7.82788 9.55559C7.82788 9.14567 8.14567 8.82788 8.55559 8.82788H8.60559ZM22.5056 11.6944V13.5888H16.9167C16.3573 13.5888 15.8945 14.0516 15.8945 14.611V17.7222C15.8945 18.2816 16.3573 18.7444 16.9167 18.7444H22.5056V20.6389C22.5056 20.9411 22.2745 21.1723 21.9723 21.1723H8.36115C8.0589 21.1723 7.82778 20.9411 7.82778 20.6389L7.82788 10.9827C8.04645 11.0953 8.29383 11.161 8.55559 11.161H8.55564C11.5571 11.1583 14.9778 11.1593 18.045 11.1602C19.4536 11.1606 20.7876 11.161 21.9723 11.161C22.2745 11.161 22.5056 11.3921 22.5056 11.6944ZM16.9168 14.4664H22.5057V17.8664H16.9168C16.8715 17.8664 16.836 17.8508 16.8119 17.8267C16.7879 17.8027 16.7723 17.7672 16.7723 17.7219V14.6107C16.7723 14.5654 16.7879 14.5299 16.8119 14.5059C16.8345 14.4833 16.8671 14.4682 16.9084 14.4664H16.9168ZM8.55559 7.95C7.67294 7.95 6.95 8.67294 6.95 9.55559V20.6389C6.95 21.4139 7.58614 22.05 8.36108 22.05H21.9722C22.7471 22.05 23.3833 21.4139 23.3833 20.6389V11.6945C23.3833 10.9195 22.7471 10.2834 21.9722 10.2834H21.05V8.38896C21.05 8.15776 20.8423 7.9501 20.6111 7.9501L8.55559 7.95ZM18.8612 15.1382C18.3012 15.1382 17.839 15.6004 17.839 16.1604C17.839 16.7204 18.3012 17.1826 18.8612 17.1826C19.4212 17.1826 19.8834 16.7204 19.8834 16.1604C19.8834 15.6004 19.4212 15.1382 18.8612 15.1382ZM18.8612 16.0159C18.9456 16.0159 19.0057 16.0759 19.0057 16.1604C19.0057 16.2448 18.9456 16.3049 18.8612 16.3049C18.7768 16.3049 18.7167 16.2448 18.7167 16.1604C18.7167 16.0759 18.7768 16.0159 18.8612 16.0159Z" fill="#000A35" stroke="#000A35" stroke-width="0.1"/>
</svg>
