<svg width="91" height="39" viewBox="0 0 91 39" fill="none" xmlns="http://www.w3.org/2000/svg">
<path fill-rule="evenodd" clip-rule="evenodd" d="M38.2903 20.3922C37.8246 30.2885 29.6537 38.1689 19.6422 38.1689C9.33157 38.1689 0.973145 29.8105 0.973145 19.4999C0.973145 9.18924 9.33157 0.830811 19.6422 0.830811C29.2403 0.830811 37.1466 8.07382 38.1936 17.3922H56.2264V5.42358C56.2306 4.66173 56.535 3.93225 57.0738 3.39354C57.6125 2.85482 58.3419 2.55034 59.1038 2.54621H87.1227C87.8846 2.55034 88.614 2.85482 89.1527 3.39354C89.6915 3.93225 89.9959 4.66173 90.0001 5.42358V33.4425C89.9959 34.2043 89.6915 34.9338 89.1527 35.4725C88.614 36.0112 87.8846 36.3157 87.1227 36.3198H59.1038C58.3419 36.3157 57.6125 36.0112 57.0738 35.4725C56.535 34.9338 56.2306 34.2043 56.2264 33.4425V20.3922H38.2903ZM34.7855 20.3922C34.3236 28.3545 27.7203 34.6689 19.6422 34.6689C11.2646 34.6689 4.47314 27.8775 4.47314 19.4999C4.47314 11.1222 11.2646 4.33081 19.6422 4.33081C27.3047 4.33081 33.6401 10.0122 34.666 17.3922H22.5C21.6716 17.3922 21 18.0638 21 18.8922C21 19.7206 21.6716 20.3922 22.5 20.3922H34.7855ZM59.3711 20.3922V33.1909H86.8554V5.69087H59.3711V17.3922H73.6071C74.4355 17.3922 75.1071 18.0638 75.1071 18.8922C75.1071 19.7206 74.4355 20.3922 73.6071 20.3922H59.3711Z" fill="#F9DF00"/>
<path d="M38.2903 20.3922V20.0922H38.0041L37.9907 20.3781L38.2903 20.3922ZM38.1936 17.3922L37.8955 17.4257L37.9254 17.6922H38.1936V17.3922ZM56.2264 17.3922V17.6922H56.5264V17.3922H56.2264ZM56.2264 5.42358L55.9264 5.42195V5.42358H56.2264ZM57.0738 3.39354L56.8616 3.18141V3.18141L57.0738 3.39354ZM59.1038 2.54621V2.24621L59.1022 2.24622L59.1038 2.54621ZM87.1227 2.54621L87.1243 2.24621H87.1227V2.54621ZM89.1527 3.39354L89.3649 3.18141V3.18141L89.1527 3.39354ZM90.0001 5.42358H90.3001L90.3001 5.42195L90.0001 5.42358ZM90.0001 33.4425L90.3001 33.4441V33.4425H90.0001ZM89.1527 35.4725L89.3649 35.6847L89.1527 35.4725ZM87.1227 36.3198V36.6199L87.1243 36.6198L87.1227 36.3198ZM59.1038 36.3198L59.1022 36.6198H59.1038V36.3198ZM56.2264 33.4425H55.9264L55.9264 33.4441L56.2264 33.4425ZM56.2264 20.3922H56.5264V20.0922H56.2264V20.3922ZM34.7855 20.3922L35.085 20.4096L35.1034 20.0922H34.7855V20.3922ZM34.666 17.3922V17.6922H35.0106L34.9632 17.3509L34.666 17.3922ZM59.3711 20.3922V20.0922H59.0711V20.3922H59.3711ZM59.3711 33.1909H59.0711V33.4909H59.3711V33.1909ZM86.8554 33.1909V33.4909H87.1554V33.1909H86.8554ZM86.8554 5.69087H87.1554V5.39087H86.8554V5.69087ZM59.3711 5.69087V5.39087H59.0711V5.69087H59.3711ZM59.3711 17.3922H59.0711V17.6922H59.3711V17.3922ZM19.6422 38.4689C29.8147 38.4689 38.1168 30.4618 38.59 20.4063L37.9907 20.3781C37.5325 30.1151 29.4928 37.8689 19.6422 37.8689V38.4689ZM0.673145 19.4999C0.673145 29.9762 9.16588 38.4689 19.6422 38.4689V37.8689C9.49726 37.8689 1.27314 29.6448 1.27314 19.4999H0.673145ZM19.6422 0.530811C9.16588 0.530811 0.673145 9.02355 0.673145 19.4999H1.27314C1.27314 9.35492 9.49726 1.13081 19.6422 1.13081V0.530811ZM38.4917 17.3587C37.4279 7.89026 29.3947 0.530811 19.6422 0.530811V1.13081C29.0858 1.13081 36.8653 8.25737 37.8955 17.4257L38.4917 17.3587ZM38.1936 17.6922H56.2264V17.0922H38.1936V17.6922ZM56.5264 17.3922V5.42358H55.9264V17.3922H56.5264ZM56.5264 5.4252C56.5301 4.74235 56.803 4.08853 57.2859 3.60567L56.8616 3.18141C56.267 3.77598 55.931 4.5811 55.9264 5.42195L56.5264 5.4252ZM57.2859 3.60567C57.7687 3.12281 58.4226 2.84991 59.1054 2.84621L59.1022 2.24622C58.2613 2.25078 57.4562 2.58682 56.8616 3.18141L57.2859 3.60567ZM59.1038 2.84621H87.1227V2.24621H59.1038V2.84621ZM87.1211 2.84621C87.8039 2.84991 88.4578 3.12281 88.9406 3.60567L89.3649 3.18141C88.7703 2.58682 87.9652 2.25078 87.1243 2.24622L87.1211 2.84621ZM88.9406 3.60567C89.4235 4.08852 89.6964 4.74235 89.7001 5.42521L90.3001 5.42195C90.2955 4.5811 89.9595 3.77599 89.3649 3.18141L88.9406 3.60567ZM89.7001 5.42358V33.4425H90.3001V5.42358H89.7001ZM89.7001 33.4409C89.6964 34.1237 89.4235 34.7775 88.9406 35.2604L89.3649 35.6847C89.9595 35.0901 90.2955 34.285 90.3001 33.4441L89.7001 33.4409ZM88.9406 35.2604C88.4578 35.7432 87.8039 36.0161 87.1211 36.0199L87.1243 36.6198C87.9652 36.6153 88.7703 36.2792 89.3649 35.6847L88.9406 35.2604ZM87.1227 36.0198H59.1038V36.6198H87.1227V36.0198ZM59.1054 36.0199C58.4226 36.0161 57.7687 35.7432 57.2859 35.2604L56.8616 35.6847C57.4562 36.2792 58.2613 36.6153 59.1022 36.6198L59.1054 36.0199ZM57.2859 35.2604C56.803 34.7775 56.5301 34.1237 56.5264 33.4409L55.9264 33.4441C55.931 34.285 56.267 35.0901 56.8616 35.6847L57.2859 35.2604ZM56.5264 33.4425V20.3922H55.9264V33.4425H56.5264ZM56.2264 20.0922H38.2903V20.6922H56.2264V20.0922ZM34.486 20.3748C34.0332 28.1794 27.5604 34.3689 19.6422 34.3689V34.9689C27.8802 34.9689 34.6139 28.5296 35.085 20.4096L34.486 20.3748ZM19.6422 34.3689C11.4303 34.3689 4.77314 27.7118 4.77314 19.4999H4.17314C4.17314 28.0432 11.0989 34.9689 19.6422 34.9689V34.3689ZM4.77314 19.4999C4.77314 11.2879 11.4303 4.63081 19.6422 4.63081V4.03081C11.0989 4.03081 4.17314 10.9565 4.17314 19.4999H4.77314ZM19.6422 4.63081C27.1529 4.63081 33.3633 10.1997 34.3689 17.4335L34.9632 17.3509C33.917 9.8246 27.4564 4.03081 19.6422 4.03081V4.63081ZM22.5 17.6922H34.666V17.0922H22.5V17.6922ZM21.3 18.8922C21.3 18.2294 21.8373 17.6922 22.5 17.6922V17.0922C21.5059 17.0922 20.7 17.8981 20.7 18.8922H21.3ZM22.5 20.0922C21.8373 20.0922 21.3 19.5549 21.3 18.8922H20.7C20.7 19.8863 21.5059 20.6922 22.5 20.6922V20.0922ZM34.7855 20.0922H22.5V20.6922H34.7855V20.0922ZM59.0711 20.3922V33.1909H59.6711V20.3922H59.0711ZM59.3711 33.4909H86.8554V32.8909H59.3711V33.4909ZM87.1554 33.1909V5.69087H86.5554V33.1909H87.1554ZM86.8554 5.39087H59.3711V5.99087H86.8554V5.39087ZM59.0711 5.69087V17.3922H59.6711V5.69087H59.0711ZM59.3711 17.6922H73.6071V17.0922H59.3711V17.6922ZM73.6071 17.6922C74.2698 17.6922 74.8071 18.2294 74.8071 18.8922H75.4071C75.4071 17.8981 74.6012 17.0922 73.6071 17.0922V17.6922ZM74.8071 18.8922C74.8071 19.5549 74.2698 20.0922 73.6071 20.0922V20.6922C74.6012 20.6922 75.4071 19.8863 75.4071 18.8922H74.8071ZM73.6071 20.0922H59.3711V20.6922H73.6071V20.0922Z" fill="#F9DF00"/>
</svg>
