<svg width="81" height="62" viewBox="0 0 81 62" fill="none" xmlns="http://www.w3.org/2000/svg">
<path d="M79.0864 50.3249C78.4093 49.5582 74.7772 44.9175 72.8024 42.3772C73.8644 42.8045 74.7269 42.9569 75.4181 42.9569C76.8399 42.9569 77.528 42.3097 77.7149 42.0944C78.2569 41.4786 78.4926 40.858 78.4172 40.2548C78.3449 39.6767 77.9946 39.1676 77.3725 38.7403C76.8917 38.4104 76.3293 38.2235 75.7339 38.0255C74.6012 37.6501 73.1936 37.1819 71.6367 35.4679C69.7688 33.4099 67.2379 32.769 65.5742 32.3448C64.9333 32.1877 64.3787 32.0416 64.0582 31.8735C62.261 30.945 60.2596 28.1565 60.2187 28.0921L48.8337 14.5391C49.0599 13.5698 48.8337 12.7466 48.1566 12.2376C47.8981 12.0397 47.6003 11.8994 47.2831 11.826C48.1173 10.7106 48.7159 9.90149 48.7818 9.78367L48.8384 9.69569C49.1165 9.25896 49.9632 7.92832 48.5682 6.65581C48.207 6.30582 47.7403 6.08491 47.2407 6.02741C47.8078 5.18693 48.3875 4.09822 48.1849 3.02994C48.0623 2.37169 47.6649 1.8187 47.0035 1.38196C46.7502 1.21015 46.464 1.09269 46.1631 1.03699C45.8622 0.981293 45.5529 0.98856 45.2549 1.05834C44.5024 1.22958 43.8316 1.74958 43.3132 2.28372C43.1513 2.01065 42.9378 1.77163 42.6848 1.57991C42.4386 1.38807 42.1558 1.24856 41.8538 1.16995C41.5518 1.09134 41.2369 1.07527 40.9284 1.12275C40.5475 1.18439 40.1834 1.32408 39.859 1.53306C39.5346 1.74203 39.2568 2.01578 39.0432 2.33713C38.4525 3.17133 34.7654 7.77436 32.7482 10.2848C33.2776 6.81762 31.7223 5.76348 31.3484 5.56396C30.6242 5.18064 29.9675 5.09267 29.3957 5.30318C28.8506 5.50741 28.4358 5.96457 28.164 6.66681C27.952 7.21194 27.8985 7.80264 27.8498 8.4279C27.743 9.61714 27.6095 11.0986 26.2993 13.0011C24.7283 15.2916 24.6796 17.8963 24.6497 19.6197C24.6387 20.2811 24.6293 20.8514 24.5413 21.2017C24.048 23.1623 21.7921 25.745 21.7386 25.8079L11.6968 39.2729C10.0457 39.5117 9.02611 40.3443 9.02611 41.5257C9.02213 41.85 9.08748 42.1714 9.21778 42.4683C7.82587 42.4683 6.81886 42.4683 6.68847 42.484L6.58478 42.4935C6.06792 42.5312 4.49535 42.6506 4.30997 44.5263C4.24717 45.026 4.35098 45.5323 4.60532 45.9669C3.58417 46.0203 2.35879 46.201 1.62042 47.0038C1.16797 47.4955 0.960601 48.1475 1.00616 48.9377C1.01997 49.2433 1.09689 49.5427 1.23208 49.8172C1.36726 50.0916 1.55779 50.3351 1.79166 50.5323C2.37921 51.0318 3.19613 51.2596 3.9345 51.3555C3.81219 51.6473 3.74661 51.9597 3.74127 52.2761C3.73541 52.5879 3.79296 52.8977 3.91044 53.1867C4.02791 53.4757 4.20285 53.7377 4.42466 53.957C4.7027 54.2243 5.03246 54.4318 5.39368 54.5669C5.75489 54.702 6.13992 54.7618 6.52508 54.7425C7.5478 54.7237 13.4375 54.9248 16.6549 55.0395C13.56 56.6859 13.6496 58.5616 13.7171 58.9795C13.8412 59.7917 14.1633 60.3714 14.6754 60.7076C14.9832 60.9032 15.3414 61.0048 15.706 60.9998C15.9756 60.9967 16.2435 60.9571 16.5025 60.882C17.0649 60.7249 17.5708 60.4107 18.1049 60.0871C19.1214 59.4587 20.3844 58.6857 22.6985 58.5962C25.4745 58.4894 27.589 56.9686 28.9825 55.9616C29.5182 55.5752 29.9833 55.2421 30.3163 55.1039C32.1827 54.3278 35.6027 54.5933 35.6844 54.5964H62.1212C62.1889 54.5959 62.256 54.5831 62.3191 54.5587C62.7292 55.03 63.0418 55.3898 63.213 55.5924C64.1823 56.744 65.2381 57.3551 66.1524 57.3551C66.594 57.3589 67.022 57.2027 67.3573 56.9152C67.6103 56.7099 67.8155 56.4521 67.959 56.1596C68.8545 57.2279 69.5049 57.9961 69.5976 58.0856L69.673 58.161C69.9243 58.4187 70.5308 59.0424 71.4011 59.0408C71.8677 59.0288 72.3193 58.873 72.694 58.5946C73.1149 58.3212 73.4344 57.9172 73.6036 57.4447C74.3012 58.1925 75.2265 59.0157 76.3183 59.0644H76.4236C77.052 59.0644 77.6474 58.8051 78.1941 58.2899C78.421 58.0825 78.6021 57.8301 78.726 57.5488C78.8499 57.2674 78.9138 56.9634 78.9136 56.656C78.9136 55.8847 78.568 55.1133 78.1674 54.4865C78.4689 54.3916 78.7497 54.2408 78.9953 54.0419C79.238 53.8459 79.4383 53.6027 79.5841 53.3269C79.7299 53.0512 79.8182 52.7488 79.8436 52.4379C79.8694 52.0526 79.8154 51.6661 79.6851 51.3025C79.5548 50.939 79.351 50.6062 79.0864 50.3249ZM22.6435 26.5352C22.7425 26.4206 25.1069 23.7074 25.6693 21.4798C25.7903 21.0006 25.8013 20.3675 25.8138 19.6338C25.8421 17.956 25.8814 15.6576 27.2576 13.6546C28.7422 11.4976 28.8961 9.78524 29.0077 8.52844C29.0595 7.96288 29.1019 7.4743 29.2543 7.08312C29.4067 6.69194 29.5889 6.47043 29.8089 6.38874C30.1152 6.27563 30.5237 6.43273 30.8112 6.58511C31.4851 6.94487 32.2989 8.54101 31.0751 12.2533C31.027 12.3997 31.039 12.5593 31.1085 12.6969C31.1781 12.8345 31.2994 12.9388 31.4459 12.9869C31.5491 13.0214 31.6601 13.0258 31.7657 12.9996C31.8714 12.9735 31.9675 12.9179 32.0428 12.8393C32.1618 12.8077 32.2679 12.7396 32.346 12.6445C32.6241 12.2988 39.1673 4.1862 39.9999 3.00324C40.377 2.47067 40.8043 2.30885 41.0996 2.26801C41.2511 2.24399 41.4059 2.25052 41.5548 2.28721C41.7038 2.3239 41.8438 2.39002 41.9668 2.48166C42.2308 2.69218 42.5183 2.92312 42.3203 3.53738C42.2763 3.60493 42.2449 3.6552 42.2292 3.68191C42.1846 3.75764 42.1577 3.84251 42.1506 3.93013C42.0507 4.11938 41.9395 4.30247 41.8176 4.4784C40.6331 6.2065 35.2194 13.276 35.1723 13.3467C35.123 13.407 35.0863 13.4766 35.0645 13.5513C35.0426 13.626 35.036 13.7043 35.045 13.7817C35.054 13.859 35.0784 13.9338 35.1168 14.0015C35.1553 14.0692 35.2069 14.1285 35.2687 14.1758C35.3305 14.2232 35.4012 14.2577 35.4765 14.2772C35.5519 14.2968 35.6304 14.3009 35.7074 14.2895C35.7845 14.2781 35.8584 14.2514 35.9249 14.2109C35.9914 14.1703 36.049 14.1169 36.0944 14.0536C36.3175 13.7614 41.5741 6.89146 42.7759 5.13351C43.0064 4.80699 43.1993 4.45547 43.3509 4.08565C43.7484 3.49025 44.6375 2.3874 45.5157 2.18789C45.6604 2.1515 45.8111 2.1467 45.9578 2.17381C46.1045 2.20092 46.2436 2.2593 46.3656 2.34499C46.76 2.60577 46.983 2.89641 47.0459 3.23889C47.203 4.08094 46.4175 5.19007 45.8755 5.95986C45.057 7.11611 38.3253 15.7975 38.2577 15.8854C38.2064 15.9452 38.1678 16.0148 38.1442 16.0899C38.1207 16.165 38.1126 16.2442 38.1205 16.3225C38.1285 16.4009 38.1523 16.4768 38.1904 16.5457C38.2286 16.6146 38.2804 16.675 38.3426 16.7232C38.4048 16.7715 38.4762 16.8066 38.5524 16.8265C38.6286 16.8463 38.7081 16.8505 38.7859 16.8387C38.8638 16.8269 38.9384 16.7994 39.0053 16.7578C39.0723 16.7163 39.13 16.6616 39.1752 16.5971C39.4077 16.297 44.0233 10.3461 46.0263 7.70053L46.0467 7.68324C46.1928 7.52614 46.961 6.77049 47.7748 7.51672C48.4032 8.08699 48.188 8.53944 47.8487 9.07358L47.778 9.18669C47.5549 9.53545 43.2739 15.2225 40.4524 18.9583C40.3596 19.0813 40.3193 19.236 40.3405 19.3886C40.3617 19.5412 40.4427 19.6791 40.5655 19.7721C40.6263 19.8183 40.6956 19.852 40.7695 19.8713C40.8433 19.8906 40.9203 19.8951 40.9959 19.8846C41.0715 19.8741 41.1443 19.8487 41.2101 19.81C41.2759 19.7713 41.3334 19.72 41.3793 19.659C42.0532 18.7682 44.2401 15.8697 46.064 13.4394C46.1317 13.3994 46.1906 13.3459 46.2368 13.2823C46.3939 13.0875 46.8118 12.6837 47.4543 13.1613C48.0969 13.6389 47.602 14.8988 46.8778 15.8729C46.6657 16.1588 46.24 16.7542 45.6838 17.5303C43.6871 20.3172 39.9717 25.5031 38.6772 26.8086C37.0606 28.4409 34.3569 29.6961 33.0388 30.0323C31.4584 30.4345 29.193 33.7304 28.772 34.362L25.2137 39.1378C22.532 39.0137 17.6022 39.1064 14.7288 39.1614L13.2018 39.1896L22.6435 26.5352ZM41.838 24.7694L49.3788 33.7414C50.5916 35.0422 52.3072 37.2652 52.3229 38.1402C52.3417 39.1786 52.6449 40.9507 53.256 42.6568L38.3158 42.6663C36.5406 42.7574 33.7348 42.6427 33.0546 42.0928C31.87 41.133 29.0815 39.6248 26.5726 39.265L29.7146 35.0501C30.7012 33.5702 32.4733 31.3912 33.3279 31.176C34.8141 30.7974 37.7126 29.4479 39.5051 27.6444C40.0172 27.1196 40.8719 26.0498 41.838 24.7694ZM29.8764 54.023C29.4193 54.2131 28.9055 54.5823 28.3054 55.0112C26.9418 55.9915 25.0754 57.3331 22.6498 57.4274C20.0325 57.5279 18.5652 58.4312 17.4938 59.0895C17.0099 59.3864 16.5936 59.6425 16.1883 59.754C15.783 59.8656 15.4971 59.853 15.3007 59.7258C15.0258 59.5482 14.9095 59.1272 14.8592 58.8051C14.7446 58.0495 15.5379 56.4486 19.2439 55.2044C19.3684 55.1631 19.4751 55.0807 19.5468 54.9708C19.6184 54.861 19.6506 54.73 19.6382 54.5995C19.6258 54.4689 19.5695 54.3464 19.4785 54.252C19.3875 54.1575 19.2671 54.0968 19.1371 54.0796C19.0403 54.0023 18.9215 53.9577 18.7977 53.9523C18.3563 53.9366 7.93741 53.5392 6.49523 53.58C5.8417 53.58 5.4568 53.3491 5.24943 53.1401C5.13942 53.0331 5.05201 52.9051 4.99238 52.7637C4.93274 52.6223 4.90209 52.4704 4.90224 52.3169C4.91324 51.9807 4.92738 51.6115 5.53064 51.4042L5.70345 51.39C5.79069 51.3804 5.87455 51.3508 5.94853 51.3036C6.15976 51.2711 6.37275 51.2512 6.58635 51.2439C8.68364 51.1575 17.5834 51.2691 17.6698 51.2706H17.6776C17.8318 51.2706 17.9796 51.2094 18.0886 51.1004C18.1976 50.9914 18.2589 50.8435 18.2589 50.6894C18.2589 50.5352 18.1976 50.3873 18.0886 50.2783C17.9796 50.1693 17.8318 50.1081 17.6776 50.1081C17.31 50.1081 8.66007 49.995 6.53294 50.083C6.13358 50.0934 5.73671 50.1493 5.34998 50.2495C4.6336 50.2856 3.21342 50.2306 2.53317 49.6462C2.41764 49.5519 2.32385 49.4337 2.25823 49.2997C2.19261 49.1658 2.15671 49.0193 2.15299 48.8701C2.12628 48.3988 2.22683 48.0469 2.46719 47.7924C3.04846 47.164 4.40737 47.1279 5.3484 47.1043C6.7623 47.0682 17.7483 47.2756 17.8598 47.2771H17.8708C18.025 47.2786 18.1734 47.2188 18.2835 47.1108C18.3935 47.0028 18.4562 46.8555 18.4576 46.7014C18.4591 46.5472 18.3992 46.3988 18.2912 46.2887C18.1833 46.1787 18.036 46.1161 17.8818 46.1146C17.5017 46.1068 9.95615 45.9575 6.64448 45.9387H6.62406C6.62406 45.9387 5.99566 45.8648 5.66103 45.4674C5.57331 45.3516 5.51021 45.2192 5.47562 45.0781C5.44104 44.9371 5.4357 44.7905 5.45994 44.6473C5.54321 43.8068 6.03179 43.7047 6.66333 43.6591L6.79529 43.6481C7.21318 43.6167 14.3267 43.6481 19.0082 43.6796C19.1624 43.6796 19.3103 43.6183 19.4193 43.5093C19.5283 43.4003 19.5895 43.2524 19.5895 43.0983C19.5895 42.9441 19.5283 42.7963 19.4193 42.6873C19.3103 42.5783 19.1624 42.517 19.0082 42.517C17.8913 42.517 14.2638 42.4887 11.2271 42.4793C11.1534 42.4466 11.0737 42.4295 10.993 42.429C10.8442 42.4197 10.6988 42.3801 10.5657 42.3128C10.3976 42.2248 10.1745 42.0457 10.1745 41.5273C10.1745 40.7324 11.4784 40.3695 12.6881 40.3679C13.0432 40.3679 13.7752 40.3522 14.7304 40.3349C18.1568 40.2689 24.5366 40.1479 26.3558 40.404C28.629 40.7261 31.2526 42.1416 32.3099 42.9977C33.2148 43.7314 35.5163 43.8618 37.0308 43.8618C37.6356 43.8618 38.1163 43.8414 38.3331 43.8304L53.3016 43.8209C53.4317 43.8202 53.5578 43.776 53.6598 43.6953C53.8541 44.1324 54.0777 44.556 54.329 44.9631C55.2716 46.4759 58.9588 50.7286 61.3121 53.4276H35.7378C35.5854 53.4166 32.002 53.1448 29.8764 54.023ZM78.6795 52.3311C78.6681 52.484 78.6262 52.6331 78.5563 52.7696C78.4864 52.9061 78.39 53.0272 78.2726 53.126C78.0071 53.3334 77.7165 53.5611 77.1635 53.225L77.0441 53.1056C76.9817 53.0443 76.9059 52.9986 76.8226 52.972C76.6614 52.831 76.5082 52.681 76.3639 52.5227C74.95 50.9721 69.3132 44.088 69.2551 44.0189C69.2076 43.9574 69.1482 43.906 69.0804 43.8679C69.0127 43.8297 68.938 43.8055 68.8607 43.7968C68.7835 43.788 68.7053 43.7948 68.6307 43.8168C68.5561 43.8388 68.4867 43.8756 68.4266 43.9248C68.3665 43.9741 68.3169 44.035 68.2807 44.1038C68.2445 44.1726 68.2225 44.248 68.216 44.3255C68.2094 44.4029 68.2185 44.4809 68.2426 44.5548C68.2668 44.6287 68.3055 44.697 68.3565 44.7557C68.589 45.04 74.0718 51.7325 75.5061 53.3051C75.7715 53.6048 76.0704 53.8731 76.3969 54.1047C76.8855 54.6294 77.7526 55.7464 77.7448 56.6482C77.7463 56.7966 77.7158 56.9436 77.6553 57.0791C77.5949 57.2147 77.5059 57.3356 77.3945 57.4337C77.052 57.7573 76.7221 57.9128 76.3702 57.8908C75.514 57.8515 74.6138 56.8335 73.9901 56.1266C73.0475 55.0646 66.1461 46.5215 66.077 46.4351C65.9801 46.3151 65.8395 46.2385 65.6862 46.2221C65.5328 46.2058 65.3793 46.251 65.2593 46.3479C65.1393 46.4448 65.0627 46.5854 65.0463 46.7387C65.03 46.892 65.0752 47.0456 65.1721 47.1656C65.4109 47.461 70.1474 53.3192 72.262 55.8752C72.2658 55.8841 72.2705 55.8925 72.2761 55.9004C72.2761 55.9004 72.6265 56.4345 72.5338 56.9404C72.5022 57.0822 72.4417 57.216 72.356 57.3333C72.2703 57.4506 72.1613 57.549 72.0358 57.6222C71.3398 58.0935 70.9471 57.7919 70.5056 57.3378L70.4114 57.2436C70.116 56.9482 65.5695 51.4796 62.5752 47.8757C62.5278 47.8132 62.4682 47.7609 62.4001 47.722C62.3319 47.6831 62.2566 47.6584 62.1786 47.6494C62.1006 47.6404 62.0217 47.6473 61.9464 47.6696C61.8712 47.692 61.8013 47.7293 61.7409 47.7794C61.6805 47.8295 61.6308 47.8914 61.595 47.9612C61.5591 48.031 61.5377 48.1073 61.5322 48.1856C61.5266 48.2639 61.5369 48.3425 61.5626 48.4167C61.5882 48.4908 61.6286 48.5591 61.6813 48.6172C62.393 49.4765 64.7118 52.2698 66.6567 54.6011C66.6795 54.6784 66.718 54.75 66.7698 54.8117C66.8578 54.932 66.9208 55.0688 66.9552 55.2138C66.9944 55.3992 67.0023 55.6851 66.6048 56.0182C65.9968 56.5303 64.8767 55.7637 64.0912 54.8352C63.865 54.5666 63.3858 54.0183 62.7622 53.3035C60.5046 50.7176 56.3038 45.9072 55.3298 44.3488C54.1122 42.4023 53.509 39.4787 53.4854 38.1229C53.4556 36.4907 50.7676 33.5293 50.2491 32.9748L42.5732 23.83C42.5732 23.83 42.5638 23.8221 42.5607 23.8174C43.9934 21.8961 45.5581 19.714 46.6296 18.2168C47.181 17.447 47.602 16.8579 47.8125 16.5767C48.0062 16.3182 48.1821 16.0469 48.3388 15.7645L59.2934 28.8038C59.3814 28.9279 61.4724 31.8499 63.5178 32.9088C63.9577 33.1366 64.5704 33.2921 65.2821 33.4743C66.9096 33.8859 69.1373 34.4515 70.7711 36.2503C72.5322 38.1905 74.1661 38.7341 75.36 39.1299C75.8989 39.309 76.3623 39.463 76.7079 39.7002C77.0535 39.9374 77.2295 40.1715 77.2578 40.3993C77.2986 40.7245 77.0504 41.0843 76.8352 41.3293C76.3325 41.9043 74.5918 42.3285 71.2597 40.2878C71.1214 40.2767 70.9827 40.3049 70.8596 40.369C70.7366 40.4331 70.6341 40.5306 70.5639 40.6503C70.4937 40.7701 70.4587 40.9071 70.4628 41.0458C70.4669 41.1845 70.5101 41.3193 70.5873 41.4346C70.8591 41.7834 77.2562 50.0107 78.2161 51.0947C78.6481 51.5833 78.7062 52.0357 78.6795 52.3311Z" fill="#A3FFFF" stroke="#A3FFFF" stroke-width="0.6"/>
</svg>
