<svg width="84" height="84" viewBox="0 0 84 84" fill="none" xmlns="http://www.w3.org/2000/svg">
<path fill-rule="evenodd" clip-rule="evenodd" d="M11.2228 25.7418C11.7833 26.6277 12.0809 27.6544 12.0811 28.7027C12.0813 29.98 11.6403 31.2181 10.8326 32.2075C10.0249 33.197 8.90011 33.877 7.64865 34.1324V37.5676C7.64865 38.4492 7.99889 39.2948 8.62232 39.9182C9.24575 40.5417 10.0913 40.8919 10.973 40.8919H18.7297C18.9995 35.1011 21.421 29.6194 25.5202 25.5202C29.6194 21.421 35.101 18.9995 40.8919 18.7297V10.973C40.8919 9.50354 41.4756 8.09428 42.5147 7.05523C43.5537 6.01618 44.963 5.43244 46.4324 5.43244H49.8676C50.1422 4.08715 50.9065 2.89175 52.0124 2.07798C53.1183 1.26422 54.487 0.890067 55.853 1.02807C57.2191 1.16607 58.4853 1.80639 59.4061 2.8249C60.3269 3.8434 60.8367 5.16752 60.8367 6.54055C60.8367 7.91358 60.3269 9.23771 59.4061 10.2562C58.4853 11.2747 57.2191 11.915 55.853 12.053C54.487 12.191 53.1183 11.8169 52.0124 11.0031C50.9065 10.1894 50.1422 8.99395 49.8676 7.64866H46.4324C45.5508 7.64866 44.7052 7.9989 44.0818 8.62233C43.4583 9.24576 43.1081 10.0913 43.1081 10.973V18.7297C48.8989 18.9995 54.3806 21.421 58.4798 25.5202C62.579 29.6194 65.0005 35.1011 65.2703 40.8919H73.027C74.4965 40.8919 75.9057 41.4756 76.9448 42.5147C77.9838 43.5537 78.5676 44.963 78.5676 46.4324V49.8676C79.9128 50.1422 81.1083 50.9065 81.922 52.0124C82.7358 53.1183 83.1099 54.487 82.9719 55.853C82.8339 57.2191 82.1936 58.4853 81.1751 59.4061C80.1566 60.3269 78.8325 60.8367 77.4594 60.8367C76.0864 60.8367 74.7623 60.3269 73.7438 59.4061C72.7253 58.4853 72.085 57.2191 71.947 55.853C71.809 54.487 72.1831 53.1183 72.9969 52.0124C73.8106 50.9065 75.0061 50.1422 76.3513 49.8676V46.4324C76.3513 45.5508 76.0011 44.7052 75.3777 44.0818C74.7542 43.4584 73.9087 43.1081 73.027 43.1081H65.2703C65.0005 48.899 62.579 54.3806 58.4798 58.4798C54.3806 62.579 48.8989 65.0005 43.1081 65.2703V73.027C43.1081 74.4965 42.5244 75.9057 41.4853 76.9448C40.4463 77.9838 39.037 78.5676 37.5676 78.5676H34.1324C33.8578 79.9128 33.0935 81.1083 31.9876 81.922C30.8817 82.7358 29.513 83.1099 28.147 82.9719C26.7809 82.8339 25.5147 82.1936 24.5939 81.1751C23.6731 80.1566 23.1633 78.8325 23.1633 77.4595C23.1633 76.0864 23.6731 74.7623 24.5939 73.7438C25.5147 72.7253 26.7809 72.085 28.147 71.947C29.513 71.809 30.8817 72.1831 31.9876 72.9969C33.0935 73.8106 33.8578 75.0061 34.1324 76.3513H37.5676C38.4492 76.3513 39.2948 76.0011 39.9182 75.3777C40.5416 74.7542 40.8919 73.9087 40.8919 73.027V65.2703C35.101 65.0005 29.6194 62.579 25.5202 58.4798C21.421 54.3806 18.9995 48.899 18.7297 43.1081H10.973C9.50353 43.1081 8.09427 42.5244 7.05522 41.4853C6.01617 40.4463 5.43243 39.037 5.43243 37.5676V34.1324C4.40531 33.9228 3.45874 33.426 2.70267 32.6999C1.94659 31.9737 1.41204 31.048 1.16109 30.0302C0.910145 29.0123 0.953102 27.9442 1.28497 26.9498C1.61685 25.9554 2.22401 25.0756 3.03596 24.4125C3.8479 23.7494 4.8313 23.3303 5.87195 23.2038C6.91259 23.0773 7.96777 23.2486 8.91493 23.6979C9.86209 24.1471 10.6624 24.8558 11.2228 25.7418ZM26.8558 80.2235C27.4025 80.5888 28.0452 80.7838 28.7027 80.7838C29.5844 80.7838 30.4299 80.4335 31.0533 79.8101C31.6768 79.1867 32.027 78.3411 32.027 77.4595C32.027 76.802 31.8321 76.1592 31.4668 75.6126C31.1015 75.0659 30.5823 74.6398 29.9749 74.3882C29.3674 74.1366 28.699 74.0707 28.0542 74.199C27.4093 74.3273 26.817 74.6439 26.352 75.1088C25.8871 75.5737 25.5705 76.1661 25.4422 76.8109C25.314 77.4558 25.3798 78.1242 25.6314 78.7316C25.883 79.3391 26.3091 79.8582 26.8558 80.2235ZM80.2235 57.1442C80.5888 56.5975 80.7838 55.9548 80.7838 55.2973C80.7838 54.4156 80.4335 53.5701 79.8101 52.9467C79.1867 52.3232 78.3411 51.973 77.4594 51.973C76.802 51.973 76.1592 52.1679 75.6126 52.5332C75.0659 52.8985 74.6398 53.4177 74.3882 54.0251C74.1366 54.6326 74.0707 55.301 74.199 55.9458C74.3273 56.5907 74.6439 57.183 75.1088 57.6479C75.5737 58.1129 76.166 58.4295 76.8109 58.5577C77.4558 58.686 78.1242 58.6202 78.7316 58.3686C79.3391 58.117 79.8582 57.6909 80.2235 57.1442ZM57.1442 3.77648C56.5975 3.4112 55.9548 3.21623 55.2973 3.21623C54.4156 3.21623 53.5701 3.56647 52.9466 4.1899C52.3232 4.81333 51.973 5.65889 51.973 6.54055C51.973 7.19804 52.1679 7.84076 52.5332 8.38745C52.8985 8.93413 53.4177 9.36022 54.0251 9.61183C54.6326 9.86344 55.301 9.92927 55.9458 9.801C56.5907 9.67273 57.183 9.35612 57.6479 8.8912C58.1129 8.42629 58.4295 7.83395 58.5577 7.1891C58.686 6.54424 58.6202 5.87583 58.3686 5.26839C58.117 4.66095 57.6909 4.14176 57.1442 3.77648ZM53.697 24.4942C50.2347 22.1808 46.1641 20.946 42 20.946C36.4161 20.946 31.0609 23.1641 27.1125 27.1125C23.1641 31.0609 20.9459 36.4161 20.9459 42C20.9459 46.1641 22.1807 50.2347 24.4942 53.697C26.8076 57.1593 30.0958 59.8579 33.943 61.4514C37.7901 63.0449 42.0233 63.4619 46.1074 62.6495C50.1915 61.8371 53.943 59.8319 56.8875 56.8875C59.8319 53.943 61.8371 50.1915 62.6495 46.1074C63.4619 42.0234 63.0449 37.7901 61.4514 33.943C59.8579 30.0958 57.1593 26.8076 53.697 24.4942ZM3.77647 26.8558C3.41119 27.4025 3.21622 28.0452 3.21622 28.7027C3.21622 29.5844 3.56646 30.4299 4.18989 31.0534C4.81332 31.6768 5.65887 32.027 6.54054 32.027C7.19803 32.027 7.84075 31.8321 8.38743 31.4668C8.93412 31.1015 9.3602 30.5823 9.61182 29.9749C9.86343 29.3674 9.92926 28.699 9.80099 28.0542C9.67272 27.4093 9.35611 26.817 8.89119 26.3521C8.42628 25.8871 7.83394 25.5705 7.18908 25.4423C6.54423 25.314 5.87582 25.3798 5.26838 25.6314C4.66094 25.883 4.14175 26.3091 3.77647 26.8558ZM33.1352 49.7568H46.4325C47.3141 49.7568 48.1597 49.4065 48.7831 48.7831C49.4065 48.1597 49.7568 47.3141 49.7568 46.4325C49.7568 45.5508 49.4065 44.7052 48.7831 44.0818C48.1597 43.4584 47.3141 43.1081 46.4325 43.1081H37.5676C36.0982 43.1081 34.6889 42.5244 33.6498 41.4853C32.6108 40.4463 32.0271 39.037 32.0271 37.5676C32.0271 36.0981 32.6108 34.6889 33.6498 33.6498C34.6889 32.6108 36.0982 32.0271 37.5676 32.0271H40.8919V28.7027C40.8919 28.4088 41.0087 28.127 41.2165 27.9192C41.4243 27.7114 41.7061 27.5946 42 27.5946C42.2939 27.5946 42.5758 27.7114 42.7836 27.9192C42.9914 28.127 43.1081 28.4088 43.1081 28.7027V32.0271H50.8649C51.1588 32.0271 51.4406 32.1438 51.6484 32.3516C51.8563 32.5594 51.973 32.8413 51.973 33.1352C51.973 33.429 51.8563 33.7109 51.6484 33.9187C51.4406 34.1265 51.1588 34.2433 50.8649 34.2433H37.5676C36.6859 34.2433 35.8404 34.5935 35.217 35.2169C34.5935 35.8404 34.2433 36.6859 34.2433 37.5676C34.2433 38.4493 34.5935 39.2948 35.217 39.9182C35.8404 40.5417 36.6859 40.8919 37.5676 40.8919H46.4325C47.9019 40.8919 49.3112 41.4756 50.3502 42.5147C51.3893 43.5538 51.973 44.963 51.973 46.4325C51.973 47.9019 51.3893 49.3112 50.3502 50.3502C49.3112 51.3893 47.9019 51.973 46.4325 51.973H43.1081V55.2973C43.1081 55.5912 42.9914 55.8731 42.7836 56.0809C42.5758 56.2887 42.2939 56.4054 42 56.4054C41.7061 56.4054 41.4243 56.2887 41.2165 56.0809C41.0087 55.8731 40.8919 55.5912 40.8919 55.2973V51.973H33.1352C32.8413 51.973 32.5594 51.8562 32.3516 51.6484C32.1438 51.4406 32.0271 51.1588 32.0271 50.8649C32.0271 50.571 32.1438 50.2891 32.3516 50.0813C32.5594 49.8735 32.8413 49.7568 33.1352 49.7568ZM25.3785 10.9729C25.3785 9.87712 25.0536 8.80591 24.4448 7.89477C23.836 6.98363 22.9706 6.27349 21.9582 5.85414C20.9458 5.43479 19.8318 5.32507 18.7571 5.53885C17.6823 5.75263 16.6951 6.28032 15.9202 7.05518C15.1454 7.83004 14.6177 8.81727 14.4039 9.89202C14.1901 10.9668 14.2998 12.0808 14.7192 13.0932C15.1385 14.1056 15.8487 14.9709 16.7598 15.5797C17.671 16.1885 18.7422 16.5135 19.838 16.5135C21.3074 16.5135 22.7167 15.9297 23.7557 14.8907C24.7948 13.8516 25.3785 12.4424 25.3785 10.9729ZM16.5136 10.9729C16.5136 10.3154 16.7086 9.67272 17.0739 9.12604C17.4392 8.57935 17.9584 8.15327 18.5658 7.90166C19.1733 7.65005 19.8417 7.58421 20.4865 7.71248C21.1314 7.84075 21.7237 8.15736 22.1886 8.62228C22.6535 9.08719 22.9702 9.67953 23.0984 10.3244C23.2267 10.9692 23.1609 11.6377 22.9092 12.2451C22.6576 12.8525 22.2316 13.3717 21.6849 13.737C21.1382 14.1023 20.4955 14.2973 19.838 14.2973C18.9563 14.2973 18.1108 13.947 17.4873 13.3236C16.8639 12.7002 16.5136 11.8546 16.5136 10.9729ZM77.6338 16.7596C78.2426 17.6708 78.5675 18.742 78.5675 19.8378C78.5675 21.3072 77.9838 22.7165 76.9447 23.7556C75.9057 24.7946 74.4964 25.3783 73.027 25.3783C71.9312 25.3783 70.8599 25.0534 69.9488 24.4446C69.0377 23.8358 68.3275 22.9705 67.9082 21.9581C67.4888 20.9457 67.3791 19.8317 67.5929 18.7569C67.8067 17.6821 68.3344 16.6949 69.1092 15.92C69.8841 15.1452 70.8713 14.6175 71.9461 14.4037C73.0208 14.1899 74.1348 14.2997 75.1472 14.719C76.1596 15.1384 77.025 15.8485 77.6338 16.7596ZM70.2629 17.9909C69.8976 18.5376 69.7027 19.1803 69.7027 19.8378C69.7027 20.7195 70.0529 21.565 70.6763 22.1885C71.2998 22.8119 72.1453 23.1621 73.027 23.1621C73.6845 23.1621 74.3272 22.9672 74.8739 22.6019C75.4205 22.2366 75.8466 21.7174 76.0982 21.11C76.3499 20.5025 76.4157 19.8341 76.2874 19.1893C76.1591 18.5444 75.8425 17.9521 75.3776 17.4871C74.9127 17.0222 74.3204 16.7056 73.6755 16.5774C73.0307 16.4491 72.3623 16.5149 71.7548 16.7665C71.1474 17.0181 70.6282 17.4442 70.2629 17.9909ZM58.6217 73.027C58.6217 74.1228 58.9466 75.194 59.5554 76.1051C60.1642 77.0163 61.0295 77.7264 62.0419 78.1458C63.0543 78.5651 64.1684 78.6748 65.2431 78.461C66.3179 78.2473 67.3051 77.7196 68.08 76.9447C68.8548 76.1699 69.3825 75.1826 69.5963 74.1079C69.8101 73.0331 69.7004 71.9191 69.281 70.9067C68.8617 69.8943 68.1515 69.029 67.2404 68.4202C66.3292 67.8114 65.258 67.4864 64.1622 67.4864C62.6928 67.4864 61.2835 68.0702 60.2445 69.1092C59.2054 70.1483 58.6217 71.5575 58.6217 73.027ZM67.4865 73.027C67.4865 73.6845 67.2916 74.3272 66.9263 74.8739C66.561 75.4205 66.0418 75.8466 65.4344 76.0982C64.8269 76.3498 64.1585 76.4157 63.5137 76.2874C62.8688 76.1591 62.2765 75.8425 61.8116 75.3776C61.3466 74.9127 61.03 74.3204 60.9018 73.6755C60.7735 73.0307 60.8393 72.3622 61.0909 71.7548C61.3426 71.1474 61.7686 70.6282 62.3153 70.2629C62.862 69.8976 63.5047 69.7026 64.1622 69.7026C65.0439 69.7026 65.8894 70.0529 66.5129 70.6763C67.1363 71.2997 67.4865 72.1453 67.4865 73.027ZM6.3662 67.2403C5.7574 66.3292 5.43245 65.258 5.43245 64.1622C5.43245 62.6927 6.01618 61.2834 7.05523 60.2444C8.09429 59.2053 9.50355 58.6216 10.973 58.6216C12.0688 58.6216 13.14 58.9466 14.0511 59.5554C14.9623 60.1642 15.6724 61.0295 16.0918 62.0419C16.5111 63.0543 16.6209 64.1683 16.4071 65.2431C16.1933 66.3178 15.6656 67.3051 14.8907 68.0799C14.1159 68.8548 13.1287 69.3824 12.0539 69.5962C10.9791 69.81 9.86512 69.7003 8.85271 69.2809C7.84031 68.8616 6.975 68.1515 6.3662 67.2403ZM13.7371 66.009C14.1023 65.4624 14.2973 64.8196 14.2973 64.1622C14.2973 63.2805 13.9471 62.4349 13.3236 61.8115C12.7002 61.1881 11.8547 60.8378 10.973 60.8378C10.3155 60.8378 9.67278 61.0328 9.12609 61.3981C8.57941 61.7634 8.15332 62.2826 7.90171 62.89C7.6501 63.4974 7.58427 64.1658 7.71254 64.8107C7.84081 65.4556 8.15742 66.0479 8.62234 66.5128C9.08725 66.9777 9.67959 67.2943 10.3244 67.4226C10.9693 67.5509 11.6377 67.485 12.2452 67.2334C12.8526 66.9818 13.3718 66.5557 13.7371 66.009Z" fill="#F9DF00"/>
<path d="M12.0811 28.7027L12.5811 28.7026L12.0811 28.7027ZM11.2228 25.7418L11.6454 25.4745L11.2228 25.7418ZM10.8326 32.2075L10.4453 31.8914H10.4453L10.8326 32.2075ZM7.64865 34.1324L7.54865 33.6425L7.14865 33.7242V34.1324H7.64865ZM8.62232 39.9182L8.26877 40.2718L8.62232 39.9182ZM18.7297 40.8919V41.3919H19.207L19.2292 40.9152L18.7297 40.8919ZM40.8919 18.7297L40.9152 19.2292L41.3919 19.207V18.7297H40.8919ZM42.5147 7.05523L42.8682 7.40878L42.8682 7.40878L42.5147 7.05523ZM49.8676 5.43244V5.93244H50.2758L50.3575 5.53244L49.8676 5.43244ZM52.0124 2.07798L51.7161 1.67526V1.67526L52.0124 2.07798ZM55.853 1.02807L55.8028 1.52554L55.853 1.02807ZM59.4061 2.8249L59.0352 3.16021L59.4061 2.8249ZM59.4061 10.2562L59.777 10.5915L59.4061 10.2562ZM55.853 12.053L55.9033 12.5505H55.9033L55.853 12.053ZM49.8676 7.64866L50.3575 7.54866L50.2758 7.14866H49.8676V7.64866ZM44.0818 8.62233L43.7282 8.26878V8.26878L44.0818 8.62233ZM43.1081 18.7297H42.6081V19.207L43.0848 19.2292L43.1081 18.7297ZM58.4798 25.5202L58.1262 25.8738L58.4798 25.5202ZM65.2703 40.8919L64.7708 40.9152L64.793 41.3919H65.2703V40.8919ZM76.9448 42.5147L76.5912 42.8682L76.9448 42.5147ZM78.5676 49.8676H78.0676V50.2758L78.4676 50.3575L78.5676 49.8676ZM81.922 52.0124L81.5193 52.3088H81.5193L81.922 52.0124ZM82.9719 55.853L83.4694 55.9033V55.9033L82.9719 55.853ZM81.1751 59.4061L81.5104 59.777L81.1751 59.4061ZM73.7438 59.4061L73.4085 59.777L73.7438 59.4061ZM71.947 55.853L71.4495 55.9033L71.947 55.853ZM72.9969 52.0124L73.3996 52.3088L72.9969 52.0124ZM76.3513 49.8676L76.4513 50.3575L76.8513 50.2758V49.8676H76.3513ZM75.3777 44.0818L75.0241 44.4353L75.3777 44.0818ZM65.2703 43.1081V42.6081H64.793L64.7708 43.0848L65.2703 43.1081ZM43.1081 65.2703L43.0848 64.7708L42.6081 64.793V65.2703H43.1081ZM41.4853 76.9448L41.8389 77.2983H41.8389L41.4853 76.9448ZM34.1324 78.5676V78.0676H33.7242L33.6425 78.4676L34.1324 78.5676ZM28.147 82.9719L28.1972 82.4745H28.1972L28.147 82.9719ZM24.5939 81.1751L24.223 81.5104L24.223 81.5104L24.5939 81.1751ZM24.5939 73.7438L24.9648 74.0791L24.9648 74.0791L24.5939 73.7438ZM28.147 71.947L28.1972 72.4444L28.147 71.947ZM31.9876 72.9969L31.6912 73.3996L31.6912 73.3996L31.9876 72.9969ZM34.1324 76.3513L33.6425 76.4513L33.7242 76.8513H34.1324V76.3513ZM39.9182 75.3777L40.2718 75.7312H40.2718L39.9182 75.3777ZM40.8919 65.2703H41.3919V64.793L40.9152 64.7708L40.8919 65.2703ZM25.5202 58.4798L25.1667 58.8333L25.5202 58.4798ZM18.7297 43.1081L19.2292 43.0848L19.207 42.6081H18.7297V43.1081ZM7.05522 41.4853L7.40877 41.1318H7.40877L7.05522 41.4853ZM5.43243 34.1324H5.93243V33.7242L5.53243 33.6425L5.43243 34.1324ZM2.70267 32.6999L2.35632 33.0605H2.35632L2.70267 32.6999ZM1.28497 26.9498L1.75926 27.1081L1.28497 26.9498ZM3.03596 24.4125L2.71969 24.0252L3.03596 24.4125ZM5.87195 23.2038L5.93228 23.7001H5.93228L5.87195 23.2038ZM8.91493 23.6979L9.1292 23.2461H9.1292L8.91493 23.6979ZM26.8558 80.2235L27.1336 79.8078L26.8558 80.2235ZM31.0533 79.8101L31.4069 80.1637H31.4069L31.0533 79.8101ZM31.4668 75.6126L31.8825 75.3348H31.8825L31.4668 75.6126ZM28.0542 74.199L28.1517 74.6894H28.1517L28.0542 74.199ZM26.352 75.1088L26.7056 75.4624H26.7056L26.352 75.1088ZM25.4422 76.8109L24.9519 76.7134V76.7134L25.4422 76.8109ZM25.6314 78.7316L26.0934 78.5403L26.0934 78.5403L25.6314 78.7316ZM80.2235 57.1442L79.8078 56.8664V56.8664L80.2235 57.1442ZM79.8101 52.9467L80.1637 52.5931L79.8101 52.9467ZM75.6126 52.5332L75.8903 52.949L75.6126 52.5332ZM75.1088 57.6479L75.4623 57.2944V57.2944L75.1088 57.6479ZM76.8109 58.5577L76.9085 58.0674H76.9084L76.8109 58.5577ZM78.7316 58.3686L78.923 58.8305L78.7316 58.3686ZM57.1442 3.77648L56.8664 4.19221V4.19221L57.1442 3.77648ZM52.5332 8.38745L52.949 8.10966V8.10966L52.5332 8.38745ZM54.0251 9.61183L53.8338 10.0738H53.8338L54.0251 9.61183ZM57.6479 8.8912L58.0015 9.24476L58.0015 9.24476L57.6479 8.8912ZM58.5577 7.1891L59.0481 7.28664L58.5577 7.1891ZM58.3686 5.26839L58.8305 5.07705V5.07704L58.3686 5.26839ZM53.697 24.4942L53.4192 24.9099L53.697 24.4942ZM27.1125 27.1125L26.759 26.759L27.1125 27.1125ZM24.4942 53.697L24.9099 53.4192L24.4942 53.697ZM33.943 61.4514L33.7516 61.9134H33.7516L33.943 61.4514ZM46.1074 62.6495L46.0099 62.1591L46.1074 62.6495ZM62.6495 46.1074L62.1591 46.0099L62.6495 46.1074ZM61.4514 33.943L60.9895 34.1343L61.4514 33.943ZM8.38743 31.4668L8.66522 31.8825H8.66522L8.38743 31.4668ZM9.61182 29.9749L10.0738 30.1662L9.61182 29.9749ZM9.80099 28.0542L10.2914 27.9566L9.80099 28.0542ZM8.89119 26.3521L8.53764 26.7056H8.53764L8.89119 26.3521ZM7.18908 25.4423L7.09154 25.9327H7.09154L7.18908 25.4423ZM5.26838 25.6314L5.07703 25.1695L5.26838 25.6314ZM48.7831 48.7831L49.1367 49.1367L48.7831 48.7831ZM33.6498 41.4853L33.2963 41.8389H33.2963L33.6498 41.4853ZM33.6498 33.6498L33.2963 33.2963L33.6498 33.6498ZM40.8919 32.0271V32.5271H41.3919V32.0271H40.8919ZM41.2165 27.9192L41.57 28.2727L41.57 28.2727L41.2165 27.9192ZM42.7836 27.9192L42.43 28.2727L42.43 28.2727L42.7836 27.9192ZM43.1081 32.0271H42.6081V32.5271H43.1081V32.0271ZM51.6484 32.3516L51.2949 32.7052L51.2949 32.7052L51.6484 32.3516ZM51.6484 33.9187L51.2949 33.5652L51.2949 33.5652L51.6484 33.9187ZM35.217 35.2169L35.5705 35.5705L35.217 35.2169ZM50.3502 42.5147L50.7038 42.1611H50.7038L50.3502 42.5147ZM50.3502 50.3502L49.9967 49.9967H49.9967L50.3502 50.3502ZM43.1081 51.973V51.473H42.6081V51.973H43.1081ZM40.8919 51.973H41.3919V51.473H40.8919V51.973ZM32.3516 51.6484L32.7052 51.2949L32.7052 51.2949L32.3516 51.6484ZM32.3516 50.0813L32.7052 50.4349L32.7052 50.4349L32.3516 50.0813ZM21.9582 5.85414L22.1496 5.3922L21.9582 5.85414ZM18.7571 5.53885L18.6595 5.04846L18.7571 5.53885ZM14.4039 9.89202L14.8943 9.98957V9.98957L14.4039 9.89202ZM16.7598 15.5797L16.482 15.9955L16.482 15.9955L16.7598 15.5797ZM23.7557 14.8907L24.1093 15.2442L23.7557 14.8907ZM17.0739 9.12604L16.6582 8.84825L16.6582 8.84825L17.0739 9.12604ZM18.5658 7.90166L18.3745 7.43972L18.5658 7.90166ZM20.4865 7.71248L20.389 8.20288L20.4865 7.71248ZM22.1886 8.62228L21.8351 8.97583L21.8351 8.97583L22.1886 8.62228ZM23.0984 10.3244L22.608 10.4219V10.4219L23.0984 10.3244ZM22.9092 12.2451L22.4473 12.0538L22.9092 12.2451ZM17.4873 13.3236L17.8409 12.97V12.97L17.4873 13.3236ZM76.9447 23.7556L77.2983 24.1091L76.9447 23.7556ZM69.9488 24.4446L70.2266 24.0289L70.2266 24.0289L69.9488 24.4446ZM67.5929 18.7569L68.0833 18.8544L67.5929 18.7569ZM69.1092 15.92L68.7557 15.5665V15.5665L69.1092 15.92ZM71.9461 14.4037L72.0436 14.8941L71.9461 14.4037ZM75.1472 14.719L74.9559 15.181L75.1472 14.719ZM70.6763 22.1885L71.0299 21.8349V21.8349L70.6763 22.1885ZM74.8739 22.6019L75.1517 23.0176L74.8739 22.6019ZM76.2874 19.1893L75.797 19.2868V19.2868L76.2874 19.1893ZM75.3776 17.4871L75.7312 17.1336L75.7312 17.1336L75.3776 17.4871ZM73.6755 16.5774L73.7731 16.087L73.6755 16.5774ZM71.7548 16.7665L71.9462 17.2285V17.2285L71.7548 16.7665ZM59.5554 76.1051L59.9712 75.8273L59.5554 76.1051ZM69.5963 74.1079L70.0867 74.2054H70.0867L69.5963 74.1079ZM69.281 70.9067L68.8191 71.098H68.8191L69.281 70.9067ZM60.2445 69.1092L59.8909 68.7557L60.2445 69.1092ZM66.9263 74.8739L67.342 75.1517L67.342 75.1516L66.9263 74.8739ZM65.4344 76.0982L65.6257 76.5602L65.4344 76.0982ZM63.5137 76.2874L63.6112 75.797H63.6112L63.5137 76.2874ZM61.8116 75.3776L62.1651 75.0241H62.1651L61.8116 75.3776ZM60.9018 73.6755L60.4114 73.7731V73.7731L60.9018 73.6755ZM61.0909 71.7548L61.5529 71.9462V71.9461L61.0909 71.7548ZM62.3153 70.2629L62.5931 70.6786L62.3153 70.2629ZM66.5129 70.6763L66.1593 71.0299L66.5129 70.6763ZM6.3662 67.2403L6.78193 66.9625H6.78193L6.3662 67.2403ZM7.05523 60.2444L7.40879 60.5979H7.40879L7.05523 60.2444ZM14.0511 59.5554L13.7734 59.9711H13.7734L14.0511 59.5554ZM16.4071 65.2431L16.8975 65.3406L16.4071 65.2431ZM8.85271 69.2809L8.66137 69.7429L8.85271 69.2809ZM13.7371 66.009L14.1528 66.2868H14.1528L13.7371 66.009ZM13.3236 61.8115L12.9701 62.1651H12.9701L13.3236 61.8115ZM7.71254 64.8107L7.22215 64.9082H7.22215L7.71254 64.8107ZM8.62234 66.5128L8.97589 66.1592H8.97589L8.62234 66.5128ZM10.3244 67.4226L10.422 66.9322H10.422L10.3244 67.4226ZM12.5811 28.7026C12.5808 27.5597 12.2564 26.4403 11.6454 25.4745L10.8003 26.0091C11.3101 26.815 11.5809 27.7491 11.5811 28.7028L12.5811 28.7026ZM11.2199 32.5237C12.1005 31.445 12.5814 30.0951 12.5811 28.7026L11.5811 28.7028C11.5813 29.8648 11.1801 30.9912 10.4453 31.8914L11.2199 32.5237ZM7.74865 34.6223C9.11304 34.3438 10.3393 33.6025 11.2199 32.5237L10.4453 31.8914C9.71043 32.7915 8.68717 33.4101 7.54865 33.6425L7.74865 34.6223ZM8.14865 37.5676V34.1324H7.14865V37.5676H8.14865ZM8.97587 39.5647C8.44621 39.035 8.14865 38.3166 8.14865 37.5676H7.14865C7.14865 38.5818 7.55157 39.5546 8.26877 40.2718L8.97587 39.5647ZM10.973 40.3919C10.2239 40.3919 9.50554 40.0943 8.97587 39.5647L8.26877 40.2718C8.98597 40.989 9.9587 41.3919 10.973 41.3919V40.3919ZM18.7297 40.3919H10.973V41.3919H18.7297V40.3919ZM25.1667 25.1667C20.9794 29.3539 18.5058 34.9534 18.2303 40.8686L19.2292 40.9152C19.4932 35.2487 21.8627 29.8849 25.8738 25.8738L25.1667 25.1667ZM40.8686 18.2303C34.9534 18.5058 29.3539 20.9794 25.1667 25.1667L25.8738 25.8738C29.8849 21.8627 35.2487 19.4932 40.9152 19.2292L40.8686 18.2303ZM40.3919 10.973V18.7297H41.3919V10.973H40.3919ZM42.1611 6.70168C41.0283 7.8345 40.3919 9.37093 40.3919 10.973H41.3919C41.3919 9.63615 41.9229 8.35407 42.8682 7.40878L42.1611 6.70168ZM46.4324 4.93244C44.8304 4.93244 43.2939 5.56886 42.1611 6.70168L42.8682 7.40878C43.8135 6.4635 45.0956 5.93244 46.4324 5.93244V4.93244ZM49.8676 4.93244H46.4324V5.93244H49.8676V4.93244ZM51.7161 1.67526C50.5104 2.56246 49.677 3.86575 49.3777 5.33245L50.3575 5.53244C50.6073 4.30856 51.3027 3.22103 52.3087 2.4807L51.7161 1.67526ZM55.9033 0.530601C54.4139 0.380145 52.9218 0.78806 51.7161 1.67526L52.3087 2.4807C53.3148 1.74037 54.56 1.39999 55.8028 1.52554L55.9033 0.530601ZM59.777 2.48958C58.7731 1.37917 57.3926 0.681057 55.9033 0.530601L55.8028 1.52554C57.0456 1.65109 58.1975 2.23362 59.0352 3.16021L59.777 2.48958ZM61.3367 6.54055C61.3367 5.04361 60.7809 3.6 59.777 2.48958L59.0352 3.16021C59.8729 4.0868 60.3367 5.29143 60.3367 6.54055H61.3367ZM59.777 10.5915C60.7809 9.48111 61.3367 8.03749 61.3367 6.54055H60.3367C60.3367 7.78968 59.8729 8.9943 59.0352 9.92089L59.777 10.5915ZM55.9033 12.5505C57.3926 12.4 58.7731 11.7019 59.777 10.5915L59.0352 9.92089C58.1975 10.8475 57.0456 11.43 55.8028 11.5556L55.9033 12.5505ZM51.7161 11.4058C52.9218 12.293 54.4139 12.701 55.9033 12.5505L55.8028 11.5556C54.56 11.6811 53.3148 11.3407 52.3087 10.6004L51.7161 11.4058ZM49.3777 7.74866C49.677 9.21536 50.5104 10.5186 51.7161 11.4058L52.3087 10.6004C51.3027 9.86007 50.6073 8.77254 50.3575 7.54866L49.3777 7.74866ZM46.4324 8.14866H49.8676V7.14866H46.4324V8.14866ZM44.4353 8.97589C44.965 8.44622 45.6834 8.14866 46.4324 8.14866V7.14866C45.4182 7.14866 44.4454 7.55158 43.7282 8.26878L44.4353 8.97589ZM43.6081 10.973C43.6081 10.2239 43.9057 9.50555 44.4353 8.97588L43.7282 8.26878C43.011 8.98598 42.6081 9.95871 42.6081 10.973H43.6081ZM43.6081 18.7297V10.973H42.6081V18.7297H43.6081ZM58.8333 25.1667C54.6461 20.9794 49.0466 18.5058 43.1314 18.2303L43.0848 19.2292C48.7513 19.4932 54.1151 21.8627 58.1262 25.8738L58.8333 25.1667ZM65.7697 40.8686C65.4941 34.9534 63.0206 29.3539 58.8333 25.1667L58.1262 25.8738C62.1373 29.8849 64.5068 35.2487 64.7708 40.9152L65.7697 40.8686ZM73.027 40.3919H65.2703V41.3919H73.027V40.3919ZM77.2983 42.1611C76.1655 41.0283 74.6291 40.3919 73.027 40.3919V41.3919C74.3639 41.3919 75.6459 41.923 76.5912 42.8682L77.2983 42.1611ZM79.0676 46.4324C79.0676 44.8304 78.4311 43.294 77.2983 42.1611L76.5912 42.8682C77.5365 43.8135 78.0676 45.0956 78.0676 46.4324H79.0676ZM79.0676 49.8676V46.4324H78.0676V49.8676H79.0676ZM82.3247 51.7161C81.4375 50.5104 80.1343 49.6771 78.6676 49.3777L78.4676 50.3575C79.6914 50.6073 80.779 51.3027 81.5193 52.3088L82.3247 51.7161ZM83.4694 55.9033C83.6199 54.4139 83.2119 52.9218 82.3247 51.7161L81.5193 52.3088C82.2596 53.3148 82.6 54.56 82.4745 55.8028L83.4694 55.9033ZM81.5104 59.777C82.6208 58.7731 83.3189 57.3927 83.4694 55.9033L82.4745 55.8028C82.3489 57.0456 81.7664 58.1975 80.8398 59.0352L81.5104 59.777ZM77.4594 61.3367C78.9564 61.3367 80.4 60.7809 81.5104 59.777L80.8398 59.0352C79.9132 59.8729 78.7086 60.3367 77.4594 60.3367V61.3367ZM73.4085 59.777C74.5189 60.7809 75.9625 61.3367 77.4594 61.3367V60.3367C76.2103 60.3367 75.0057 59.8729 74.0791 59.0352L73.4085 59.777ZM71.4495 55.9033C71.6 57.3927 72.2981 58.7731 73.4085 59.777L74.0791 59.0352C73.1525 58.1975 72.57 57.0456 72.4444 55.8028L71.4495 55.9033ZM72.5942 51.7161C71.707 52.9218 71.299 54.4139 71.4495 55.9033L72.4444 55.8028C72.3189 54.56 72.6593 53.3148 73.3996 52.3088L72.5942 51.7161ZM76.2513 49.3777C74.7846 49.6771 73.4814 50.5104 72.5942 51.7161L73.3996 52.3088C74.1399 51.3027 75.2275 50.6073 76.4513 50.3575L76.2513 49.3777ZM75.8513 46.4324V49.8676H76.8513V46.4324H75.8513ZM75.0241 44.4353C75.5538 44.965 75.8513 45.6834 75.8513 46.4324H76.8513C76.8513 45.4182 76.4484 44.4454 75.7312 43.7282L75.0241 44.4353ZM73.027 43.6081C73.7761 43.6081 74.4945 43.9057 75.0241 44.4353L75.7312 43.7282C75.014 43.011 74.0413 42.6081 73.027 42.6081V43.6081ZM65.2703 43.6081H73.027V42.6081H65.2703V43.6081ZM58.8333 58.8333C63.0206 54.6461 65.4941 49.0466 65.7697 43.1314L64.7708 43.0848C64.5068 48.7513 62.1373 54.1151 58.1262 58.1262L58.8333 58.8333ZM43.1314 65.7697C49.0466 65.4942 54.6461 63.0206 58.8333 58.8333L58.1262 58.1262C54.1151 62.1373 48.7513 64.5068 43.0848 64.7708L43.1314 65.7697ZM43.6081 73.027V65.2703H42.6081V73.027H43.6081ZM41.8389 77.2983C42.9717 76.1655 43.6081 74.6291 43.6081 73.027H42.6081C42.6081 74.3639 42.077 75.6459 41.1318 76.5912L41.8389 77.2983ZM37.5676 79.0676C39.1696 79.0676 40.706 78.4312 41.8389 77.2983L41.1318 76.5912C40.1865 77.5365 38.9044 78.0676 37.5676 78.0676V79.0676ZM34.1324 79.0676H37.5676V78.0676H34.1324V79.0676ZM32.2839 82.3247C33.4896 81.4375 34.3229 80.1343 34.6223 78.6676L33.6425 78.4676C33.3927 79.6914 32.6973 80.779 31.6912 81.5193L32.2839 82.3247ZM28.0967 83.4694C29.5861 83.6199 31.0782 83.212 32.2839 82.3247L31.6912 81.5193C30.6852 82.2596 29.44 82.6 28.1972 82.4745L28.0967 83.4694ZM24.223 81.5104C25.2269 82.6208 26.6073 83.3189 28.0967 83.4694L28.1972 82.4745C26.9544 82.3489 25.8025 81.7664 24.9648 80.8398L24.223 81.5104ZM22.6633 77.4595C22.6633 78.9564 23.2191 80.4 24.223 81.5104L24.9648 80.8398C24.1271 79.9132 23.6633 78.7086 23.6633 77.4595H22.6633ZM24.223 73.4085C23.2191 74.5189 22.6633 75.9625 22.6633 77.4595H23.6633C23.6633 76.2103 24.1271 75.0057 24.9648 74.0791L24.223 73.4085ZM28.0967 71.4495C26.6073 71.6 25.2269 72.2981 24.223 73.4085L24.9648 74.0791C25.8025 73.1525 26.9544 72.57 28.1972 72.4444L28.0967 71.4495ZM32.2839 72.5942C31.0782 71.707 29.5861 71.2991 28.0967 71.4495L28.1972 72.4444C29.44 72.3189 30.6852 72.6593 31.6912 73.3996L32.2839 72.5942ZM34.6223 76.2514C34.3229 74.7847 33.4896 73.4814 32.2839 72.5942L31.6912 73.3996C32.6973 74.1399 33.3927 75.2275 33.6425 76.4513L34.6223 76.2514ZM37.5676 75.8513H34.1324V76.8513H37.5676V75.8513ZM39.5647 75.0241C39.035 75.5538 38.3166 75.8513 37.5676 75.8513V76.8513C38.5818 76.8513 39.5546 76.4484 40.2718 75.7312L39.5647 75.0241ZM40.3919 73.027C40.3919 73.7761 40.0943 74.4945 39.5647 75.0241L40.2718 75.7312C40.989 75.014 41.3919 74.0413 41.3919 73.027H40.3919ZM40.3919 65.2703V73.027H41.3919V65.2703H40.3919ZM25.1667 58.8333C29.3539 63.0206 34.9534 65.4942 40.8686 65.7697L40.9152 64.7708C35.2487 64.5068 29.8849 62.1373 25.8738 58.1262L25.1667 58.8333ZM18.2303 43.1314C18.5058 49.0466 20.9794 54.6461 25.1667 58.8333L25.8738 58.1262C21.8627 54.1151 19.4932 48.7513 19.2292 43.0848L18.2303 43.1314ZM10.973 43.6081H18.7297V42.6081H10.973V43.6081ZM6.70166 41.8389C7.83449 42.9717 9.37092 43.6081 10.973 43.6081V42.6081C9.63614 42.6081 8.35406 42.0771 7.40877 41.1318L6.70166 41.8389ZM4.93243 37.5676C4.93243 39.1696 5.56884 40.7061 6.70167 41.8389L7.40877 41.1318C6.46349 40.1865 5.93243 38.9044 5.93243 37.5676H4.93243ZM4.93243 34.1324V37.5676H5.93243V34.1324H4.93243ZM2.35632 33.0605C3.18063 33.8522 4.21262 34.3938 5.33243 34.6223L5.53243 33.6425C4.598 33.4518 3.73686 32.9999 3.04901 32.3393L2.35632 33.0605ZM0.67563 30.1499C0.949223 31.2595 1.53202 32.2688 2.35632 33.0605L3.04901 32.3393C2.36117 31.6786 1.87486 30.8364 1.64655 29.9105L0.67563 30.1499ZM0.810691 26.7915C0.448869 27.8757 0.402036 29.0402 0.67563 30.1499L1.64655 29.9105C1.41825 28.9845 1.45733 28.0128 1.75926 27.1081L0.810691 26.7915ZM2.71969 24.0252C1.83447 24.7482 1.17251 25.7074 0.810691 26.7915L1.75926 27.1081C2.06118 26.2035 2.61355 25.403 3.35222 24.7998L2.71969 24.0252ZM5.81161 22.7074C4.67706 22.8454 3.60491 23.3023 2.71969 24.0252L3.35222 24.7998C4.0909 24.1965 4.98555 23.8152 5.93228 23.7001L5.81161 22.7074ZM9.1292 23.2461C8.09657 22.7563 6.94616 22.5695 5.81161 22.7074L5.93228 23.7001C6.87901 23.5851 7.83897 23.7409 8.70066 24.1496L9.1292 23.2461ZM11.6454 25.4745C11.0343 24.5086 10.1618 23.7359 9.1292 23.2461L8.70065 24.1496C9.56234 24.5583 10.2904 25.2031 10.8003 26.0091L11.6454 25.4745ZM28.7027 80.2838C28.1441 80.2838 27.598 80.1181 27.1336 79.8078L26.578 80.6393C27.2069 81.0595 27.9463 81.2838 28.7027 81.2838V80.2838ZM30.6998 79.4566C30.1701 79.9862 29.4518 80.2838 28.7027 80.2838V81.2838C29.717 81.2838 30.6897 80.8809 31.4069 80.1637L30.6998 79.4566ZM31.527 77.4595C31.527 78.2085 31.2295 78.9269 30.6998 79.4566L31.4069 80.1637C32.1241 79.4465 32.527 78.4737 32.527 77.4595H31.527ZM31.051 75.8903C31.3614 76.3548 31.527 76.9009 31.527 77.4595H32.527C32.527 76.7031 32.3027 75.9637 31.8825 75.3348L31.051 75.8903ZM29.7835 74.8501C30.2996 75.0639 30.7407 75.4259 31.051 75.8903L31.8825 75.3348C31.4623 74.7059 30.865 74.2157 30.1662 73.9262L29.7835 74.8501ZM28.1517 74.6894C28.6996 74.5804 29.2674 74.6364 29.7835 74.8501L30.1662 73.9262C29.4674 73.6368 28.6985 73.5611 27.9566 73.7086L28.1517 74.6894ZM26.7056 75.4624C27.1006 75.0674 27.6038 74.7984 28.1517 74.6894L27.9566 73.7086C27.2148 73.8562 26.5333 74.2204 25.9985 74.7552L26.7056 75.4624ZM25.9326 76.9085C26.0416 76.3606 26.3106 75.8573 26.7056 75.4624L25.9985 74.7552C25.4637 75.2901 25.0994 75.9715 24.9519 76.7134L25.9326 76.9085ZM26.0934 78.5403C25.8796 78.0242 25.8237 77.4563 25.9326 76.9084L24.9519 76.7134C24.8043 77.4552 24.88 78.2242 25.1695 78.923L26.0934 78.5403ZM27.1336 79.8078C26.6691 79.4975 26.3071 79.0564 26.0934 78.5403L25.1695 78.923C25.4589 79.6218 25.9491 80.219 26.578 80.6393L27.1336 79.8078ZM80.2838 55.2973C80.2838 55.8559 80.1181 56.402 79.8078 56.8664L80.6393 57.422C81.0595 56.7931 81.2838 56.0537 81.2838 55.2973H80.2838ZM79.4566 53.3002C79.9862 53.8299 80.2838 54.5482 80.2838 55.2973H81.2838C81.2838 54.283 80.8809 53.3103 80.1637 52.5931L79.4566 53.3002ZM77.4594 52.473C78.2085 52.473 78.9269 52.7705 79.4566 53.3002L80.1637 52.5931C79.4464 51.8759 78.4737 51.473 77.4594 51.473V52.473ZM75.8903 52.949C76.3548 52.6386 76.9008 52.473 77.4594 52.473V51.473C76.7031 51.473 75.9637 51.6973 75.3348 52.1175L75.8903 52.949ZM74.8501 54.2165C75.0639 53.7004 75.4259 53.2593 75.8903 52.949L75.3348 52.1175C74.7059 52.5377 74.2157 53.135 73.9262 53.8338L74.8501 54.2165ZM74.6894 55.8483C74.5804 55.3004 74.6363 54.7326 74.8501 54.2165L73.9262 53.8338C73.6368 54.5326 73.561 55.3015 73.7086 56.0434L74.6894 55.8483ZM75.4623 57.2944C75.0674 56.8994 74.7984 56.3962 74.6894 55.8483L73.7086 56.0434C73.8562 56.7852 74.2204 57.4667 74.7552 58.0015L75.4623 57.2944ZM76.9084 58.0674C76.3606 57.9584 75.8573 57.6894 75.4623 57.2944L74.7552 58.0015C75.2901 58.5363 75.9715 58.9006 76.7134 59.0481L76.9084 58.0674ZM78.5403 57.9066C78.0242 58.1204 77.4563 58.1763 76.9085 58.0674L76.7134 59.0481C77.4552 59.1957 78.2242 59.12 78.923 58.8305L78.5403 57.9066ZM79.8078 56.8664C79.4974 57.3309 79.0563 57.6929 78.5403 57.9066L78.923 58.8305C79.6217 58.5411 80.219 58.0509 80.6393 57.422L79.8078 56.8664ZM55.2973 3.71623C55.8559 3.71623 56.4019 3.88187 56.8664 4.19221L57.422 3.36074C56.7931 2.94052 56.0537 2.71623 55.2973 2.71623V3.71623ZM53.3002 4.54345C53.8299 4.01379 54.5482 3.71623 55.2973 3.71623V2.71623C54.283 2.71623 53.3103 3.11915 52.5931 3.83635L53.3002 4.54345ZM52.473 6.54055C52.473 5.7915 52.7705 5.07312 53.3002 4.54345L52.5931 3.83635C51.8759 4.55355 51.473 5.52628 51.473 6.54055H52.473ZM52.949 8.10966C52.6386 7.6452 52.473 7.09915 52.473 6.54055H51.473C51.473 7.29693 51.6973 8.03633 52.1175 8.66523L52.949 8.10966ZM54.2165 9.14989C53.7004 8.93612 53.2593 8.57412 52.949 8.10966L52.1175 8.66523C52.5377 9.29414 53.135 9.78431 53.8338 10.0738L54.2165 9.14989ZM55.8483 9.31061C55.3004 9.41959 54.7325 9.36365 54.2165 9.14989L53.8338 10.0738C54.5326 10.3632 55.3015 10.439 56.0434 10.2914L55.8483 9.31061ZM57.2944 8.53765C56.8994 8.93264 56.3961 9.20163 55.8483 9.31061L56.0434 10.2914C56.7852 10.1438 57.4667 9.7796 58.0015 9.24476L57.2944 8.53765ZM58.0673 7.09155C57.9584 7.63941 57.6894 8.14266 57.2944 8.53765L58.0015 9.24476C58.5363 8.70992 58.9006 8.02849 59.0481 7.28664L58.0673 7.09155ZM57.9066 5.45973C58.1204 5.97581 58.1763 6.54369 58.0673 7.09155L59.0481 7.28664C59.1957 6.54479 59.12 5.77585 58.8305 5.07705L57.9066 5.45973ZM56.8664 4.19221C57.3309 4.50255 57.6929 4.94365 57.9066 5.45973L58.8305 5.07704C58.541 4.37824 58.0509 3.78097 57.422 3.36074L56.8664 4.19221ZM42 21.446C46.0652 21.446 50.0391 22.6514 53.4192 24.9099L53.9748 24.0785C50.4302 21.7101 46.263 20.446 42 20.446V21.446ZM27.4661 27.4661C31.3207 23.6115 36.5487 21.446 42 21.446V20.446C36.2835 20.446 30.8011 22.7168 26.759 26.759L27.4661 27.4661ZM21.4459 42C21.4459 36.5487 23.6115 31.3207 27.4661 27.4661L26.759 26.759C22.7168 30.8012 20.4459 36.2835 20.4459 42H21.4459ZM24.9099 53.4192C22.6514 50.0391 21.4459 46.0652 21.4459 42H20.4459C20.4459 46.263 21.7101 50.4302 24.0785 53.9748L24.9099 53.4192ZM34.1343 60.9895C30.3785 59.4338 27.1684 56.7993 24.9099 53.4192L24.0785 53.9748C26.4468 57.5193 29.8131 60.282 33.7516 61.9134L34.1343 60.9895ZM46.0099 62.1591C42.0228 62.9522 37.8901 62.5452 34.1343 60.9895L33.7516 61.9134C37.6901 63.5447 42.0239 63.9716 46.205 63.1399L46.0099 62.1591ZM56.5339 56.5339C53.6594 59.4085 49.997 61.366 46.0099 62.1591L46.205 63.1399C50.3861 62.3082 54.2266 60.2554 57.241 57.241L56.5339 56.5339ZM62.1591 46.0099C61.366 49.997 59.4084 53.6594 56.5339 56.5339L57.241 57.241C60.2554 54.2266 62.3082 50.3861 63.1399 46.205L62.1591 46.0099ZM60.9895 34.1343C62.5451 37.8901 62.9522 42.0228 62.1591 46.0099L63.1399 46.205C63.9716 42.0239 63.5447 37.6901 61.9133 33.7516L60.9895 34.1343ZM53.4192 24.9099C56.7993 27.1684 59.4338 30.3785 60.9895 34.1343L61.9133 33.7516C60.282 29.8131 57.5193 26.4469 53.9748 24.0785L53.4192 24.9099ZM3.71622 28.7027C3.71622 28.1441 3.88186 27.5981 4.1922 27.1336L3.36073 26.578C2.94051 27.2069 2.71622 27.9463 2.71622 28.7027H3.71622ZM4.54344 30.6998C4.01378 30.1701 3.71622 29.4518 3.71622 28.7027H2.71622C2.71622 29.717 3.11913 30.6897 3.83633 31.4069L4.54344 30.6998ZM6.54054 31.527C5.79148 31.527 5.0731 31.2295 4.54344 30.6998L3.83633 31.4069C4.55353 32.1241 5.52627 32.527 6.54054 32.527V31.527ZM8.10965 31.051C7.64519 31.3614 7.09914 31.527 6.54054 31.527V32.527C7.29692 32.527 8.03631 32.3027 8.66522 31.8825L8.10965 31.051ZM9.14988 29.7835C8.93611 30.2996 8.57411 30.7407 8.10965 31.0511L8.66522 31.8825C9.29413 31.4623 9.7843 30.865 10.0738 30.1662L9.14988 29.7835ZM9.3106 28.1517C9.41957 28.6996 9.36364 29.2675 9.14988 29.7835L10.0738 30.1662C10.3632 29.4674 10.4389 28.6985 10.2914 27.9566L9.3106 28.1517ZM8.53764 26.7056C8.93263 27.1006 9.20162 27.6038 9.3106 28.1517L10.2914 27.9566C10.1438 27.2148 9.77959 26.5333 9.24475 25.9985L8.53764 26.7056ZM7.09154 25.9327C7.6394 26.0416 8.14265 26.3106 8.53764 26.7056L9.24475 25.9985C8.70991 25.4637 8.02848 25.0994 7.28663 24.9519L7.09154 25.9327ZM5.45972 26.0934C5.9758 25.8796 6.54368 25.8237 7.09154 25.9327L7.28663 24.9519C6.54478 24.8043 5.77584 24.88 5.07703 25.1695L5.45972 26.0934ZM4.1922 27.1336C4.50254 26.6691 4.94364 26.3071 5.45972 26.0934L5.07703 25.1695C4.37823 25.459 3.78095 25.9491 3.36073 26.578L4.1922 27.1336ZM46.4325 49.2568H33.1352V50.2568H46.4325V49.2568ZM48.4296 48.4296C47.8999 48.9592 47.1815 49.2568 46.4325 49.2568V50.2568C47.4467 50.2568 48.4195 49.8539 49.1367 49.1367L48.4296 48.4296ZM49.2568 46.4325C49.2568 47.1815 48.9592 47.8999 48.4296 48.4296L49.1367 49.1367C49.8539 48.4195 50.2568 47.4467 50.2568 46.4325H49.2568ZM48.4296 44.4354C48.9592 44.965 49.2568 45.6834 49.2568 46.4325H50.2568C50.2568 45.4182 49.8539 44.4454 49.1367 43.7282L48.4296 44.4354ZM46.4325 43.6081C47.1815 43.6081 47.8999 43.9057 48.4296 44.4354L49.1367 43.7282C48.4195 43.0111 47.4467 42.6081 46.4325 42.6081V43.6081ZM37.5676 43.6081H46.4325V42.6081H37.5676V43.6081ZM33.2963 41.8389C34.4291 42.9717 35.9655 43.6081 37.5676 43.6081V42.6081C36.2308 42.6081 34.9487 42.0771 34.0034 41.1318L33.2963 41.8389ZM31.5271 37.5676C31.5271 39.1696 32.1635 40.7061 33.2963 41.8389L34.0034 41.1318C33.0581 40.1865 32.5271 38.9044 32.5271 37.5676H31.5271ZM33.2963 33.2963C32.1635 34.4291 31.5271 35.9655 31.5271 37.5676H32.5271C32.5271 36.2308 33.0581 34.9487 34.0034 34.0034L33.2963 33.2963ZM37.5676 31.5271C35.9655 31.5271 34.4291 32.1635 33.2963 33.2963L34.0034 34.0034C34.9487 33.0581 36.2308 32.5271 37.5676 32.5271V31.5271ZM40.8919 31.5271H37.5676V32.5271H40.8919V31.5271ZM40.3919 28.7027V32.0271H41.3919V28.7027H40.3919ZM40.8629 27.5656C40.5613 27.8672 40.3919 28.2762 40.3919 28.7027H41.3919C41.3919 28.5414 41.456 28.3868 41.57 28.2727L40.8629 27.5656ZM42 27.0946C41.5735 27.0946 41.1645 27.264 40.8629 27.5656L41.57 28.2727C41.6841 28.1587 41.8387 28.0946 42 28.0946V27.0946ZM43.1371 27.5656C42.8356 27.264 42.4265 27.0946 42 27.0946V28.0946C42.1613 28.0946 42.316 28.1587 42.43 28.2727L43.1371 27.5656ZM43.6081 28.7027C43.6081 28.2762 43.4387 27.8672 43.1371 27.5656L42.43 28.2727C42.5441 28.3868 42.6081 28.5414 42.6081 28.7027H43.6081ZM43.6081 32.0271V28.7027H42.6081V32.0271H43.6081ZM50.8649 31.5271H43.1081V32.5271H50.8649V31.5271ZM52.002 31.9981C51.7004 31.6965 51.2914 31.5271 50.8649 31.5271V32.5271C51.0262 32.5271 51.1809 32.5911 51.2949 32.7052L52.002 31.9981ZM52.473 33.1352C52.473 32.7087 52.3036 32.2996 52.002 31.9981L51.2949 32.7052C51.4089 32.8192 51.473 32.9739 51.473 33.1352H52.473ZM52.002 34.2723C52.3036 33.9707 52.473 33.5617 52.473 33.1352H51.473C51.473 33.2964 51.4089 33.4511 51.2949 33.5652L52.002 34.2723ZM50.8649 34.7433C51.2914 34.7433 51.7004 34.5738 52.002 34.2723L51.2949 33.5652C51.1809 33.6792 51.0262 33.7433 50.8649 33.7433V34.7433ZM37.5676 34.7433H50.8649V33.7433H37.5676V34.7433ZM35.5705 35.5705C36.1002 35.0408 36.8185 34.7433 37.5676 34.7433V33.7433C36.5533 33.7433 35.5806 34.1462 34.8634 34.8634L35.5705 35.5705ZM34.7433 37.5676C34.7433 36.8185 35.0408 36.1002 35.5705 35.5705L34.8634 34.8634C34.1462 35.5806 33.7433 36.5533 33.7433 37.5676H34.7433ZM35.5705 39.5647C35.0408 39.035 34.7433 38.3166 34.7433 37.5676H33.7433C33.7433 38.5819 34.1462 39.5546 34.8634 40.2718L35.5705 39.5647ZM37.5676 40.3919C36.8185 40.3919 36.1002 40.0944 35.5705 39.5647L34.8634 40.2718C35.5806 40.989 36.5533 41.3919 37.5676 41.3919V40.3919ZM46.4325 40.3919H37.5676V41.3919H46.4325V40.3919ZM50.7038 42.1611C49.571 41.0283 48.0345 40.3919 46.4325 40.3919V41.3919C47.7693 41.3919 49.0514 41.923 49.9967 42.8683L50.7038 42.1611ZM52.473 46.4325C52.473 44.8304 51.8366 43.294 50.7038 42.1611L49.9967 42.8683C50.9419 43.8135 51.473 45.0956 51.473 46.4325H52.473ZM50.7038 50.7038C51.8366 49.5709 52.473 48.0345 52.473 46.4325H51.473C51.473 47.7693 50.9419 49.0514 49.9967 49.9967L50.7038 50.7038ZM46.4325 52.473C48.0345 52.473 49.571 51.8366 50.7038 50.7038L49.9967 49.9967C49.0514 50.9419 47.7693 51.473 46.4325 51.473V52.473ZM43.1081 52.473H46.4325V51.473H43.1081V52.473ZM43.6081 55.2973V51.973H42.6081V55.2973H43.6081ZM43.1371 56.4344C43.4387 56.1328 43.6081 55.7238 43.6081 55.2973H42.6081C42.6081 55.4586 42.5441 55.6133 42.43 55.7273L43.1371 56.4344ZM42 56.9054C42.4265 56.9054 42.8356 56.736 43.1371 56.4344L42.43 55.7273C42.316 55.8414 42.1613 55.9054 42 55.9054V56.9054ZM40.8629 56.4344C41.1645 56.736 41.5735 56.9054 42 56.9054V55.9054C41.8387 55.9054 41.6841 55.8414 41.57 55.7273L40.8629 56.4344ZM40.3919 55.2973C40.3919 55.7238 40.5613 56.1328 40.8629 56.4344L41.57 55.7273C41.456 55.6133 41.3919 55.4586 41.3919 55.2973H40.3919ZM40.3919 51.973V55.2973H41.3919V51.973H40.3919ZM33.1352 52.473H40.8919V51.473H33.1352V52.473ZM31.9981 52.002C32.2996 52.3036 32.7087 52.473 33.1352 52.473V51.473C32.9739 51.473 32.8192 51.4089 32.7052 51.2949L31.9981 52.002ZM31.5271 50.8649C31.5271 51.2914 31.6965 51.7004 31.9981 52.002L32.7052 51.2949C32.5911 51.1808 32.5271 51.0262 32.5271 50.8649H31.5271ZM31.9981 49.7278C31.6965 50.0294 31.5271 50.4384 31.5271 50.8649H32.5271C32.5271 50.7036 32.5911 50.5489 32.7052 50.4349L31.9981 49.7278ZM33.1352 49.2568C32.7087 49.2568 32.2996 49.4262 31.9981 49.7278L32.7052 50.4349C32.8192 50.3208 32.9739 50.2568 33.1352 50.2568V49.2568ZM24.029 8.17256C24.5829 9.00147 24.8785 9.97601 24.8785 10.9729H25.8785C25.8785 9.77823 25.5242 8.61035 24.8605 7.61699L24.029 8.17256ZM21.7669 6.31608C22.6879 6.69759 23.4752 7.34364 24.029 8.17256L24.8605 7.61699C24.1968 6.62363 23.2534 5.84939 22.1496 5.3922L21.7669 6.31608ZM18.8546 6.02924C19.8324 5.83475 20.8459 5.93457 21.7669 6.31608L22.1496 5.3922C21.0458 4.935 19.8313 4.81538 18.6595 5.04846L18.8546 6.02924ZM16.2738 7.40873C16.9787 6.7038 17.8768 6.22373 18.8546 6.02924L18.6595 5.04846C17.4878 5.28153 16.4115 5.85684 15.5667 6.70162L16.2738 7.40873ZM14.8943 9.98957C15.0888 9.0118 15.5688 8.11366 16.2738 7.40873L15.5667 6.70162C14.7219 7.54641 14.1466 8.62273 13.9135 9.79448L14.8943 9.98957ZM15.1811 12.9019C14.7996 11.9808 14.6998 10.9673 14.8943 9.98957L13.9135 9.79448C13.6804 10.9662 13.8 12.1808 14.2572 13.2845L15.1811 12.9019ZM17.0376 15.164C16.2087 14.6101 15.5626 13.8229 15.1811 12.9019L14.2572 13.2845C14.7144 14.3883 15.4887 15.3317 16.482 15.9955L17.0376 15.164ZM19.838 16.0135C18.841 16.0135 17.8665 15.7178 17.0376 15.164L16.482 15.9955C17.4754 16.6592 18.6433 17.0135 19.838 17.0135V16.0135ZM23.4022 14.5371C22.4569 15.4824 21.1748 16.0135 19.838 16.0135V17.0135C21.44 17.0135 22.9765 16.3771 24.1093 15.2442L23.4022 14.5371ZM24.8785 10.9729C24.8785 12.3098 24.3475 13.5918 23.4022 14.5371L24.1093 15.2442C25.2421 14.1114 25.8785 12.575 25.8785 10.9729H24.8785ZM16.6582 8.84825C16.2379 9.47716 16.0136 10.2166 16.0136 10.9729H17.0137C17.0137 10.4143 17.1793 9.86828 17.4896 9.40382L16.6582 8.84825ZM18.3745 7.43972C17.6757 7.72917 17.0784 8.21935 16.6582 8.84825L17.4896 9.40382C17.8 8.93936 18.2411 8.57736 18.7572 8.3636L18.3745 7.43972ZM20.5841 7.22209C19.8422 7.07453 19.0733 7.15026 18.3745 7.43972L18.7572 8.3636C19.2732 8.14983 19.8411 8.0939 20.389 8.20288L20.5841 7.22209ZM22.5422 8.26873C22.0073 7.73388 21.3259 7.36965 20.5841 7.22209L20.389 8.20288C20.9368 8.31185 21.4401 8.58084 21.8351 8.97583L22.5422 8.26873ZM23.5888 10.2268C23.4413 9.485 23.077 8.80357 22.5422 8.26872L21.8351 8.97583C22.2301 9.37082 22.4991 9.87407 22.608 10.4219L23.5888 10.2268ZM23.3712 12.4364C23.6606 11.7376 23.7364 10.9687 23.5888 10.2268L22.608 10.4219C22.717 10.9698 22.6611 11.5377 22.4473 12.0538L23.3712 12.4364ZM21.9627 14.1527C22.5916 13.7325 23.0817 13.1352 23.3712 12.4364L22.4473 12.0538C22.2335 12.5698 21.8715 13.0109 21.4071 13.3213L21.9627 14.1527ZM19.838 14.7973C20.5944 14.7973 21.3337 14.573 21.9627 14.1527L21.4071 13.3213C20.9426 13.6316 20.3966 13.7973 19.838 13.7973V14.7973ZM17.1338 13.6771C17.851 14.3943 18.8237 14.7973 19.838 14.7973V13.7973C19.0889 13.7973 18.3705 13.4997 17.8409 12.97L17.1338 13.6771ZM16.0136 10.9729C16.0136 11.9872 16.4166 12.9599 17.1338 13.6771L17.8409 12.97C17.3112 12.4404 17.0137 11.722 17.0137 10.9729H16.0136ZM79.0675 19.8378C79.0675 18.6431 78.7132 17.4752 78.0495 16.4819L77.218 17.0374C77.7719 17.8663 78.0675 18.8409 78.0675 19.8378H79.0675ZM77.2983 24.1091C78.4311 22.9763 79.0675 21.4399 79.0675 19.8378H78.0675C78.0675 21.1746 77.5365 22.4567 76.5912 23.402L77.2983 24.1091ZM73.027 25.8783C74.629 25.8783 76.1655 25.2419 77.2983 24.1091L76.5912 23.402C75.6459 24.3473 74.3638 24.8783 73.027 24.8783V25.8783ZM69.671 24.8603C70.6644 25.5241 71.8323 25.8783 73.027 25.8783V24.8783C72.03 24.8783 71.0555 24.5827 70.2266 24.0289L69.671 24.8603ZM67.4462 22.1494C67.9034 23.2532 68.6777 24.1966 69.671 24.8603L70.2266 24.0289C69.3977 23.475 68.7516 22.6878 68.3701 21.7667L67.4462 22.1494ZM67.1025 18.6594C66.8694 19.8311 66.989 21.0457 67.4462 22.1494L68.3701 21.7667C67.9886 20.8457 67.8888 19.8322 68.0833 18.8544L67.1025 18.6594ZM68.7557 15.5665C67.9109 16.4113 67.3356 17.4876 67.1025 18.6594L68.0833 18.8544C68.2778 17.8767 68.7578 16.9785 69.4628 16.2736L68.7557 15.5665ZM71.8485 13.9133C70.6768 14.1464 69.6004 14.7217 68.7557 15.5665L69.4628 16.2736C70.1677 15.5687 71.0658 15.0886 72.0436 14.8941L71.8485 13.9133ZM75.3386 14.2571C74.2348 13.7999 73.0203 13.6803 71.8485 13.9133L72.0436 14.8941C73.0214 14.6996 74.0349 14.7994 74.9559 15.181L75.3386 14.2571ZM78.0495 16.4819C77.3858 15.4885 76.4423 14.7143 75.3386 14.2571L74.9559 15.181C75.8769 15.5625 76.6642 16.2085 77.218 17.0374L78.0495 16.4819ZM70.2027 19.8378C70.2027 19.2792 70.3683 18.7332 70.6786 18.2687L69.8472 17.7131C69.4269 18.342 69.2027 19.0814 69.2027 19.8378H70.2027ZM71.0299 21.8349C70.5002 21.3052 70.2027 20.5869 70.2027 19.8378H69.2027C69.2027 20.8521 69.6056 21.8248 70.3228 22.542L71.0299 21.8349ZM73.027 22.6621C72.2779 22.6621 71.5595 22.3646 71.0299 21.8349L70.3228 22.542C71.04 23.2592 72.0127 23.6621 73.027 23.6621V22.6621ZM74.5961 22.1861C74.1316 22.4965 73.5856 22.6621 73.027 22.6621V23.6621C73.7834 23.6621 74.5227 23.4378 75.1517 23.0176L74.5961 22.1861ZM75.6363 20.9186C75.4225 21.4347 75.0605 21.8758 74.5961 22.1861L75.1517 23.0176C75.7806 22.5974 76.2707 22.0001 76.5602 21.3013L75.6363 20.9186ZM75.797 19.2868C75.906 19.8347 75.8501 20.4025 75.6363 20.9186L76.5602 21.3013C76.8496 20.6025 76.9254 19.8336 76.7778 19.0917L75.797 19.2868ZM75.0241 17.8407C75.4191 18.2357 75.688 18.7389 75.797 19.2868L76.7778 19.0917C76.6302 18.3499 76.266 17.6684 75.7312 17.1336L75.0241 17.8407ZM73.578 17.0677C74.1258 17.1767 74.6291 17.4457 75.0241 17.8407L75.7312 17.1336C75.1963 16.5988 74.5149 16.2345 73.7731 16.087L73.578 17.0677ZM71.9462 17.2285C72.4622 17.0147 73.0301 16.9588 73.578 17.0677L73.7731 16.087C73.0312 15.9394 72.2623 16.0151 71.5635 16.3046L71.9462 17.2285ZM70.6786 18.2687C70.989 17.8042 71.4301 17.4422 71.9462 17.2285L71.5635 16.3046C70.8647 16.594 70.2674 17.0842 69.8472 17.7131L70.6786 18.2687ZM59.9712 75.8273C59.4173 74.9984 59.1217 74.0239 59.1217 73.027H58.1217C58.1217 74.2217 58.4759 75.3896 59.1397 76.3829L59.9712 75.8273ZM62.2333 77.6838C61.3122 77.3023 60.525 76.6563 59.9712 75.8273L59.1397 76.3829C59.8034 77.3763 60.7468 78.1505 61.8506 78.6077L62.2333 77.6838ZM65.1456 77.9706C64.1678 78.1651 63.1543 78.0653 62.2333 77.6838L61.8506 78.6077C62.9544 79.0649 64.1689 79.1845 65.3407 78.9514L65.1456 77.9706ZM67.7264 76.5912C67.0215 77.2961 66.1233 77.7762 65.1456 77.9706L65.3407 78.9514C66.5124 78.7184 67.5887 78.1431 68.4335 77.2983L67.7264 76.5912ZM69.1059 74.0103C68.9114 74.9881 68.4313 75.8862 67.7264 76.5912L68.4335 77.2983C69.2783 76.4535 69.8536 75.3772 70.0867 74.2054L69.1059 74.0103ZM68.8191 71.098C69.2006 72.0191 69.3004 73.0326 69.1059 74.0103L70.0867 74.2054C70.3198 73.0337 70.2001 71.8191 69.7429 70.7154L68.8191 71.098ZM66.9626 68.8359C67.7915 69.3898 68.4376 70.177 68.8191 71.098L69.7429 70.7154C69.2858 69.6116 68.5115 68.6682 67.5182 68.0044L66.9626 68.8359ZM64.1622 67.9864C65.1591 67.9864 66.1337 68.2821 66.9626 68.8359L67.5182 68.0044C66.5248 67.3407 65.3569 66.9864 64.1622 66.9864V67.9864ZM60.598 69.4628C61.5433 68.5175 62.8254 67.9864 64.1622 67.9864V66.9864C62.5602 66.9864 61.0237 67.6228 59.8909 68.7557L60.598 69.4628ZM59.1217 73.027C59.1217 71.6901 59.6527 70.4081 60.598 69.4628L59.8909 68.7557C58.7581 69.8885 58.1217 71.4249 58.1217 73.027H59.1217ZM67.342 75.1516C67.7622 74.5227 67.9865 73.7833 67.9865 73.027H66.9865C66.9865 73.5856 66.8209 74.1316 66.5106 74.5961L67.342 75.1516ZM65.6257 76.5602C66.3245 76.2707 66.9218 75.7805 67.342 75.1517L66.5106 74.5961C66.2002 75.0605 65.7591 75.4225 65.243 75.6363L65.6257 76.5602ZM63.4161 76.7778C64.158 76.9254 64.9269 76.8496 65.6257 76.5602L65.243 75.6363C64.727 75.8501 64.1591 75.906 63.6112 75.797L63.4161 76.7778ZM61.458 75.7312C61.9929 76.266 62.6743 76.6302 63.4161 76.7778L63.6112 75.797C63.0633 75.688 62.5601 75.4191 62.1651 75.0241L61.458 75.7312ZM60.4114 73.7731C60.5589 74.5149 60.9232 75.1963 61.458 75.7312L62.1651 75.0241C61.7701 74.6291 61.5011 74.1258 61.3922 73.578L60.4114 73.7731ZM60.629 71.5635C60.3395 72.2623 60.2638 73.0312 60.4114 73.7731L61.3922 73.578C61.2832 73.0301 61.3391 72.4622 61.5529 71.9462L60.629 71.5635ZM62.0375 69.8472C61.4086 70.2674 60.9185 70.8647 60.629 71.5635L61.5529 71.9461C61.7666 71.4301 62.1286 70.989 62.5931 70.6786L62.0375 69.8472ZM64.1622 69.2026C63.4058 69.2026 62.6664 69.4269 62.0375 69.8472L62.5931 70.6786C63.0576 70.3683 63.6036 70.2026 64.1622 70.2026V69.2026ZM66.8664 70.3228C66.1492 69.6056 65.1765 69.2026 64.1622 69.2026V70.2026C64.9113 70.2026 65.6297 70.5002 66.1593 71.0299L66.8664 70.3228ZM67.9865 73.027C67.9865 72.0127 67.5836 71.04 66.8664 70.3228L66.1593 71.0299C66.689 71.5595 66.9865 72.2779 66.9865 73.027H67.9865ZM4.93245 64.1622C4.93245 65.3569 5.28672 66.5247 5.95046 67.5181L6.78193 66.9625C6.22807 66.1336 5.93245 65.1591 5.93245 64.1622H4.93245ZM6.70168 59.8908C5.56886 61.0237 4.93245 62.5601 4.93245 64.1622H5.93245C5.93245 62.8253 6.4635 61.5432 7.40879 60.5979L6.70168 59.8908ZM10.973 58.1216C9.37094 58.1216 7.8345 58.758 6.70168 59.8908L7.40879 60.5979C8.35407 59.6527 9.63615 59.1216 10.973 59.1216V58.1216ZM14.3289 59.1396C13.3356 58.4759 12.1677 58.1216 10.973 58.1216V59.1216C11.9699 59.1216 12.9444 59.4172 13.7734 59.9711L14.3289 59.1396ZM16.5537 61.8505C16.0965 60.7468 15.3223 59.8034 14.3289 59.1396L13.7734 59.9711C14.6023 60.525 15.2483 61.3122 15.6298 62.2332L16.5537 61.8505ZM16.8975 65.3406C17.1305 64.1688 17.0109 62.9543 16.5537 61.8505L15.6298 62.2332C16.0113 63.1543 16.1112 64.1677 15.9167 65.1455L16.8975 65.3406ZM15.2443 68.4335C16.0891 67.5887 16.6644 66.5123 16.8975 65.3406L15.9167 65.1455C15.7222 66.1233 15.2421 67.0214 14.5372 67.7264L15.2443 68.4335ZM12.1514 70.0866C13.3232 69.8535 14.3995 69.2783 15.2443 68.4335L14.5372 67.7264C13.8323 68.4313 12.9341 68.9113 11.9564 69.1058L12.1514 70.0866ZM8.66137 69.7429C9.76514 70.2001 10.9797 70.3197 12.1514 70.0866L11.9564 69.1058C10.9786 69.3003 9.96509 69.2005 9.04406 68.819L8.66137 69.7429ZM5.95046 67.5181C6.61421 68.5115 7.55761 69.2857 8.66137 69.7429L9.04406 68.819C8.12302 68.4375 7.33579 67.7914 6.78193 66.9625L5.95046 67.5181ZM13.7973 64.1622C13.7973 64.7208 13.6317 65.2668 13.3213 65.7313L14.1528 66.2868C14.573 65.6579 14.7973 64.9185 14.7973 64.1622H13.7973ZM12.9701 62.1651C13.4998 62.6947 13.7973 63.4131 13.7973 64.1622H14.7973C14.7973 63.1479 14.3944 62.1751 13.6772 61.4579L12.9701 62.1651ZM10.973 61.3378C11.722 61.3378 12.4404 61.6354 12.9701 62.1651L13.6772 61.4579C12.96 60.7407 11.9873 60.3378 10.973 60.3378V61.3378ZM9.40388 61.8138C9.86834 61.5035 10.4144 61.3378 10.973 61.3378V60.3378C10.2166 60.3378 9.47722 60.5621 8.84831 60.9823L9.40388 61.8138ZM8.36365 63.0813C8.57742 62.5653 8.93942 62.1242 9.40388 61.8138L8.84831 60.9823C8.2194 61.4026 7.72923 61.9998 7.43977 62.6987L8.36365 63.0813ZM8.20293 64.7132C8.09396 64.1653 8.14989 63.5974 8.36365 63.0813L7.43977 62.6987C7.15032 63.3975 7.07458 64.1664 7.22215 64.9082L8.20293 64.7132ZM8.97589 66.1592C8.5809 65.7643 8.31191 65.261 8.20293 64.7132L7.22215 64.9082C7.36971 65.6501 7.73394 66.3315 8.26878 66.8664L8.97589 66.1592ZM10.422 66.9322C9.87412 66.8232 9.37088 66.5542 8.97589 66.1592L8.26878 66.8664C8.80362 67.4012 9.48506 67.7654 10.2269 67.913L10.422 66.9322ZM12.0538 66.7715C11.5377 66.9853 10.9699 67.0412 10.422 66.9322L10.2269 67.913C10.9687 68.0606 11.7377 67.9848 12.4365 67.6954L12.0538 66.7715ZM13.3213 65.7313C13.011 66.1957 12.5699 66.5577 12.0538 66.7715L12.4365 67.6954C13.1353 67.4059 13.7326 66.9157 14.1528 66.2868L13.3213 65.7313Z" fill="#F9DF00"/>
</svg>
