<svg width="97" height="62" viewBox="0 0 97 62" fill="none" xmlns="http://www.w3.org/2000/svg">
<path d="M48.7766 36.6345C49.0831 36.6345 49.3869 36.646 49.6877 36.6682H95.8995C96.2605 36.6682 96.5531 36.9608 96.5531 37.3218C96.5531 37.6828 96.2605 37.9754 95.8995 37.9754H54.3387C55.4708 38.5573 56.5 39.3113 57.3916 40.2028C59.5964 42.4075 60.9601 45.4532 60.9601 48.8173C60.9601 52.1814 59.5964 55.227 57.3916 57.4317C55.1868 59.6364 52.1409 61 48.7766 61C45.4122 61 42.3664 59.6364 40.1615 57.4317C37.9567 55.227 36.593 52.1814 36.593 48.8173C36.593 45.4532 37.9567 42.4075 40.1615 40.2028C41.0531 39.3113 42.0823 38.5573 43.2144 37.9754H1.65366C1.29266 37.9754 1 37.6828 1 37.3218C1 36.9608 1.29266 36.6682 1.65366 36.6682H47.8654C48.1663 36.646 48.4701 36.6345 48.7766 36.6345ZM85.4875 14.978C85.4223 14.763 85.5438 14.5358 85.7588 14.4706C85.9739 14.4054 86.2011 14.5268 86.2663 14.7418L88.1695 20.9899C88.2348 21.2049 88.1133 21.4321 87.8983 21.4973C87.6832 21.5626 87.456 21.4411 87.3908 21.2261L85.4875 14.978ZM94.4461 34.0985L73.5241 33.9768C73.1645 33.9754 72.8741 33.6828 72.8755 33.3232C72.8758 33.2482 72.8889 33.1761 72.9125 33.1092L72.9113 33.1087L84.1578 1.43562C84.2776 1.0958 84.6503 0.917478 84.9902 1.03732C85.2085 1.1143 85.3601 1.2956 85.4089 1.50549L95.0812 33.2585C95.1856 33.6026 94.9913 33.9661 94.6472 34.0704C94.5802 34.0908 94.5125 34.0997 94.4461 34.0985ZM74.4484 32.68L93.5778 32.7913L84.7265 3.7339L74.4484 32.68ZM70.0775 32.5374C70.4371 32.5332 70.7321 32.8212 70.7363 33.1808C70.7405 33.5404 70.4524 33.8353 70.0928 33.8396L60.3141 33.964C59.9545 33.9682 59.6596 33.6801 59.6553 33.3206C59.6541 33.2164 59.6775 33.1177 59.7199 33.0299L59.7192 33.0295L69.2847 13.1994C69.4412 12.875 69.831 12.739 70.1554 12.8955C70.3078 12.9691 70.4187 13.0942 70.4771 13.2398L74.817 23.1784C74.9609 23.5084 74.81 23.8925 74.48 24.0363C74.15 24.1802 73.7659 24.0293 73.622 23.6993L69.8427 15.0444L61.351 32.6484L70.0775 32.5374ZM11.4397 5.39053H35.4972C36.127 5.39053 36.6991 5.64771 37.1135 6.06203C37.5278 6.47634 37.785 7.04842 37.785 7.6782V31.7342C37.785 32.3639 37.5278 32.936 37.1135 33.3503C36.6991 33.7647 36.127 34.0218 35.4972 34.0218H11.4397C10.8099 34.0218 10.2377 33.7647 9.8234 33.3503C9.40906 32.936 9.15186 32.3639 9.15186 31.7342V7.6782C9.15186 7.04842 9.40906 6.47634 9.8234 6.06203C10.2377 5.64771 10.8099 5.39053 11.4397 5.39053ZM35.4972 6.69777H11.4397C11.1707 6.69777 10.9257 6.80828 10.7477 6.98628C10.5697 7.16428 10.4592 7.40927 10.4592 7.6782V31.7342C10.4592 32.0031 10.5697 32.2481 10.7477 32.4261C10.9257 32.6041 11.1707 32.7146 11.4397 32.7146H35.4972C35.7662 32.7146 36.0112 32.6041 36.1892 32.4261C36.3672 32.2481 36.4777 32.0031 36.4777 31.7342V7.6782C36.4777 7.40927 36.3672 7.16428 36.1892 6.98628C36.0112 6.80828 35.7662 6.69777 35.4972 6.69777ZM49.6374 37.9754H47.9157C45.2555 38.1837 42.8642 39.3489 41.0859 41.127C39.1177 43.0951 37.9003 45.814 37.9003 48.8173C37.9003 51.8205 39.1177 54.5394 41.0859 56.5075C43.054 58.4755 45.7731 59.6928 48.7766 59.6928C51.78 59.6928 54.4991 58.4755 56.4673 56.5075C58.4354 54.5394 59.6528 51.8205 59.6528 48.8173C59.6528 45.814 58.4354 43.0951 56.4673 41.127C54.689 39.3489 52.2976 38.1837 49.6374 37.9754Z" fill="#A3FFFF" stroke="#A3FFFF" stroke-width="0.5"/>
</svg>
