<svg width="90" height="111" viewBox="0 0 90 111" fill="none" xmlns="http://www.w3.org/2000/svg">
<path fill-rule="evenodd" clip-rule="evenodd" d="M58.2142 63.9664L60.4531 71.9618C60.5335 72.2979 60.4913 72.6517 60.3341 72.9595L47.6032 95.01C47.4564 95.2351 47.2442 95.4101 46.9952 95.5113C46.7461 95.6126 46.4721 95.6353 46.2098 95.5765L45.8671 95.3786C45.7078 95.3051 45.5693 95.1931 45.4642 95.0526C45.3592 94.9121 45.2907 94.7477 45.2652 94.5741L41.4504 80.3372C40.9824 80.6178 40.5328 80.909 40.0752 81.2055C39.3938 81.647 38.6944 82.1 37.8897 82.5468C37.7067 82.6684 37.4935 82.7369 37.2739 82.7446C37.0543 82.7523 36.8369 82.6989 36.6459 82.5903L25.6777 76.2579C25.4882 76.1467 25.3332 75.9851 25.2301 75.7911C25.127 75.5971 25.0797 75.3782 25.0935 75.1589C25.0361 74.2683 25.0938 73.3846 25.1506 72.5153C25.1846 71.9946 25.2183 71.4792 25.2267 70.9704L11.0557 74.671C10.8927 74.7356 10.716 74.7586 10.5419 74.7378C10.3677 74.717 10.2014 74.6532 10.0581 74.552L9.71534 74.3541C9.53327 74.1563 9.41597 73.9076 9.37914 73.6413C9.3423 73.3751 9.3877 73.1039 9.50925 72.8641L22.1742 50.9278C22.3621 50.6378 22.6474 50.4244 22.9786 50.326L31.0223 48.2672C31.9958 46.0471 33.0925 43.8832 34.3075 41.7855C42.0742 28.1645 54.2887 17.6286 68.9021 11.9451C69.0905 11.8647 69.2949 11.8292 69.4994 11.8415C69.7038 11.8537 69.9026 11.9134 70.08 12.0158C70.2573 12.1182 70.4084 12.2605 70.5213 12.4314C70.6341 12.6024 70.7056 12.7972 70.7301 13.0005C73.1148 28.4979 70.0977 44.3439 62.1849 57.8805C60.9758 59.9816 59.6501 62.0134 58.2142 63.9664ZM68.7064 19.1442L68.5663 17.54L68.2153 15.5093L68.1847 15.0347L67.7583 15.2455L65.9385 16.0228L64.4791 16.7036L63.8066 17.077L61.9208 17.9686L61.7888 18.1971C58.3691 20.1142 55.1137 22.3109 52.056 24.7646L67.9369 33.9335C68.5047 30.0555 68.7792 26.1401 68.7582 22.2208L68.8901 21.9923L68.7194 19.9134L68.7064 19.1442ZM13.3774 71.4413L25.4518 68.206C25.4606 68.0588 25.498 67.928 25.5354 67.7973C25.5728 67.6665 25.6102 67.5358 25.619 67.3886L25.923 65.279L26.3588 62.941C26.3765 62.6465 26.4392 62.34 26.502 62.0334C26.5647 61.7269 26.6274 61.4203 26.6451 61.1259C26.9338 60.3103 27.1617 59.4745 27.3271 58.6253L27.8419 56.9421C28.0323 56.1079 28.2988 55.293 28.6382 54.5075L29.2849 52.5958C29.3548 52.1495 29.5006 51.7185 29.716 51.3214L24.1294 52.8183L13.3774 71.4413ZM28.4542 66.4357C28.0287 69.1009 27.7491 71.7873 27.6165 74.4829L37.2136 80.0238C39.5072 78.5262 41.716 76.9026 43.8298 75.1605L44.2562 74.9497C46.2743 73.3458 48.1592 71.5811 49.8924 69.673C49.9605 69.6505 50.0233 69.6144 50.077 69.5668C50.1307 69.5192 50.1741 69.4611 50.2046 69.3962C51.1323 68.5289 52.0157 67.6153 52.8513 66.6589C53.2052 66.1778 53.5878 65.7131 53.9703 65.2485C54.3528 64.7838 54.7353 64.3191 55.0893 63.838C55.1685 63.6197 55.3271 63.4393 55.5334 63.3327C57.0811 61.1796 58.5806 58.8463 59.8999 56.5612C63.4993 50.4127 66.0768 43.7207 67.5317 36.7462L49.937 26.5879C44.6244 31.3352 40.1176 36.9133 36.5926 43.1048C35.2682 45.3926 34.0616 47.7467 32.9775 50.1578C32.9445 50.427 32.848 50.6845 32.696 50.9092C32.3906 51.6063 31.9905 52.6816 31.7233 53.3998C31.571 53.8089 31.4619 54.1022 31.438 54.1436C31.372 54.2579 31.372 54.2579 31.4203 54.4381L31.4203 54.4381C30.9113 55.5935 30.5221 56.7981 30.2588 58.0329C30.1641 58.1912 30.1126 58.3715 30.1093 58.5559C29.8299 59.4434 29.6174 60.3695 29.3911 61.3559C29.3216 61.6589 29.2508 61.9676 29.1763 62.2826L28.4236 65.9611L28.4542 66.4357ZM43.732 78.7601L46.9673 90.8345L57.7193 72.2115L56.2223 66.6248C55.9861 67.0099 55.6857 67.3517 55.3342 67.6354L54.002 69.1513C53.4914 69.8379 52.9189 70.4763 52.2917 71.0582L51.0914 72.3456C50.4387 72.9134 49.8288 73.5288 49.2669 74.1866C49.0207 74.3491 48.7866 74.5567 48.5525 74.7643L48.5524 74.7643C48.3183 74.9719 48.0842 75.1795 47.8381 75.342L46.0312 76.8885L44.3562 78.2065C44.2332 78.2878 44.1386 78.3855 44.0441 78.4833C43.9496 78.5811 43.8551 78.6788 43.732 78.7601ZM51.7904 34.0096C53.3648 33.9259 54.9284 34.3144 56.2806 35.1253C58.0684 36.1574 59.373 37.8575 59.9072 39.8515C60.4415 41.8455 60.1618 43.9701 59.1297 45.7579C58.364 47.1362 57.2041 48.2545 55.7988 48.9693C54.3935 49.6841 52.8067 49.963 51.2418 49.7701C49.6769 49.5772 48.2053 48.9214 47.0156 47.8867C45.8259 46.8521 44.9723 45.4857 44.5642 43.9627C44.1562 42.4397 44.2122 40.8296 44.7252 39.3387C45.2382 37.8477 46.1847 36.544 47.4435 35.5945C48.7022 34.6451 50.2159 34.0932 51.7904 34.0096ZM47.5932 44.2387C48.0778 45.1693 48.8288 45.9344 49.7503 46.4361C50.3451 46.7798 51.0026 47.0009 51.6842 47.0863C52.3658 47.1718 53.0576 47.1199 53.7188 46.9337C54.38 46.7476 54.9972 46.4309 55.5341 46.0024C56.0709 45.5738 56.5165 45.0421 56.8446 44.4386C57.369 43.5298 57.6105 42.4853 57.5383 41.4385C57.4661 40.3918 57.0835 39.3903 56.4394 38.562C55.7953 37.7337 54.9188 37.1163 53.9221 36.7886C52.9253 36.4608 51.8535 36.4376 50.8435 36.722C49.8336 37.0064 48.9313 37.5854 48.252 38.385C47.5727 39.1847 47.1472 40.1687 47.0298 41.2114C46.9125 42.2541 47.1086 43.308 47.5932 44.2387ZM26.3089 81.497C26.0059 81.3221 25.6458 81.2747 25.3078 81.3653C24.9698 81.4558 24.6817 81.6769 24.5067 81.9799L16.855 95.2331C16.7108 95.5423 16.6802 95.8925 16.7685 96.222C16.8568 96.5516 17.0584 96.8395 17.3379 97.0352C17.6409 97.2102 18.001 97.2576 18.339 97.167C18.677 97.0765 18.9651 96.8554 19.1401 96.5523L26.7918 83.2992C26.8993 83.1553 26.9728 82.989 27.0068 82.8126C27.0407 82.6362 27.0342 82.4544 26.9877 82.2809C26.9412 82.1074 26.856 81.9468 26.7384 81.811C26.6208 81.6752 26.474 81.5679 26.3089 81.497ZM31.3064 84.4483C31.4827 84.4823 31.6491 84.5558 31.793 84.6633C32.096 84.8383 32.3171 85.1264 32.4076 85.4644C32.4982 85.8024 32.4508 86.1625 32.2759 86.4655L24.6241 99.7186C24.4285 99.9981 24.1405 100.2 23.811 100.288C23.4814 100.376 23.1312 100.346 22.822 100.202C22.519 100.027 22.2979 99.7384 22.2073 99.4005C22.1168 99.0625 22.1642 98.7024 22.3391 98.3994L29.9908 85.1462C30.0616 84.9811 30.169 84.8343 30.3048 84.7167C30.4405 84.5991 30.6012 84.5139 30.7747 84.4674C30.9482 84.4209 31.13 84.4144 31.3064 84.4483Z" fill="#F9DF00"/>
<path d="M60.4531 71.9618L60.7451 71.892L60.742 71.8809L60.4531 71.9618ZM58.2142 63.9664L57.9725 63.7887L57.8858 63.9065L57.9253 64.0473L58.2142 63.9664ZM60.3341 72.9595L60.5939 73.1095L60.5978 73.1028L60.6013 73.0959L60.3341 72.9595ZM47.6032 95.01L47.8545 95.1739L47.859 95.1671L47.863 95.16L47.6032 95.01ZM46.9952 95.5113L46.8822 95.2334L46.8822 95.2334L46.9952 95.5113ZM46.2098 95.5765L46.0598 95.8363L46.0995 95.8592L46.1442 95.8693L46.2098 95.5765ZM45.8671 95.3786L46.0171 95.1188L46.0052 95.112L45.9928 95.1062L45.8671 95.3786ZM45.4642 95.0526L45.224 95.2323L45.224 95.2323L45.4642 95.0526ZM45.2652 94.5741L45.562 94.5304L45.5595 94.5132L45.555 94.4965L45.2652 94.5741ZM41.4504 80.3372L41.7402 80.2595L41.6372 79.8754L41.2961 80.0799L41.4504 80.3372ZM40.0752 81.2055L40.2383 81.4573L40.0752 81.2055ZM37.8897 82.5468L37.7441 82.2845L37.7336 82.2903L37.7236 82.2969L37.8897 82.5468ZM37.2739 82.7446L37.2844 83.0444L37.2844 83.0444L37.2739 82.7446ZM36.6459 82.5903L36.4958 82.8502L36.4976 82.8512L36.6459 82.5903ZM25.6777 76.2579L25.5259 76.5167L25.5277 76.5177L25.6777 76.2579ZM25.2301 75.7911L24.9652 75.9319L24.9652 75.9319L25.2301 75.7911ZM25.0935 75.1589L25.3929 75.1778L25.3941 75.1587L25.3929 75.1396L25.0935 75.1589ZM25.1506 72.5153L25.45 72.5348L25.1506 72.5153ZM25.2267 70.9704L25.5267 70.9754L25.5332 70.5804L25.1509 70.6802L25.2267 70.9704ZM11.0557 74.671L10.9799 74.3807L10.9622 74.3853L10.9452 74.3921L11.0557 74.671ZM10.5419 74.7378L10.5774 74.4399L10.5774 74.4399L10.5419 74.7378ZM10.0581 74.552L10.2311 74.3069L10.22 74.299L10.2081 74.2922L10.0581 74.552ZM9.71534 74.3541L9.49462 74.5573L9.52565 74.591L9.56534 74.6139L9.71534 74.3541ZM9.37914 73.6413L9.67631 73.6002L9.37914 73.6413ZM9.50925 72.8641L9.24944 72.7141L9.24536 72.7212L9.24167 72.7284L9.50925 72.8641ZM22.1742 50.9278L21.9224 50.7647L21.9182 50.7711L21.9143 50.7778L22.1742 50.9278ZM22.9786 50.326L22.9042 50.0351L22.8932 50.0384L22.9786 50.326ZM31.0223 48.2672L31.0967 48.5579L31.2384 48.5216L31.2971 48.3877L31.0223 48.2672ZM34.3075 41.7855L34.5672 41.9359L34.5682 41.9341L34.3075 41.7855ZM68.9021 11.9451L69.0109 12.2249L69.02 12.221L68.9021 11.9451ZM69.4994 11.8415L69.4814 12.1409L69.4814 12.1409L69.4994 11.8415ZM70.5213 12.4314L70.7716 12.2661L70.7716 12.2661L70.5213 12.4314ZM70.7301 13.0005L70.4321 13.0364L70.4336 13.0462L70.7301 13.0005ZM62.1849 57.8805L61.9259 57.7291L61.9249 57.7309L62.1849 57.8805ZM68.5663 17.54L68.8652 17.5139L68.8641 17.5013L68.8619 17.4889L68.5663 17.54ZM68.7064 19.1442L69.0064 19.1392L69.0062 19.1286L69.0053 19.1181L68.7064 19.1442ZM68.2153 15.5093L67.916 15.5286L67.917 15.5446L67.9197 15.5604L68.2153 15.5093ZM68.1847 15.0347L68.4841 15.0153L68.4551 14.5663L68.0518 14.7657L68.1847 15.0347ZM67.7583 15.2455L67.8762 15.5214L67.8838 15.5181L67.8913 15.5144L67.7583 15.2455ZM65.9385 16.0228L65.8206 15.7468L65.8117 15.751L65.9385 16.0228ZM64.4791 16.7036L64.3523 16.4317L64.3427 16.4362L64.3335 16.4413L64.4791 16.7036ZM63.8066 17.077L63.9348 17.3482L63.9436 17.344L63.9522 17.3393L63.8066 17.077ZM61.9208 17.9686L61.7925 17.6974L61.7078 17.7374L61.661 17.8186L61.9208 17.9686ZM61.7888 18.1971L61.9355 18.4588L62.0074 18.4184L62.0487 18.3471L61.7888 18.1971ZM52.056 24.7646L51.8682 24.5306L51.5262 24.8051L51.906 25.0244L52.056 24.7646ZM67.9369 33.9335L67.7869 34.1933L68.1697 34.4143L68.2338 33.9769L67.9369 33.9335ZM68.7582 22.2208L68.4984 22.0708L68.4577 22.1412L68.4582 22.2224L68.7582 22.2208ZM68.8901 21.9923L69.1499 22.1423L69.1968 22.0612L69.1891 21.9678L68.8901 21.9923ZM68.7194 19.9134L68.4194 19.9184L68.4196 19.9282L68.4204 19.9379L68.7194 19.9134ZM25.4518 68.206L25.5294 68.4958L25.7383 68.4398L25.7512 68.224L25.4518 68.206ZM13.3774 71.4413L13.1176 71.2913L12.7554 71.9186L13.455 71.7311L13.3774 71.4413ZM25.5354 67.7973L25.8238 67.8798L25.8238 67.8798L25.5354 67.7973ZM25.619 67.3886L25.3221 67.3458L25.3203 67.3581L25.3196 67.3706L25.619 67.3886ZM25.923 65.279L25.6278 65.224L25.626 65.2362L25.923 65.279ZM26.3588 62.941L26.6537 62.9959L26.6572 62.9776L26.6583 62.9589L26.3588 62.941ZM26.502 62.0334L26.2081 61.9733L26.208 61.9733L26.502 62.0334ZM26.6451 61.1259L26.3623 61.0258L26.3482 61.0657L26.3456 61.1079L26.6451 61.1259ZM27.3271 58.6253L27.0402 58.5376L27.0357 58.5526L27.0327 58.5679L27.3271 58.6253ZM27.8419 56.9421L28.1288 57.0299L28.132 57.0195L28.1344 57.0089L27.8419 56.9421ZM28.6382 54.5075L28.9136 54.6265L28.9185 54.6152L28.9224 54.6036L28.6382 54.5075ZM29.2849 52.5958L29.5691 52.692L29.5773 52.6677L29.5813 52.6423L29.2849 52.5958ZM29.716 51.3214L29.9797 51.4644L30.3125 50.851L29.6384 51.0316L29.716 51.3214ZM24.1294 52.8183L24.0517 52.5286L23.9317 52.5607L23.8696 52.6683L24.1294 52.8183ZM27.6165 74.4829L27.3169 74.4682L27.3079 74.6511L27.4665 74.7427L27.6165 74.4829ZM28.4542 66.4357L28.7504 66.483L28.7557 66.4499L28.7536 66.4164L28.4542 66.4357ZM37.2136 80.0238L37.0636 80.2836L37.2233 80.3758L37.3777 80.275L37.2136 80.0238ZM43.8298 75.1605L43.6968 74.8916L43.6658 74.907L43.639 74.929L43.8298 75.1605ZM44.2562 74.9497L44.3892 75.2186L44.4178 75.2045L44.4429 75.1846L44.2562 74.9497ZM49.8924 69.673L49.7983 69.3881L49.7234 69.4129L49.6703 69.4713L49.8924 69.673ZM50.077 69.5668L49.878 69.3423L49.878 69.3423L50.077 69.5668ZM50.2046 69.3962L49.9997 69.1771L49.9575 69.2165L49.933 69.2687L50.2046 69.3962ZM52.8513 66.6589L53.0772 66.8563L53.0855 66.8468L53.0929 66.8367L52.8513 66.6589ZM55.0893 63.838L55.3309 64.0158L55.3565 63.981L55.3713 63.9403L55.0893 63.838ZM55.5334 63.3327L55.6711 63.5992L55.735 63.5662L55.7769 63.5078L55.5334 63.3327ZM59.8999 56.5612L59.6409 56.4097L59.64 56.4112L59.8999 56.5612ZM67.5317 36.7462L67.8254 36.8075L67.8697 36.595L67.6817 36.4864L67.5317 36.7462ZM49.937 26.5879L50.087 26.3281L49.899 26.2195L49.7371 26.3642L49.937 26.5879ZM36.5926 43.1048L36.8522 43.2551L36.8533 43.2532L36.5926 43.1048ZM32.9775 50.1578L32.7039 50.0347L32.6853 50.0761L32.6798 50.1212L32.9775 50.1578ZM32.696 50.9092L32.4475 50.7412L32.4322 50.7638L32.4212 50.7888L32.696 50.9092ZM31.7233 53.3998L31.4421 53.2951L31.4421 53.2951L31.7233 53.3998ZM31.4203 54.4381L31.7146 54.3799L31.7127 54.3701L31.7101 54.3604L31.4203 54.4381ZM31.4203 54.4381L31.6949 54.559L31.7329 54.4726L31.7146 54.3799L31.4203 54.4381ZM30.2588 58.0329L30.5163 58.1869L30.5419 58.1442L30.5523 58.0955L30.2588 58.0329ZM30.1093 58.5559L30.3954 58.6459L30.4084 58.6046L30.4092 58.5613L30.1093 58.5559ZM29.3911 61.3559L29.6835 61.423L29.3911 61.3559ZM29.1763 62.2826L28.8842 62.2136L28.8824 62.2225L29.1763 62.2826ZM28.4236 65.9611L28.1296 65.9009L28.1216 65.9403L28.1242 65.9804L28.4236 65.9611ZM46.9673 90.8345L46.6775 90.9121L46.865 91.6117L47.2271 90.9845L46.9673 90.8345ZM43.732 78.7601L43.5667 78.5097L43.3862 78.6289L43.4422 78.8377L43.732 78.7601ZM57.7193 72.2115L57.9791 72.3615L58.0412 72.2539L58.009 72.1338L57.7193 72.2115ZM56.2223 66.6248L56.5121 66.5472L56.3315 65.8731L55.9666 66.468L56.2223 66.6248ZM55.3342 67.6354L55.1458 67.402L55.1258 67.4181L55.1088 67.4374L55.3342 67.6354ZM54.002 69.1513L53.7766 68.9533L53.7686 68.9625L53.7613 68.9723L54.002 69.1513ZM52.2917 71.0582L52.0876 70.8383L52.0797 70.8457L52.0723 70.8537L52.2917 71.0582ZM51.0914 72.3456L51.2883 72.572L51.3001 72.5617L51.3108 72.5502L51.0914 72.3456ZM49.2669 74.1866L49.4322 74.4369L49.4675 74.4136L49.495 74.3814L49.2669 74.1866ZM47.8381 75.342L47.6728 75.0917L47.6572 75.102L47.643 75.1141L47.8381 75.342ZM46.0312 76.8885L46.2169 77.1245L46.2263 77.1164L46.0312 76.8885ZM44.3562 78.2065L44.5215 78.4569L44.532 78.45L44.5418 78.4423L44.3562 78.2065ZM44.0441 78.4833L43.8284 78.2748L44.0441 78.4833ZM56.2806 35.1253L56.1264 35.3826L56.1306 35.3851L56.2806 35.1253ZM51.7904 34.0096L51.7744 33.71L51.7904 34.0096ZM59.9072 39.8515L59.6175 39.9292L59.9072 39.8515ZM59.1297 45.7579L58.8698 45.6079L58.8674 45.6122L59.1297 45.7579ZM55.7988 48.9693L55.9348 49.2367L55.7988 48.9693ZM44.5642 43.9627L44.854 43.885L44.5642 43.9627ZM44.7252 39.3387L45.0089 39.4363L44.7252 39.3387ZM47.4435 35.5945L47.2628 35.355L47.4435 35.5945ZM49.7503 46.4361L49.9004 46.1763L49.8938 46.1727L49.7503 46.4361ZM47.5932 44.2387L47.3271 44.3772L47.3271 44.3772L47.5932 44.2387ZM53.7188 46.9337L53.6375 46.645L53.7188 46.9337ZM56.8446 44.4386L56.5847 44.2887L56.5811 44.2954L56.8446 44.4386ZM57.5383 41.4385L57.8376 41.4179L57.5383 41.4385ZM56.4394 38.562L56.2026 38.7462L56.4394 38.562ZM48.252 38.385L48.4806 38.5793L48.252 38.385ZM47.0298 41.2114L46.7317 41.1778L47.0298 41.2114ZM25.3078 81.3653L25.3855 81.655L25.3855 81.655L25.3078 81.3653ZM26.3089 81.497L26.1589 81.7569L26.1743 81.7657L26.1906 81.7727L26.3089 81.497ZM16.855 95.2331L16.5952 95.0831L16.5887 95.0944L16.5831 95.1063L16.855 95.2331ZM17.3379 97.0352L17.1659 97.281L17.1766 97.2885L17.1879 97.295L17.3379 97.0352ZM18.339 97.167L18.4166 97.4568L18.4166 97.4568L18.339 97.167ZM26.7918 83.2992L26.5515 83.1196L26.5409 83.1338L26.532 83.1492L26.7918 83.2992ZM27.0068 82.8126L27.3014 82.8693L27.3014 82.8693L27.0068 82.8126ZM31.793 84.6633L31.6133 84.9036L31.6276 84.9143L31.643 84.9231L31.793 84.6633ZM31.3064 84.4483L31.363 84.1537L31.363 84.1537L31.3064 84.4483ZM32.4076 85.4644L32.1179 85.542L32.1179 85.542L32.4076 85.4644ZM24.6241 99.7186L24.8699 99.8907L24.8774 99.88L24.884 99.8686L24.6241 99.7186ZM23.811 100.288L23.7333 99.9983L23.811 100.288ZM22.822 100.202L22.672 100.461L22.6833 100.468L22.6952 100.473L22.822 100.202ZM22.2073 99.4005L21.9175 99.4781L21.9175 99.4781L22.2073 99.4005ZM29.9908 85.1462L30.2506 85.2962L30.2595 85.2808L30.2665 85.2645L29.9908 85.1462ZM30.3048 84.7167L30.1084 84.4899L30.1084 84.4899L30.3048 84.7167ZM60.742 71.8809L58.503 63.8855L57.9253 64.0473L60.1642 72.0427L60.742 71.8809ZM60.6013 73.0959C60.791 72.7245 60.8419 72.2976 60.7449 71.8921L60.1613 72.0316C60.2251 72.2983 60.1916 72.5789 60.0669 72.823L60.6013 73.0959ZM47.863 95.16L60.5939 73.1095L60.0743 72.8095L47.3434 94.86L47.863 95.16ZM47.1082 95.7892C47.4138 95.6649 47.6742 95.4503 47.8545 95.1739L47.352 94.8461C47.2385 95.02 47.0746 95.1552 46.8822 95.2334L47.1082 95.7892ZM46.1442 95.8693C46.4662 95.9414 46.8025 95.9135 47.1082 95.7892L46.8822 95.2334C46.6898 95.3116 46.4781 95.3292 46.2754 95.2838L46.1442 95.8693ZM45.7171 95.6384L46.0598 95.8363L46.3598 95.3167L46.0171 95.1188L45.7171 95.6384ZM45.224 95.2323C45.359 95.4127 45.5368 95.5566 45.7413 95.651L45.9928 95.1062C45.8788 95.0536 45.7797 94.9734 45.7045 94.8729L45.224 95.2323ZM44.9684 94.6178C45.0012 94.8407 45.0891 95.0519 45.224 95.2323L45.7045 94.8729C45.6293 94.7723 45.5803 94.6546 45.562 94.5304L44.9684 94.6178ZM41.1606 80.4148L44.9754 94.6518L45.555 94.4965L41.7402 80.2595L41.1606 80.4148ZM40.2383 81.4573C40.6966 81.1604 41.1419 80.872 41.6047 80.5945L41.2961 80.0799C40.8229 80.3636 40.369 80.6577 39.9121 80.9537L40.2383 81.4573ZM38.0353 82.8091C38.8502 82.3567 39.5576 81.8983 40.2383 81.4573L39.9121 80.9537C39.2299 81.3957 38.5386 81.8434 37.7441 82.2845L38.0353 82.8091ZM37.2844 83.0444C37.5595 83.0348 37.8265 82.949 38.0558 82.7966L37.7236 82.2969C37.5868 82.3879 37.4275 82.439 37.2634 82.4448L37.2844 83.0444ZM36.4976 82.8512C36.737 82.9872 37.0093 83.054 37.2844 83.0444L37.2634 82.4448C37.0993 82.4505 36.9368 82.4106 36.7941 82.3295L36.4976 82.8512ZM25.5277 76.5177L36.4958 82.8501L36.7959 82.3305L25.8277 75.9981L25.5277 76.5177ZM24.9652 75.9319C25.0944 76.1749 25.2885 76.3774 25.5259 76.5167L25.8295 75.9991C25.6879 75.916 25.5721 75.7953 25.495 75.6503L24.9652 75.9319ZM24.7941 75.14C24.7768 75.4147 24.836 75.6889 24.9652 75.9319L25.495 75.6503C25.4179 75.5053 25.3826 75.3417 25.3929 75.1778L24.7941 75.14ZM24.8513 72.4957C24.7947 73.3619 24.7353 74.265 24.7941 75.1782L25.3929 75.1396C25.3369 74.2716 25.393 73.4072 25.45 72.5348L24.8513 72.4957ZM24.9268 70.9655C24.9185 71.4656 24.8854 71.9738 24.8513 72.4957L25.45 72.5348C25.4839 72.0155 25.5181 71.4927 25.5267 70.9754L24.9268 70.9655ZM11.1315 74.9612L25.3025 71.2607L25.1509 70.6802L10.9799 74.3807L11.1315 74.9612ZM10.5063 75.0357C10.73 75.0624 10.9569 75.0329 11.1663 74.9499L10.9452 74.3921C10.8285 74.4383 10.7021 74.4548 10.5774 74.4399L10.5063 75.0357ZM9.88506 74.797C10.0691 74.927 10.2826 75.009 10.5063 75.0357L10.5774 74.4399C10.4527 74.425 10.3337 74.3793 10.2311 74.3069L9.88506 74.797ZM9.56534 74.6139L9.90809 74.8118L10.2081 74.2922L9.86534 74.0943L9.56534 74.6139ZM9.08197 73.6824C9.12718 74.0093 9.27116 74.3145 9.49462 74.5573L9.93606 74.1509C9.79539 73.9981 9.70476 73.806 9.67631 73.6002L9.08197 73.6824ZM9.24167 72.7284C9.09248 73.0227 9.03676 73.3556 9.08197 73.6824L9.67631 73.6002C9.64785 73.3945 9.68293 73.185 9.77683 72.9997L9.24167 72.7284ZM21.9143 50.7778L9.24944 72.7141L9.76906 73.0141L22.434 51.0778L21.9143 50.7778ZM22.8932 50.0384C22.4934 50.1572 22.1492 50.4147 21.9224 50.7647L22.4259 51.091C22.575 50.8609 22.8013 50.6916 23.0641 50.6135L22.8932 50.0384ZM30.9479 47.9766L22.9043 50.0353L23.053 50.6166L31.0967 48.5579L30.9479 47.9766ZM34.0479 41.6352C32.8273 43.7425 31.7255 45.9164 30.7476 48.1468L31.2971 48.3877C32.266 46.1778 33.3577 44.0239 34.5671 41.9359L34.0479 41.6352ZM68.7934 11.6655C54.1158 17.374 41.8477 27.9561 34.0469 41.6369L34.5682 41.9341C42.3007 28.3729 54.4616 17.8833 69.0109 12.2247L68.7934 11.6655ZM69.5174 11.542C69.2664 11.5269 69.0154 11.5705 68.7843 11.6692L69.02 12.221C69.1655 12.1589 69.3235 12.1314 69.4814 12.1409L69.5174 11.542ZM70.23 11.756C70.0123 11.6303 69.7683 11.5571 69.5174 11.542L69.4814 12.1409C69.6394 12.1504 69.7929 12.1965 69.93 12.2756L70.23 11.756ZM70.7716 12.2661C70.6331 12.0564 70.4477 11.8817 70.23 11.756L69.93 12.2756C70.067 12.3548 70.1837 12.4647 70.2709 12.5967L70.7716 12.2661ZM71.028 12.9647C70.9979 12.7151 70.9101 12.4759 70.7716 12.2661L70.2709 12.5967C70.3581 12.7288 70.4134 12.8793 70.4323 13.0364L71.028 12.9647ZM62.4439 58.0319C70.3914 44.4358 73.4218 28.5203 71.0266 12.9549L70.4336 13.0462C72.8078 28.4754 69.8039 44.2519 61.9259 57.7291L62.4439 58.0319ZM58.4559 64.1442C59.8984 62.1821 61.2302 60.1409 62.4449 58.0301L61.9249 57.7309C60.7213 59.8222 59.4018 61.8447 57.9725 63.7887L58.4559 64.1442ZM68.2674 17.5661L68.4076 19.1703L69.0053 19.1181L68.8652 17.5139L68.2674 17.5661ZM67.9197 15.5604L68.2707 17.5911L68.8619 17.4889L68.511 15.4582L67.9197 15.5604ZM67.8853 15.054L67.916 15.5286L68.5147 15.49L68.4841 15.0153L67.8853 15.054ZM67.8913 15.5144L68.3177 15.3036L68.0518 14.7657L67.6254 14.9766L67.8913 15.5144ZM66.0564 16.2987L67.8762 15.5214L67.6405 14.9696L65.8207 15.7469L66.0564 16.2987ZM64.6059 16.9755L66.0653 16.2947L65.8117 15.751L64.3523 16.4317L64.6059 16.9755ZM63.9522 17.3393L64.6247 16.9659L64.3335 16.4413L63.6609 16.8147L63.9522 17.3393ZM62.049 18.2398L63.9348 17.3482L63.6783 16.8058L61.7925 17.6974L62.049 18.2398ZM62.0487 18.3471L62.1806 18.1186L61.661 17.8186L61.529 18.0471L62.0487 18.3471ZM52.2438 24.9986C55.2885 22.5552 58.5302 20.3678 61.9355 18.4588L61.6421 17.9354C58.2079 19.8606 54.9388 22.0665 51.8682 24.5306L52.2438 24.9986ZM68.0869 33.6737L52.206 24.5048L51.906 25.0244L67.7869 34.1933L68.0869 33.6737ZM68.4582 22.2224C68.4791 26.1267 68.2057 30.0269 67.6401 33.89L68.2338 33.9769C68.8037 30.084 69.0793 26.1536 69.0582 22.2192L68.4582 22.2224ZM68.6303 21.8423L68.4984 22.0708L69.018 22.3708L69.1499 22.1423L68.6303 21.8423ZM68.4204 19.9379L68.5911 22.0169L69.1891 21.9678L69.0184 19.8888L68.4204 19.9379ZM68.4065 19.1493L68.4194 19.9184L69.0193 19.9083L69.0064 19.1392L68.4065 19.1493ZM25.3741 67.9162L13.2997 71.1515L13.455 71.7311L25.5294 68.4958L25.3741 67.9162ZM25.247 67.7148C25.2106 67.842 25.1634 68.0031 25.1523 68.188L25.7512 68.224C25.7578 68.1144 25.7854 68.014 25.8238 67.8798L25.247 67.7148ZM25.3196 67.3706C25.313 67.4802 25.2854 67.5805 25.247 67.7148L25.8238 67.8798C25.8602 67.7526 25.9074 67.5914 25.9185 67.4065L25.3196 67.3706ZM25.626 65.2362L25.3221 67.3458L25.916 67.4314L26.2199 65.3218L25.626 65.2362ZM26.0639 62.886L25.6281 65.224L26.2179 65.334L26.6537 62.9959L26.0639 62.886ZM26.208 61.9733C26.1462 62.2754 26.0786 62.6034 26.0594 62.923L26.6583 62.9589C26.6745 62.6896 26.7322 62.4046 26.7959 62.0936L26.208 61.9733ZM26.3456 61.1079C26.3295 61.3772 26.2717 61.6623 26.2081 61.9733L26.7959 62.0936C26.8577 61.7915 26.9254 61.4635 26.9446 61.1439L26.3456 61.1079ZM27.0327 58.5679C26.8701 59.4026 26.646 60.2241 26.3623 61.0258L26.9279 61.226C27.2215 60.3965 27.4534 59.5464 27.6216 58.6826L27.0327 58.5679ZM27.555 56.8544L27.0402 58.5376L27.614 58.713L28.1288 57.0299L27.555 56.8544ZM28.3628 54.3885C28.0162 55.1908 27.7439 56.0233 27.5494 56.8754L28.1344 57.0089C28.3207 56.1926 28.5815 55.3951 28.9136 54.6265L28.3628 54.3885ZM29.0007 52.4997L28.354 54.4114L28.9224 54.6036L29.5691 52.692L29.0007 52.4997ZM29.4523 51.1784C29.2206 51.6056 29.0637 52.0693 28.9885 52.5494L29.5813 52.6423C29.6459 52.2298 29.7807 51.8314 29.9797 51.4644L29.4523 51.1784ZM24.207 53.1081L29.7937 51.6112L29.6384 51.0316L24.0517 52.5286L24.207 53.1081ZM13.6372 71.5913L24.3892 52.9683L23.8696 52.6683L13.1176 71.2913L13.6372 71.5913ZM27.9162 74.4976C28.0482 71.8129 28.3267 69.1374 28.7504 66.483L28.1579 66.3884C27.7307 69.0644 27.45 71.7616 27.3169 74.4682L27.9162 74.4976ZM37.3636 79.764L27.7665 74.2231L27.4665 74.7427L37.0636 80.2836L37.3636 79.764ZM43.639 74.929C41.5337 76.664 39.3339 78.281 37.0496 79.7726L37.3777 80.275C39.6805 78.7713 41.8982 77.1412 44.0206 75.3921L43.639 74.929ZM44.1232 74.6808L43.6968 74.8916L43.9628 75.4295L44.3892 75.2186L44.1232 74.6808ZM49.6703 69.4713C47.948 71.3674 46.0749 73.121 44.0695 74.7149L44.4429 75.1846C46.4736 73.5706 48.3703 71.7948 50.1145 69.8747L49.6703 69.4713ZM49.878 69.3423C49.8548 69.3628 49.8277 69.3784 49.7983 69.3881L49.9865 69.9579C50.0933 69.9226 50.1919 69.8659 50.276 69.7912L49.878 69.3423ZM49.933 69.2687C49.9198 69.2967 49.9011 69.3218 49.878 69.3423L50.276 69.7912C50.3602 69.7166 50.4283 69.6256 50.4761 69.5237L49.933 69.2687ZM52.6254 66.4615C51.7964 67.4103 50.9201 68.3166 49.9997 69.1771L50.4094 69.6154C51.3445 68.7412 52.2349 67.8203 53.0772 66.8563L52.6254 66.4615ZM53.7387 65.0578C53.357 65.5214 52.9692 65.9923 52.6096 66.4811L53.0929 66.8367C53.4412 66.3632 53.8185 65.9049 54.2019 65.4391L53.7387 65.0578ZM54.8476 63.6602C54.4993 64.1337 54.1221 64.592 53.7387 65.0578L54.2019 65.4391C54.5835 64.9756 54.9713 64.5046 55.3309 64.0158L54.8476 63.6602ZM55.3956 63.0662C55.1223 63.2074 54.9123 63.4464 54.8073 63.7356L55.3713 63.9403C55.4248 63.793 55.5318 63.6712 55.6711 63.5992L55.3956 63.0662ZM59.64 56.4112C58.3255 58.688 56.8315 61.0129 55.2898 63.1576L55.7769 63.5078C57.3308 61.3463 58.8356 59.0045 60.1597 56.7112L59.64 56.4112ZM67.238 36.6849C65.7897 43.6276 63.224 50.2892 59.641 56.4097L60.1588 56.7128C63.7746 50.5363 66.3638 43.8137 67.8254 36.8075L67.238 36.6849ZM49.787 26.8477L67.3817 37.006L67.6817 36.4864L50.087 26.3281L49.787 26.8477ZM36.8533 43.2532C40.3623 37.09 44.8485 31.5372 50.1369 26.8116L49.7371 26.3642C44.4003 31.1331 39.873 36.7367 36.3319 42.9564L36.8533 43.2532ZM33.2512 50.2808C34.331 47.879 35.5329 45.5341 36.8522 43.2551L36.3329 42.9545C35.0034 45.2512 33.7922 47.6144 32.7039 50.0347L33.2512 50.2808ZM32.9445 51.0773C33.1231 50.8133 33.2364 50.5107 33.2753 50.1944L32.6798 50.1212C32.6525 50.3433 32.5729 50.5558 32.4475 50.7412L32.9445 51.0773ZM32.0044 53.5044C32.2728 52.7832 32.6696 51.7172 32.9708 51.0296L32.4212 50.7888C32.1116 51.4955 31.7082 52.58 31.4421 53.2951L32.0044 53.5044ZM31.6978 54.2936C31.7168 54.2608 31.7365 54.2119 31.7496 54.1794C31.7666 54.137 31.7881 54.0815 31.8129 54.0162C31.8627 53.8853 31.9285 53.7085 32.0044 53.5044L31.4421 53.2951C31.3658 53.5001 31.3009 53.6745 31.2521 53.8029C31.2277 53.8672 31.2078 53.9185 31.1929 53.9555C31.1741 54.0024 31.1712 54.0057 31.1782 53.9936L31.6978 54.2936ZM31.7101 54.3604C31.7039 54.3375 31.6991 54.3193 31.695 54.3036C31.691 54.2879 31.6885 54.2773 31.6869 54.2698C31.6833 54.253 31.687 54.2631 31.6858 54.2841C31.6851 54.2957 31.6831 54.3072 31.6802 54.318C31.6775 54.3281 31.6747 54.3345 31.674 54.3359C31.6737 54.3367 31.6747 54.3344 31.6791 54.3265C31.6835 54.3183 31.6891 54.3086 31.6978 54.2936L31.1782 53.9936C31.1566 54.031 31.0942 54.1259 31.0868 54.2481C31.0834 54.306 31.092 54.3569 31.1 54.3944C31.1077 54.4311 31.1193 54.4738 31.1305 54.5157L31.7101 54.3604ZM31.7146 54.3799L31.7146 54.3799L31.126 54.4962L31.126 54.4963L31.7146 54.3799ZM30.5523 58.0955C30.8112 56.8807 31.1941 55.6957 31.6949 54.559L31.1458 54.3171C30.6285 55.4913 30.233 56.7155 29.9654 57.9703L30.5523 58.0955ZM30.4092 58.5613C30.4116 58.4293 30.4485 58.3002 30.5163 58.1869L30.0014 57.8789C29.8798 58.0821 29.8136 58.3137 29.8093 58.5505L30.4092 58.5613ZM29.6835 61.423C29.9104 60.4343 30.1203 59.5201 30.3954 58.6459L29.8231 58.4658C29.5395 59.3667 29.3245 60.3048 29.0987 61.2888L29.6835 61.423ZM29.4683 62.3516C29.543 62.0355 29.614 61.7258 29.6835 61.423L29.0987 61.2888C29.0292 61.5919 28.9586 61.8997 28.8843 62.2136L29.4683 62.3516ZM28.7175 66.0212L29.4702 62.3428L28.8824 62.2225L28.1296 65.9009L28.7175 66.0212ZM28.7536 66.4164L28.7229 65.9417L28.1242 65.9804L28.1548 66.455L28.7536 66.4164ZM47.2571 90.7568L44.0217 78.6824L43.4422 78.8377L46.6775 90.9121L47.2571 90.7568ZM57.4595 72.0615L46.7075 90.6845L47.2271 90.9845L57.9791 72.3615L57.4595 72.0615ZM55.9325 66.7025L57.4295 72.2891L58.009 72.1338L56.5121 66.5472L55.9325 66.7025ZM55.5226 67.8689C55.9008 67.5637 56.2239 67.196 56.478 66.7817L55.9666 66.468C55.7483 66.8239 55.4707 67.1398 55.1458 67.402L55.5226 67.8689ZM54.2273 69.3493L55.5595 67.8335L55.1088 67.4374L53.7766 68.9533L54.2273 69.3493ZM52.4957 71.2781C53.1364 70.6837 53.7212 70.0317 54.2427 69.3303L53.7613 68.9723C53.2616 69.6442 52.7014 70.2688 52.0876 70.8383L52.4957 71.2781ZM51.3108 72.5502L52.5111 71.2628L52.0723 70.8537L50.872 72.141L51.3108 72.5502ZM49.495 74.3814C50.0473 73.7349 50.6467 73.1301 51.2883 72.572L50.8945 72.1193C50.2306 72.6968 49.6103 73.3227 49.0388 73.9917L49.495 74.3814ZM48.7515 74.9888C48.989 74.7781 49.207 74.5856 49.4322 74.4369L49.1016 73.9362C48.8344 74.1126 48.5841 74.3352 48.3534 74.5398L48.7515 74.9888ZM48.7515 74.9888L48.7515 74.9888L48.3534 74.5398L48.3534 74.5399L48.7515 74.9888ZM48.0034 75.5924C48.2705 75.416 48.5208 75.1934 48.7515 74.9888L48.3534 74.5399C48.1159 74.7505 47.8979 74.943 47.6728 75.0917L48.0034 75.5924ZM46.2263 77.1164L48.0332 75.5699L47.643 75.1141L45.8361 76.6606L46.2263 77.1164ZM44.5418 78.4423L46.2167 77.1243L45.8457 76.6527L44.1707 77.9707L44.5418 78.4423ZM44.2598 78.6918C44.3568 78.5915 44.4299 78.5173 44.5215 78.4569L44.1909 77.9562C44.0364 78.0582 43.9204 78.1796 43.8284 78.2748L44.2598 78.6918ZM43.8973 79.0104C44.0518 78.9084 44.1678 78.787 44.2598 78.6918L43.8284 78.2748C43.7314 78.3751 43.6583 78.4493 43.5667 78.5097L43.8973 79.0104ZM56.4349 34.868C55.0314 34.0264 53.4086 33.6232 51.7744 33.71L51.8063 34.3091C53.3211 34.2287 54.8254 34.6025 56.1264 35.3826L56.4349 34.868ZM60.197 39.7739C59.6421 37.703 58.2873 35.9374 56.4306 34.8655L56.1306 35.3851C57.8495 36.3775 59.1038 38.012 59.6175 39.9292L60.197 39.7739ZM59.3895 45.9079C60.4614 44.0512 60.7519 41.8448 60.197 39.7739L59.6175 39.9292C60.1312 41.8463 59.8622 43.889 58.8698 45.6079L59.3895 45.9079ZM55.9348 49.2367C57.3934 48.4948 58.5972 47.3341 59.3919 45.9036L58.8674 45.6122C58.1307 46.9383 57.0149 48.0141 55.6628 48.7019L55.9348 49.2367ZM51.2051 50.0678C52.8293 50.268 54.4762 49.9786 55.9348 49.2367L55.6628 48.7019C54.3107 49.3896 52.784 49.6579 51.2785 49.4723L51.2051 50.0678ZM46.8188 48.1131C48.0536 49.187 49.5809 49.8677 51.2051 50.0678L51.2785 49.4723C49.773 49.2868 48.3571 48.6558 47.2125 47.6604L46.8188 48.1131ZM44.2745 44.0403C44.698 45.621 45.584 47.0392 46.8188 48.1131L47.2125 47.6604C46.0679 46.6649 45.2466 45.3503 44.854 43.885L44.2745 44.0403ZM44.4415 39.241C43.9091 40.7885 43.8509 42.4596 44.2745 44.0403L44.854 43.885C44.4614 42.4198 44.5153 40.8707 45.0089 39.4363L44.4415 39.241ZM47.2628 35.355C45.9563 36.3405 44.9739 37.6936 44.4415 39.241L45.0089 39.4363C45.5024 38.0018 46.4131 36.7475 47.6241 35.834L47.2628 35.355ZM51.7744 33.71C50.1403 33.7967 48.5693 34.3696 47.2628 35.355L47.6241 35.834C48.8352 34.9206 50.2915 34.3896 51.8063 34.3091L51.7744 33.71ZM49.8938 46.1727C49.0246 45.6994 48.3163 44.9779 47.8593 44.1001L47.3271 44.3772C47.8392 45.3608 48.6329 46.1694 49.6068 46.6996L49.8938 46.1727ZM51.7215 46.7887C51.0797 46.7082 50.4605 46.5 49.9004 46.1764L49.6002 46.6959C50.2297 47.0596 50.9256 47.2936 51.6469 47.384L51.7215 46.7887ZM53.6375 46.645C53.0148 46.8203 52.3634 46.8691 51.7215 46.7887L51.6469 47.384C52.3682 47.4744 53.1003 47.4195 53.8001 47.2225L53.6375 46.645ZM55.3469 45.7679C54.8414 46.1714 54.2601 46.4696 53.6375 46.645L53.8001 47.2225C54.4998 47.0255 55.1531 46.6903 55.7212 46.2368L55.3469 45.7679ZM56.5811 44.2954C56.2721 44.8637 55.8525 45.3644 55.3469 45.7679L55.7212 46.2368C56.2894 45.7833 56.761 45.2206 57.1082 44.5819L56.5811 44.2954ZM57.239 41.4592C57.3071 42.4464 57.0793 43.4316 56.5848 44.2887L57.1045 44.5886C57.6586 43.6281 57.9139 42.5242 57.8376 41.4179L57.239 41.4592ZM56.2026 38.7462C56.8101 39.5274 57.1709 40.4719 57.239 41.4592L57.8376 41.4179C57.7613 40.3116 57.3569 39.2532 56.6762 38.3778L56.2026 38.7462ZM53.8284 37.0735C54.7685 37.3827 55.5951 37.965 56.2026 38.7462L56.6762 38.3778C55.9955 37.5025 55.0692 36.8499 54.0158 36.5036L53.8284 37.0735ZM50.9249 37.0108C51.8774 36.7426 52.8883 36.7644 53.8284 37.0735L54.0158 36.5036C52.9624 36.1572 51.8296 36.1327 50.7622 36.4332L50.9249 37.0108ZM48.4806 38.5793C49.1213 37.8251 49.9723 37.279 50.9249 37.0108L50.7622 36.4332C49.6948 36.7338 48.7413 37.3457 48.0233 38.1908L48.4806 38.5793ZM47.3279 41.245C47.4386 40.2616 47.8399 39.3335 48.4806 38.5793L48.0233 38.1908C47.3054 39.0359 46.8557 40.0759 46.7317 41.1778L47.3279 41.245ZM47.8593 44.1001C47.4023 43.2224 47.2173 42.2283 47.3279 41.245L46.7317 41.1778C46.6077 42.2798 46.815 43.3937 47.3271 44.3772L47.8593 44.1001ZM25.3855 81.655C25.6466 81.5851 25.9248 81.6217 26.1589 81.7569L26.4589 81.2372C26.087 81.0225 25.645 80.9643 25.2302 81.0755L25.3855 81.655ZM24.7666 82.1299C24.9017 81.8958 25.1243 81.725 25.3855 81.655L25.2302 81.0755C24.8154 81.1866 24.4617 81.458 24.2469 81.8299L24.7666 82.1299ZM17.1148 95.3831L24.7666 82.1299L24.2469 81.8299L16.5952 95.0831L17.1148 95.3831ZM17.0583 96.1444C16.9882 95.883 17.0125 95.6052 17.1269 95.3599L16.5831 95.1063C16.4091 95.4794 16.3721 95.902 16.4787 96.2997L17.0583 96.1444ZM17.51 96.7895C17.2883 96.6342 17.1283 96.4058 17.0583 96.1444L16.4787 96.2997C16.5853 96.6974 16.8286 97.0448 17.1659 97.281L17.51 96.7895ZM18.2614 96.8772C18.0002 96.9472 17.722 96.9106 17.4879 96.7754L17.1879 97.295C17.5598 97.5098 18.0018 97.568 18.4166 97.4568L18.2614 96.8772ZM18.8803 96.4023C18.7451 96.6365 18.5225 96.8073 18.2613 96.8773L18.4166 97.4568C18.8315 97.3457 19.1851 97.0743 19.3999 96.7023L18.8803 96.4023ZM26.532 83.1492L18.8803 96.4023L19.3999 96.7023L27.0516 83.4492L26.532 83.1492ZM26.7122 82.7559C26.6868 82.8877 26.6319 83.012 26.5515 83.1196L27.032 83.4788C27.1668 83.2986 27.2589 83.0902 27.3014 82.8693L26.7122 82.7559ZM26.6979 82.3586C26.7327 82.4882 26.7375 82.6241 26.7122 82.7559L27.3014 82.8693C27.3439 82.6483 27.3357 82.4206 27.2775 82.2033L26.6979 82.3586ZM26.5116 82.0074C26.5995 82.1088 26.6632 82.2289 26.6979 82.3586L27.2775 82.2033C27.2193 81.9859 27.1125 81.7847 26.9652 81.6146L26.5116 82.0074ZM26.1906 81.7727C26.314 81.8257 26.4237 81.9059 26.5116 82.0074L26.9652 81.6146C26.8179 81.4445 26.6339 81.31 26.4272 81.2213L26.1906 81.7727ZM31.9726 84.4231C31.7924 84.2883 31.584 84.1962 31.363 84.1537L31.2497 84.7429C31.3815 84.7683 31.5058 84.8232 31.6133 84.9036L31.9726 84.4231ZM32.6974 85.3868C32.5863 84.9719 32.3149 84.6182 31.943 84.4035L31.643 84.9231C31.8771 85.0583 32.0479 85.2809 32.1179 85.542L32.6974 85.3868ZM32.5357 86.6155C32.7504 86.2436 32.8086 85.8016 32.6974 85.3867L32.1179 85.542C32.1878 85.8032 32.1512 86.0814 32.016 86.3155L32.5357 86.6155ZM24.884 99.8686L32.5357 86.6155L32.016 86.3155L24.3643 99.5686L24.884 99.8686ZM23.8886 100.578C24.2863 100.471 24.6338 100.228 24.8699 99.8907L24.3784 99.5466C24.2232 99.7683 23.9948 99.9282 23.7333 99.9983L23.8886 100.578ZM22.6952 100.473C23.0684 100.647 23.4909 100.684 23.8886 100.578L23.7333 99.9983C23.4719 100.068 23.1941 100.044 22.9488 99.9296L22.6952 100.473ZM21.9175 99.4781C22.0287 99.8929 22.3001 100.247 22.672 100.461L22.972 99.9417C22.7379 99.8065 22.5671 99.5839 22.4971 99.3228L21.9175 99.4781ZM22.0793 98.2494C21.8646 98.6213 21.8064 99.0633 21.9175 99.4781L22.4971 99.3228C22.4271 99.0617 22.4638 98.7835 22.5989 98.5494L22.0793 98.2494ZM29.731 84.9962L22.0793 98.2494L22.5989 98.5494L30.2506 85.2962L29.731 84.9962ZM30.1084 84.4899C29.9383 84.6372 29.8038 84.8212 29.7151 85.028L30.2665 85.2645C30.3195 85.1411 30.3997 85.0314 30.5011 84.9435L30.1084 84.4899ZM30.6971 84.1776C30.4797 84.2359 30.2785 84.3426 30.1084 84.4899L30.5011 84.9435C30.6026 84.8556 30.7227 84.7919 30.8524 84.7572L30.6971 84.1776ZM31.363 84.1537C31.1421 84.1112 30.9144 84.1194 30.6971 84.1776L30.8524 84.7572C30.982 84.7224 31.1179 84.7176 31.2497 84.7429L31.363 84.1537Z" fill="#F9DF00"/>
</svg>
