<svg width="400" height="40" viewBox="0 0 400 40" fill="none" xmlns="http://www.w3.org/2000/svg">
<g clip-path="url(#clip0_951_2376)">
<path fill-rule="evenodd" clip-rule="evenodd" d="M24.2842 40C28.3266 40 31.8588 39.6353 34.8807 38.9058C37.9026 38.1764 40.4242 37.1839 42.4454 35.9282C44.4666 34.6724 45.9824 33.2044 46.993 31.524C48.0037 29.8435 48.509 28.0522 48.509 26.1503V1.20379C48.509 1.04486 48.3803 0.916016 48.2214 0.916016H37.7691C37.6102 0.916016 37.4815 1.04486 37.4815 1.20379V22.4662C37.4815 23.7404 37.3131 24.9453 36.9762 26.081C36.6394 27.2167 35.9903 28.2092 35.0293 29.0587C34.0682 29.9081 32.7257 30.5821 31.0018 31.0807C29.2778 31.5793 27.0386 31.8286 24.2842 31.8286C21.51 31.8286 19.256 31.5793 17.5221 31.0807C15.7882 30.5821 14.4407 29.9081 13.4796 29.0587C12.5186 28.2092 11.8647 27.2167 11.5179 26.081C11.1711 24.9453 10.9978 23.7404 10.9978 22.4662V1.20379C10.9978 1.04486 10.869 0.916016 10.7102 0.916016H0.287528C0.128731 0.916016 0 1.04486 0 1.20379V26.1503C0 28.0522 0.505302 29.8435 1.5159 31.524C2.52651 33.2044 4.04242 34.6724 6.06364 35.9282C8.08486 37.1839 10.6163 38.1764 13.658 38.9058C16.6997 39.6353 20.2418 40 24.2842 40Z" fill="#A3FFFF"/>
<path fill-rule="evenodd" clip-rule="evenodd" d="M87.725 39.084C87.8837 39.084 88.0125 38.9552 88.0125 38.7962V9.74859C88.0125 9.58968 88.1413 9.46082 88.3 9.46082H105.102C105.261 9.46082 105.39 9.33196 105.39 9.17305V1.50921C105.39 1.35028 105.261 1.22144 105.102 1.22144H59.914C59.7553 1.22144 59.6265 1.35028 59.6265 1.50921V9.17305C59.6265 9.33196 59.7553 9.46082 59.914 9.46082H76.6861C76.8449 9.46082 76.9737 9.58968 76.9737 9.74859V38.7962C76.9737 38.9552 77.1019 39.084 77.2612 39.084H87.725Z" fill="#A3FFFF"/>
<path fill-rule="evenodd" clip-rule="evenodd" d="M153.506 38.7137C150.073 39.5712 146.216 40 141.937 40C137.658 40 133.792 39.5712 130.338 38.7137C126.885 37.8561 123.944 36.5883 121.515 34.9101C119.088 33.2319 117.216 31.1434 115.903 28.6445C114.589 26.1457 113.932 23.2642 113.932 20C113.932 16.7358 114.589 13.8543 115.903 11.3555C117.216 8.85663 119.088 6.76812 121.515 5.0899C123.944 3.41171 126.885 2.14384 130.338 1.28631C133.792 0.428769 137.658 0 141.937 0C146.216 0 150.073 0.428769 153.506 1.28631C156.94 2.14384 159.861 3.41171 162.269 5.0899C164.678 6.76812 166.529 8.85663 167.823 11.3555C169.116 13.8543 169.763 16.7358 169.763 20C169.763 23.2642 169.116 26.1457 167.823 28.6445C166.529 31.1434 164.678 33.2319 162.269 34.9101C159.861 36.5883 156.94 37.8561 153.506 38.7137ZM136.056 31.3555C137.748 31.6783 139.708 31.8397 141.937 31.8397C145.261 31.8397 147.998 31.4892 150.148 30.7884C152.297 30.0877 153.994 29.1748 155.238 28.0498C156.482 26.9249 157.348 25.657 157.835 24.2463C158.323 22.8355 158.567 21.4201 158.567 20.0001C158.567 18.5801 158.323 17.1647 157.835 15.7539C157.348 14.3431 156.482 13.0752 155.238 11.9503C153.994 10.8253 152.297 9.91246 150.148 9.21168C147.998 8.51091 145.261 8.16052 141.937 8.16052C139.708 8.16052 137.748 8.3219 136.056 8.6446C134.364 8.96737 132.901 9.41456 131.667 9.98625C130.433 10.5579 129.398 11.2265 128.562 11.9918C127.725 12.7571 127.059 13.5778 126.562 14.4538C126.064 15.3297 125.71 16.2426 125.501 17.1923C125.292 18.1421 125.188 19.078 125.188 20.0001C125.188 20.9406 125.292 21.8904 125.501 22.8493C125.71 23.8083 126.064 24.7258 126.562 25.6017C127.059 26.4777 127.725 27.2938 128.562 28.0498C129.398 28.806 130.433 29.4653 131.667 30.0277C132.901 30.5902 134.364 31.0328 136.056 31.3555Z" fill="#A3FFFF"/>
<path fill-rule="evenodd" clip-rule="evenodd" d="M192.426 38.7962C192.426 38.9552 192.298 39.084 192.139 39.084H181.644C181.486 39.084 181.357 38.9552 181.357 38.7962V1.50921C181.357 1.35028 181.486 1.22144 181.644 1.22144H210.806C213.829 1.22144 216.396 1.53833 218.504 2.17213C220.613 2.80593 222.328 3.69692 223.651 4.84511C224.974 5.99331 225.934 7.35734 226.53 8.93725C227.127 10.5172 227.425 12.2532 227.425 14.1454C227.425 16.0376 227.127 17.7783 226.53 19.3673C225.934 20.9565 224.974 22.3251 223.651 23.4733C222.328 24.6214 220.613 25.517 218.504 26.16C216.396 26.803 213.829 27.1245 210.806 27.1245H192.714C192.555 27.1245 192.426 27.2533 192.426 27.4123V38.7962ZM192.426 18.9353C192.426 18.9989 192.478 19.0504 192.541 19.0504H208.419C209.871 19.0504 211.094 18.9724 212.089 18.8162C213.083 18.66 213.889 18.3937 214.505 18.0171C215.122 17.6404 215.565 17.149 215.833 16.5428C216.102 15.9366 216.236 15.1925 216.236 14.3107C216.236 13.4289 216.102 12.6711 215.833 12.0373C215.565 11.4035 215.122 10.8845 214.505 10.4803C213.889 10.0762 213.083 9.77765 212.089 9.58479C211.094 9.39187 209.871 9.29541 208.419 9.29541H192.541C192.478 9.29541 192.426 9.34698 192.426 9.41052V18.9353Z" fill="#A3FFFF"/>
<path fill-rule="evenodd" clip-rule="evenodd" d="M251.849 39.084C252.008 39.084 252.137 38.9552 252.137 38.7962V1.50921C252.137 1.35028 252.008 1.22144 251.849 1.22144H241.441C241.283 1.22144 241.154 1.35028 241.154 1.50921V38.7962C241.154 38.9552 241.283 39.084 241.441 39.084H251.849Z" fill="#A3FFFF"/>
<path fill-rule="evenodd" clip-rule="evenodd" d="M275.851 38.9325C275.801 39.0258 275.703 39.084 275.598 39.084H263.919C263.699 39.084 263.56 38.8462 263.669 38.6544L284.781 1.36732C284.833 1.27716 284.928 1.22144 285.031 1.22144H297.04C297.144 1.22144 297.239 1.27716 297.291 1.36732L318.403 38.6544C318.512 38.8462 318.373 39.084 318.153 39.084H306.474C306.368 39.084 306.271 39.0258 306.221 38.9325L302.537 32.0709C302.487 31.9775 302.39 31.9194 302.284 31.9194H279.788C279.682 31.9194 279.585 31.9775 279.534 32.0709L275.851 38.9325ZM298.358 24.5343C298.445 24.5343 298.5 24.4415 298.459 24.3649L291.197 10.7796C291.153 10.6987 291.037 10.6985 290.994 10.7793L283.673 24.3645C283.632 24.4412 283.687 24.5343 283.774 24.5343H298.358Z" fill="#A3FFFF"/>
<path d="M328.378 39.0791C328.056 39.0791 327.757 38.9985 327.481 38.8374C327.205 38.6532 327.067 38.3885 327.067 38.0431V14.8374C327.067 14.4921 327.217 14.2388 327.516 14.0777C327.838 13.9165 328.171 13.8359 328.516 13.8359C328.884 13.8359 329.218 13.9165 329.517 14.0777C329.816 14.2388 329.966 14.4921 329.966 14.8374V36.4546H339.42C339.742 36.4546 339.972 36.5928 340.11 36.869C340.271 37.1223 340.351 37.4215 340.351 37.7669C340.351 38.0892 340.271 38.3885 340.11 38.6647C339.972 38.941 339.742 39.0791 339.42 39.0791H328.378Z" fill="#4390FE"/>
<path d="M344.795 39.0793C344.564 39.0793 344.3 39.0332 344.001 38.9411C343.725 38.826 343.495 38.6764 343.311 38.4922C343.15 38.3081 343.069 38.1009 343.069 37.8706C343.069 37.7786 343.081 37.6865 343.104 37.5944L350.177 14.6303C350.269 14.285 350.488 14.0318 350.833 13.8706C351.178 13.7095 351.546 13.6289 351.937 13.6289C352.351 13.6289 352.73 13.721 353.075 13.9052C353.42 14.0663 353.639 14.308 353.731 14.6303L360.77 37.5944C360.816 37.6865 360.839 37.767 360.839 37.8361C360.839 38.0663 360.735 38.2735 360.528 38.4577C360.344 38.6419 360.114 38.7915 359.838 38.9066C359.562 39.0217 359.297 39.0793 359.044 39.0793C358.791 39.0793 358.573 39.0332 358.389 38.9411C358.205 38.826 358.078 38.6534 358.009 38.4232L356.457 33.2778H347.382L345.899 38.4232C345.83 38.6534 345.692 38.826 345.485 38.9411C345.301 39.0332 345.071 39.0793 344.795 39.0793ZM348.072 30.8951H355.801L351.937 17.9109L348.072 30.8951Z" fill="#4390FE"/>
<path d="M366.87 39.0791C366.479 39.0791 366.157 38.987 365.904 38.8028C365.674 38.5956 365.559 38.3539 365.559 38.0777V14.8719C365.559 14.5266 365.697 14.2733 365.973 14.1122C366.249 13.928 366.548 13.8359 366.87 13.8359H372.805C374.07 13.8359 375.232 13.9971 376.29 14.3194C377.371 14.6187 378.222 15.1942 378.843 16.046C379.487 16.8978 379.809 18.1295 379.809 19.741C379.809 21.1913 379.545 22.4 379.015 23.3669C378.486 24.3338 377.773 25.0129 376.876 25.4043C377.589 25.6805 378.21 26.0604 378.739 26.5439C379.269 27.0043 379.683 27.6144 379.982 28.3741C380.281 29.1108 380.43 30.0777 380.43 31.2748V31.8964C380.43 33.669 380.131 35.0849 379.533 36.1439C378.935 37.1798 378.118 37.928 377.083 38.3885C376.048 38.8489 374.887 39.0791 373.598 39.0791H366.87ZM368.457 36.4546H373.115C374.519 36.4546 375.6 36.0748 376.359 35.3151C377.141 34.5554 377.532 33.3582 377.532 31.7237V31.1367C377.532 29.4791 377.141 28.3165 376.359 27.6489C375.6 26.9582 374.519 26.6129 373.115 26.6129H368.457V36.4546ZM368.457 24.1957H372.77C374.197 24.1957 375.243 23.8849 375.91 23.2633C376.577 22.6187 376.911 21.5827 376.911 20.1554C376.911 19.2115 376.727 18.4748 376.359 17.9453C376.014 17.3928 375.519 17.0129 374.875 16.8057C374.254 16.5755 373.518 16.4604 372.667 16.4604H368.457V24.1957Z" fill="#4390FE"/>
<path d="M392.09 39.3553C390.618 39.3553 389.33 39.1366 388.226 38.6992C387.122 38.2388 386.271 37.7093 385.672 37.1107C385.074 36.4892 384.775 35.9366 384.775 35.4532C384.775 35.223 384.833 34.9928 384.948 34.7625C385.086 34.5093 385.246 34.3021 385.43 34.141C385.637 33.9568 385.845 33.8647 386.052 33.8647C386.328 33.8647 386.593 34.0028 386.846 34.2791C387.122 34.5553 387.455 34.8892 387.846 35.2805C388.26 35.6489 388.789 35.9712 389.433 36.2474C390.077 36.5237 390.917 36.6618 391.952 36.6618C392.918 36.6618 393.758 36.5122 394.471 36.2129C395.184 35.8906 395.735 35.4187 396.126 34.7971C396.541 34.1525 396.748 33.3467 396.748 32.3798C396.748 31.3899 396.541 30.5841 396.126 29.9625C395.712 29.341 395.161 28.823 394.471 28.4086C393.804 27.9942 393.068 27.6258 392.263 27.3035C391.481 26.9812 390.675 26.6589 389.847 26.3366C389.042 25.9913 388.306 25.5769 387.639 25.0935C386.972 24.587 386.432 23.9424 386.018 23.1597C385.603 22.3769 385.396 21.387 385.396 20.1899C385.396 18.9237 385.626 17.8762 386.087 17.0474C386.547 16.2186 387.156 15.5625 387.915 15.0791C388.674 14.5956 389.491 14.2618 390.365 14.0776C391.262 13.8704 392.136 13.7668 392.987 13.7668C393.608 13.7668 394.264 13.8129 394.954 13.905C395.644 13.9971 396.3 14.1352 396.921 14.3194C397.542 14.5035 398.048 14.7453 398.439 15.0445C398.83 15.3208 399.025 15.6546 399.025 16.046C399.025 16.2302 398.979 16.4489 398.887 16.7021C398.795 16.9323 398.657 17.151 398.473 17.3582C398.289 17.5424 398.059 17.6345 397.783 17.6345C397.53 17.6345 397.22 17.5309 396.852 17.3237C396.484 17.0935 395.989 16.8748 395.368 16.6676C394.77 16.4374 393.976 16.3222 392.987 16.3222C392.159 16.3222 391.377 16.4374 390.641 16.6676C389.928 16.8978 389.353 17.2776 388.916 17.8071C388.502 18.3366 388.295 19.0388 388.295 19.9136C388.295 20.7424 388.502 21.4215 388.916 21.951C389.33 22.4805 389.87 22.9179 390.537 23.2633C391.205 23.6086 391.941 23.9309 392.746 24.2302C393.551 24.5064 394.356 24.8402 395.161 25.2316C395.966 25.5999 396.702 26.0604 397.369 26.6129C398.059 27.1654 398.611 27.8906 399.025 28.7884C399.439 29.6633 399.646 30.7683 399.646 32.1035C399.646 33.7611 399.313 35.1309 398.646 36.2129C398.002 37.2719 397.116 38.0661 395.989 38.5956C394.862 39.1021 393.562 39.3553 392.09 39.3553Z" fill="#4390FE"/>
</g>
<defs>
<clipPath id="clip0_951_2376">
<rect width="399.665" height="40" fill="white"/>
</clipPath>
</defs>
</svg>
