<svg width="250" height="250" viewBox="0 0 250 250" fill="none" xmlns="http://www.w3.org/2000/svg">
<circle cx="125" cy="125" r="125" fill="#1B003B"/>
<path fill-rule="evenodd" clip-rule="evenodd" d="M52.4122 47.2874L68.0565 40.4381C68.0565 40.4381 83.3304 35.7394 98.1724 35.7394C113.014 35.7394 127.662 40.4381 127.662 40.4381L146.054 47.2874H52.4122Z" fill="#2D75DC"/>
<path fill-rule="evenodd" clip-rule="evenodd" d="M52.4122 47.2874C52.4122 47.2874 76.0135 45.1421 99.3784 45.1421C122.743 45.1421 146.054 47.2874 146.054 47.2874V50.7124H52.4122V47.2874Z" fill="#00DEE6"/>
<rect x="87.528" y="63.0453" width="23.4105" height="2.71792" fill="#2D75DC"/>
<path fill-rule="evenodd" clip-rule="evenodd" d="M87.528 63.0453L84.2568 60.9274C84.2568 60.9274 91.8176 60.0401 99.3784 60.0401C106.939 60.0401 114.5 60.9274 114.5 60.9274L110.938 63.0453H87.528Z" fill="#00DEE6"/>
<path fill-rule="evenodd" clip-rule="evenodd" d="M84.2568 60.9274C84.2568 60.9274 82.7442 59.0581 71.636 56.9208C60.5279 54.7834 43 56.688 43 52.9891C43 49.2903 70.8264 49.2903 99.2332 49.2903C127.64 49.2903 156 49.9757 156 52.9891C156 56.0026 138.143 55.0654 128.444 56.9208C118.744 58.7762 114.5 60.9274 114.5 60.9274H84.2568Z" fill="#1733AA"/>
<path fill-rule="evenodd" clip-rule="evenodd" d="M96.3069 35.8661C96.3069 35.8661 97.804 34.7465 98.3586 30.3304C98.9132 25.9143 98.9132 8 99.3457 8C99.7783 8 99.573 25.5333 100.096 30.3304C100.619 35.1275 102.385 35.8661 102.385 35.8661H96.3069Z" fill="#2D75DC"/>
<path fill-rule="evenodd" clip-rule="evenodd" d="M63.217 215C63.217 215 86.6762 197.813 91.3623 165.533C96.0484 133.252 95.128 73.531 93.7342 70.4043C92.3404 67.2776 81.0029 66.7201 81.0029 65.7252C81.0029 64.7303 116.993 64.4043 116.993 65.7252C116.993 67.0461 105.754 67.3148 104.018 70.4043C102.283 73.4939 101.993 138.863 105.664 165.533C109.334 192.203 133.128 215 133.128 215H63.217Z" fill="#1733AA"/>
<path fill-rule="evenodd" clip-rule="evenodd" d="M93.7491 131.543H103.754L103.806 133.383H93.6729L93.7491 131.543Z" fill="#2D75DC"/>
<path fill-rule="evenodd" clip-rule="evenodd" d="M93.3187 137.594H103.936L103.994 139.433H93.0228L93.3187 137.594Z" fill="#2D75DC"/>
<path fill-rule="evenodd" clip-rule="evenodd" d="M54.2667 48.9534V48.0388C54.2667 48.0388 77.4041 46.361 99.7238 46.361C122.043 46.361 144.054 48.0388 144.054 48.0388V48.9534C144.054 48.9534 122.327 47.6572 99.7238 47.6572C77.1208 47.6572 54.2667 48.9534 54.2667 48.9534Z" fill="#1733AA"/>
<rect x="58.6277" y="47.3291" width="1.20213" height="1.81519" fill="#00DEE6"/>
<rect x="63.4362" y="46.7241" width="1.20213" height="2.42026" fill="#00DEE6"/>
<rect x="68.2447" y="46.7241" width="1.20213" height="2.42026" fill="#00DEE6"/>
<rect x="73.0532" y="46.4216" width="1.20213" height="2.42026" fill="#00DEE6"/>
<rect x="77.8618" y="46.361" width="1.20213" height="2.42026" fill="#00DEE6"/>
<rect x="82.6702" y="46.24" width="1.20213" height="2.42026" fill="#00DEE6"/>
<rect x="87.4788" y="46.119" width="1.20213" height="2.42026" fill="#00DEE6"/>
<rect x="92.2872" y="45.998" width="1.20213" height="2.42026" fill="#00DEE6"/>
<rect x="97.0958" y="45.998" width="1.20213" height="2.42026" fill="#00DEE6"/>
<rect x="101.904" y="45.998" width="1.20213" height="2.42026" fill="#00DEE6"/>
<rect x="106.713" y="45.998" width="1.20213" height="2.42026" fill="#00DEE6"/>
<rect x="111.521" y="45.998" width="1.20213" height="2.42026" fill="#00DEE6"/>
<rect x="116.33" y="46.24" width="1.20213" height="2.42026" fill="#00DEE6"/>
<rect x="125.947" y="46.4821" width="1.20213" height="2.42026" fill="#00DEE6"/>
<rect x="121.138" y="46.24" width="1.20213" height="2.42026" fill="#00DEE6"/>
<rect x="130.755" y="46.4821" width="1.20213" height="2.42026" fill="#00DEE6"/>
<rect x="135.564" y="46.9661" width="1.20213" height="2.42026" fill="#00DEE6"/>
<rect x="140.372" y="47.2081" width="1.20213" height="2.42026" fill="#00DEE6"/>
<path fill-rule="evenodd" clip-rule="evenodd" d="M185.4 75.6784C185.4 75.6784 188.523 83.247 189.287 85.7396C189.801 87.418 189.929 89.6744 189.958 90.9696C189.97 91.5354 190.428 92 190.994 92H191.144C191.694 92 192.145 91.561 192.183 91.0129C192.274 89.7255 192.525 87.4377 193.209 85.7396C194.215 83.2456 197.475 76.4738 197.475 76.4738H194.622L193.303 80.2538C192.817 81.6452 190.823 81.5649 190.451 80.139L189.287 75.6784H185.4Z" fill="#F9DF00"/>
<ellipse cx="181.375" cy="47.1156" rx="14.375" ry="13.1156" fill="url(#paint0_linear)"/>
<ellipse cx="191.438" cy="58.7739" rx="21.5625" ry="18.9447" fill="url(#paint1_linear)"/>
<path fill-rule="evenodd" clip-rule="evenodd" d="M34.3404 184.104C34.3404 184.104 24.7995 171.086 21.432 161.382C18.0645 151.677 19.0094 140.691 23.4468 133.274C27.8841 125.857 35.5331 115.654 54.6934 111.273C73.8537 106.892 91.2679 115.225 105.238 114.615C119.208 114.005 135.619 107.08 135.619 107.08C135.619 107.08 117.759 111.2 105.957 111.548C94.1546 111.897 70.5174 104.084 55.1122 107.349C39.7069 110.613 32.4128 115.193 23.4473 126.921C14.4819 138.648 14.8058 151.163 17.5339 160.5C20.262 169.837 34.3404 184.104 34.3404 184.104Z" fill="#00DEE6"/>
<path d="M125.607 231C140.191 231 152.933 229.684 163.835 227.053C174.737 224.421 183.833 220.841 191.125 216.31C198.417 211.78 203.885 206.484 207.531 200.422C211.177 194.359 213 187.897 213 181.035V95.5C213 92.4624 210.538 90 207.5 90H178.718C175.68 90 173.218 92.4624 173.218 95.5V167.745C173.218 172.342 172.61 176.689 171.395 180.786C170.179 184.883 167.838 188.464 164.371 191.528C160.904 194.592 156.061 197.024 149.841 198.823C143.622 200.622 135.544 201.521 125.607 201.521C115.599 201.521 107.467 200.622 101.212 198.823C94.9572 197.024 90.0961 194.592 86.629 191.528C83.1619 188.464 80.8028 184.883 79.5518 180.786C78.3008 176.689 77.6752 172.342 77.6752 167.745V95.5C77.6752 92.4624 75.2128 90 72.1752 90H43.5C40.4624 90 38 92.4624 38 95.5V181.035C38 187.897 39.8229 194.359 43.4688 200.422C47.1146 206.484 52.5833 211.78 59.875 216.31C67.1667 220.841 76.2991 224.421 87.2724 227.053C98.2456 229.684 111.024 231 125.607 231Z" fill="#A3FFFF"/>
<g filter="url(#filter0_d)">
<ellipse cx="138.864" cy="107.461" rx="29.5" ry="5.51641" transform="rotate(-7 138.864 107.461)" fill="#F9DF00"/>
</g>
<path d="M154.376 100.199C154.434 100.673 154.174 101.324 153.262 102.131C152.372 102.92 150.994 103.731 149.195 104.502C145.607 106.042 140.506 107.359 134.748 108.066C128.99 108.773 123.721 108.729 119.867 108.104C117.935 107.79 116.402 107.336 115.347 106.787C114.268 106.224 113.858 105.655 113.8 105.181C113.742 104.708 114.001 104.056 114.913 103.249C115.803 102.461 117.181 101.65 118.98 100.878C122.568 99.3382 127.67 98.0216 133.428 97.3146C139.186 96.6076 144.454 96.651 148.308 97.277C150.24 97.5908 151.774 98.0442 152.828 98.5936C153.908 99.1564 154.317 99.7256 154.376 100.199Z" stroke="#F9DF00" stroke-width="1.5"/>
<defs>
<filter id="filter0_d" x="103.911" y="95.8909" width="67.9048" height="26.1409" filterUnits="userSpaceOnUse" color-interpolation-filters="sRGB">
<feFlood flood-opacity="0" result="BackgroundImageFix"/>
<feColorMatrix in="SourceAlpha" type="matrix" values="0 0 0 0 0 0 0 0 0 0 0 0 0 0 0 0 0 0 127 0" result="hardAlpha"/>
<feOffset dx="-1" dy="1.5"/>
<feGaussianBlur stdDeviation="2"/>
<feColorMatrix type="matrix" values="0 0 0 0 0.176471 0 0 0 0 0.458824 0 0 0 0 0.862745 0 0 0 1 0"/>
<feBlend mode="normal" in2="BackgroundImageFix" result="effect1_dropShadow"/>
<feBlend mode="normal" in="SourceGraphic" in2="effect1_dropShadow" result="shape"/>
</filter>
<linearGradient id="paint0_linear" x1="164.646" y1="40.8572" x2="173.263" y2="63.2224" gradientUnits="userSpaceOnUse">
<stop stop-color="#20C390"/>
<stop offset="1" stop-color="#104156"/>
</linearGradient>
<linearGradient id="paint1_linear" x1="166.343" y1="49.734" x2="178.443" y2="82.3458" gradientUnits="userSpaceOnUse">
<stop stop-color="#20C390"/>
<stop offset="1" stop-color="#104156"/>
</linearGradient>
</defs>
</svg>
