<svg width="103" height="281" viewBox="0 0 103 281" fill="none" xmlns="http://www.w3.org/2000/svg">
<path fill-rule="evenodd" clip-rule="evenodd" d="M0 189.472H102.866C102.866 189.472 98.3371 190.349 94.8532 192.345C91.3694 194.341 90.9049 198.924 90.9049 198.924C90.9049 198.924 71.169 202.666 51.433 202.666C31.6971 202.666 11.9612 198.924 11.9612 198.924C11.9612 198.924 9.94506 194.708 6.95477 192.345C3.96447 189.982 0 189.472 0 189.472Z" fill="#00DEE6"/>
<path fill-rule="evenodd" clip-rule="evenodd" d="M15.9069 179.392C15.9069 179.392 43.6504 161.735 46.0339 134.704C48.4174 107.673 48.4174 0 51.7176 0C55.0178 0 58.1946 109.366 60.9069 134.704C63.6192 160.043 88.3846 179.392 88.3846 179.392H15.9069Z" fill="#2D75DC"/>
<path fill-rule="evenodd" clip-rule="evenodd" d="M11.9608 198.924C11.9608 198.924 46.1818 204.893 47.7552 214.99C49.3287 225.086 49.3287 281 51.5072 281C53.6857 281 55.7829 224.454 57.5734 214.99C59.3638 205.525 90.9045 198.924 90.9045 198.924C90.9045 198.924 71.1686 200.688 51.4327 200.688C31.6967 200.688 11.9608 198.924 11.9608 198.924Z" fill="#1733AA"/>
<rect x="23.9222" y="179.392" width="55.0214" height="4.72587" fill="#00DEE6"/>
<path fill-rule="evenodd" clip-rule="evenodd" d="M0 189.472H102.866L78.9437 184.118H23.9223L0 189.472Z" fill="#2D75DC"/>
<path fill-rule="evenodd" clip-rule="evenodd" d="M36.6497 160.407L38.4325 157.871H68.6305L70.3049 160.407H36.6497Z" fill="#1733AA"/>
<path fill-rule="evenodd" clip-rule="evenodd" d="M28.4081 169.859L30.7689 167.323H75.5446L77.7684 169.859H28.4081Z" fill="#1733AA"/>
</svg>
